<svg xmlns="http://www.w3.org/2000/svg" xmlns:xlink="http://www.w3.org/1999/xlink" width="500" zoomAndPan="magnify" viewBox="0 0 375 374.999991" height="500" preserveAspectRatio="xMidYMid meet" version="1.0"><path fill="#ffffff" d="M 194.515625 166.800781 C 194.515625 169.722656 192.164062 172.074219 189.246094 172.074219 C 186.328125 172.074219 183.976562 169.722656 183.976562 166.800781 C 183.976562 163.882812 186.246094 161.53125 189.246094 161.53125 C 192.246094 161.613281 194.515625 163.964844 194.515625 166.800781 Z M 172.785156 177.421875 L 172.785156 178.722656 C 172.785156 178.722656 170.273438 175.476562 164.921875 175.476562 C 156.085938 175.476562 149.191406 182.207031 149.191406 191.53125 C 149.191406 200.773438 156.003906 207.585938 164.921875 207.585938 C 170.355469 207.585938 172.785156 204.261719 172.785156 204.261719 L 172.785156 205.640625 C 172.785156 206.289062 173.273438 206.773438 173.921875 206.773438 L 180.488281 206.773438 L 180.488281 176.289062 L 173.921875 176.289062 C 173.273438 176.289062 172.785156 176.855469 172.785156 177.421875 Z M 172.785156 196.964844 C 171.570312 198.75 169.136719 200.289062 166.21875 200.289062 C 161.03125 200.289062 157.058594 197.046875 157.058594 191.53125 C 157.058594 186.019531 161.03125 182.773438 166.21875 182.773438 C 169.058594 182.773438 171.652344 184.398438 172.785156 186.097656 Z M 185.355469 176.289062 L 193.136719 176.289062 L 193.136719 206.773438 L 185.355469 206.773438 Z M 301.625 175.476562 C 296.273438 175.476562 293.761719 178.722656 293.761719 178.722656 L 293.761719 161.613281 L 285.976562 161.613281 L 285.976562 206.773438 L 292.542969 206.773438 C 293.191406 206.773438 293.679688 206.207031 293.679688 205.640625 L 293.679688 204.261719 C 293.679688 204.261719 296.191406 207.585938 301.542969 207.585938 C 310.382812 207.585938 317.273438 200.773438 317.273438 191.53125 C 317.273438 182.289062 310.382812 175.476562 301.625 175.476562 Z M 300.328125 200.207031 C 297.328125 200.207031 294.976562 198.667969 293.761719 196.882812 L 293.761719 186.019531 C 294.976562 184.398438 297.570312 182.695312 300.328125 182.695312 C 305.515625 182.695312 309.488281 185.9375 309.488281 191.449219 C 309.488281 196.964844 305.515625 200.207031 300.328125 200.207031 Z M 281.921875 188.695312 L 281.921875 206.855469 L 274.136719 206.855469 L 274.136719 189.585938 C 274.136719 184.558594 272.515625 182.53125 268.136719 182.53125 C 265.785156 182.53125 263.355469 183.75 261.8125 185.53125 L 261.8125 206.773438 L 254.03125 206.773438 L 254.03125 176.289062 L 260.191406 176.289062 C 260.839844 176.289062 261.328125 176.855469 261.328125 177.421875 L 261.328125 178.722656 C 263.597656 176.371094 266.597656 175.476562 269.597656 175.476562 C 273.003906 175.476562 275.839844 176.449219 278.109375 178.398438 C 280.867188 180.667969 281.921875 183.585938 281.921875 188.695312 Z M 235.136719 175.476562 C 229.785156 175.476562 227.273438 178.722656 227.273438 178.722656 L 227.273438 161.613281 L 219.488281 161.613281 L 219.488281 206.773438 L 226.058594 206.773438 C 226.707031 206.773438 227.191406 206.207031 227.191406 205.640625 L 227.191406 204.261719 C 227.191406 204.261719 229.707031 207.585938 235.058594 207.585938 C 243.894531 207.585938 250.785156 200.773438 250.785156 191.53125 C 250.867188 182.289062 243.976562 175.476562 235.136719 175.476562 Z M 233.839844 200.207031 C 230.839844 200.207031 228.488281 198.667969 227.273438 196.882812 L 227.273438 186.019531 C 228.488281 184.398438 231.085938 182.695312 233.839844 182.695312 C 239.03125 182.695312 243.003906 185.9375 243.003906 191.449219 C 243.003906 196.964844 239.03125 200.207031 233.839844 200.207031 Z M 212.761719 175.476562 C 215.109375 175.476562 216.328125 175.882812 216.328125 175.882812 L 216.328125 183.097656 C 216.328125 183.097656 209.839844 180.910156 205.785156 185.53125 L 205.785156 206.855469 L 198.003906 206.855469 L 198.003906 176.289062 L 204.570312 176.289062 C 205.21875 176.289062 205.707031 176.855469 205.707031 177.421875 L 205.707031 178.722656 C 207.164062 177.019531 210.328125 175.476562 212.761719 175.476562 Z M 131.921875 204.019531 C 131.515625 203.046875 131.109375 201.992188 130.707031 201.097656 C 130.058594 199.640625 129.410156 198.261719 128.839844 196.964844 L 128.761719 196.882812 C 123.164062 184.722656 117.164062 172.398438 110.839844 160.234375 L 110.597656 159.75 C 109.949219 158.53125 109.300781 157.234375 108.652344 155.9375 C 107.839844 154.476562 107.03125 152.9375 105.734375 151.476562 C 103.136719 148.234375 99.410156 146.449219 95.433594 146.449219 C 91.382812 146.449219 87.734375 148.234375 85.058594 151.316406 C 83.839844 152.773438 82.949219 154.316406 82.136719 155.773438 C 81.488281 157.074219 80.839844 158.371094 80.191406 159.585938 L 79.949219 160.074219 C 73.707031 172.234375 67.625 184.558594 62.03125 196.722656 L 61.949219 196.882812 C 61.382812 198.179688 60.734375 199.558594 60.085938 201.019531 C 59.679688 201.910156 59.273438 202.882812 58.867188 203.9375 C 57.8125 206.9375 57.488281 209.773438 57.894531 212.695312 C 58.785156 218.773438 62.839844 223.882812 68.433594 226.152344 C 70.542969 227.046875 72.734375 227.449219 75.003906 227.449219 C 75.652344 227.449219 76.460938 227.371094 77.109375 227.289062 C 79.785156 226.964844 82.542969 226.074219 85.21875 224.53125 C 88.542969 222.667969 91.707031 219.992188 95.273438 216.097656 C 98.839844 219.992188 102.085938 222.667969 105.328125 224.53125 C 108.003906 226.074219 110.761719 226.964844 113.433594 227.289062 C 114.085938 227.371094 114.894531 227.449219 115.542969 227.449219 C 117.8125 227.449219 120.085938 227.046875 122.109375 226.152344 C 127.785156 223.882812 131.761719 218.695312 132.652344 212.695312 C 133.300781 209.855469 132.976562 207.019531 131.921875 204.019531 Z M 95.355469 208.234375 C 90.976562 202.722656 88.136719 197.53125 87.164062 193.152344 C 86.761719 191.289062 86.679688 189.667969 86.921875 188.207031 C 87.085938 186.910156 87.570312 185.773438 88.21875 184.800781 C 89.761719 182.613281 92.355469 181.234375 95.355469 181.234375 C 98.355469 181.234375 101.03125 182.53125 102.488281 184.800781 C 103.136719 185.773438 103.625 186.910156 103.785156 188.207031 C 104.03125 189.667969 103.949219 191.371094 103.542969 193.152344 C 102.570312 197.449219 99.734375 202.640625 95.355469 208.234375 Z M 127.707031 212.046875 C 127.136719 216.261719 124.300781 219.910156 120.328125 221.53125 C 118.382812 222.34375 116.273438 222.585938 114.164062 222.34375 C 112.136719 222.097656 110.109375 221.449219 108.003906 220.234375 C 105.085938 218.613281 102.164062 216.097656 98.761719 212.371094 C 104.109375 205.800781 107.355469 199.800781 108.570312 194.449219 C 109.136719 191.9375 109.21875 189.667969 108.976562 187.558594 C 108.652344 185.53125 107.921875 183.667969 106.785156 182.046875 C 104.273438 178.398438 100.058594 176.289062 95.355469 176.289062 C 90.652344 176.289062 86.433594 178.476562 83.921875 182.046875 C 82.785156 183.667969 82.058594 185.53125 81.734375 187.558594 C 81.410156 189.667969 81.488281 192.019531 82.136719 194.449219 C 83.355469 199.800781 86.679688 205.882812 91.949219 212.449219 C 88.625 216.179688 85.625 218.695312 82.707031 220.316406 C 80.597656 221.53125 78.570312 222.179688 76.542969 222.421875 C 74.355469 222.667969 72.246094 222.34375 70.382812 221.613281 C 66.410156 219.992188 63.570312 216.34375 63.003906 212.125 C 62.761719 210.097656 62.921875 208.074219 63.734375 205.800781 C 63.976562 204.992188 64.382812 204.179688 64.785156 203.207031 C 65.355469 201.910156 66.003906 200.53125 66.652344 199.152344 L 66.734375 198.992188 C 72.328125 186.910156 78.328125 174.585938 84.570312 162.585938 L 84.8125 162.097656 C 85.460938 160.882812 86.109375 159.585938 86.761719 158.371094 C 87.410156 157.074219 88.136719 155.855469 89.03125 154.800781 C 90.734375 152.855469 93.003906 151.800781 95.515625 151.800781 C 98.03125 151.800781 100.300781 152.855469 102.003906 154.800781 C 102.894531 155.855469 103.625 157.074219 104.273438 158.371094 C 104.921875 159.585938 105.570312 160.882812 106.21875 162.097656 L 106.460938 162.585938 C 112.625 174.667969 118.625 186.992188 124.21875 199.074219 L 124.21875 199.152344 C 124.867188 200.449219 125.433594 201.910156 126.085938 203.207031 C 126.488281 204.179688 126.894531 204.992188 127.136719 205.800781 C 127.785156 207.910156 128.03125 209.9375 127.707031 212.046875 Z M 127.707031 212.046875 " fill-opacity="1" fill-rule="nonzero"/></svg>