<svg xmlns="http://www.w3.org/2000/svg" xmlns:xlink="http://www.w3.org/1999/xlink" width="500" zoomAndPan="magnify" viewBox="0 0 375 374.999991" height="500" preserveAspectRatio="xMidYMid meet" version="1.0"><path fill="#ffffff" d="M 66.992188 177.976562 C 67.941406 175.035156 69.335938 172.441406 71.207031 170.175781 C 73.074219 167.90625 75.417969 166.113281 78.207031 164.765625 C 81 163.421875 84.238281 162.75 87.953125 162.75 C 91.664062 162.75 94.90625 163.421875 97.695312 164.765625 C 100.488281 166.113281 102.832031 167.90625 104.699219 170.175781 C 106.566406 172.441406 107.988281 175.035156 108.910156 177.976562 C 109.859375 180.914062 110.332031 183.957031 110.332031 187.121094 C 110.332031 190.285156 109.859375 193.351562 108.910156 196.292969 C 107.964844 199.234375 106.566406 201.824219 104.699219 204.09375 C 102.832031 206.359375 100.488281 208.15625 97.695312 209.476562 C 94.90625 210.796875 91.664062 211.46875 87.953125 211.46875 C 84.238281 211.46875 81 210.796875 78.207031 209.476562 C 75.417969 208.15625 73.074219 206.359375 71.207031 204.09375 C 69.335938 201.824219 67.914062 199.234375 66.992188 196.292969 C 66.046875 193.351562 65.597656 190.3125 65.597656 187.121094 C 65.574219 183.957031 66.046875 180.914062 66.992188 177.976562 Z M 72.699219 194.097656 C 73.324219 196.390625 74.269531 198.433594 75.589844 200.253906 C 76.914062 202.074219 78.582031 203.542969 80.625 204.664062 C 82.667969 205.789062 85.109375 206.335938 87.953125 206.335938 C 90.792969 206.335938 93.234375 205.789062 95.277344 204.664062 C 97.324219 203.542969 99.015625 202.097656 100.3125 200.253906 C 101.632812 198.433594 102.582031 196.367188 103.203125 194.097656 C 103.828125 191.804688 104.125 189.488281 104.125 187.144531 C 104.125 184.804688 103.828125 182.484375 103.203125 180.191406 C 102.582031 177.902344 101.632812 175.855469 100.3125 174.039062 C 98.992188 172.21875 97.324219 170.75 95.277344 169.625 C 93.234375 168.503906 90.769531 167.957031 87.953125 167.957031 C 85.109375 167.957031 82.667969 168.503906 80.625 169.625 C 78.582031 170.75 76.886719 172.195312 75.589844 174.039062 C 74.269531 175.855469 73.324219 177.925781 72.699219 180.191406 C 72.078125 182.484375 71.777344 184.804688 71.777344 187.144531 C 71.777344 189.515625 72.078125 191.832031 72.699219 194.097656 Z M 72.699219 194.097656 " fill-opacity="1" fill-rule="nonzero"/><path fill="#ffffff" d="M 119.578125 180.765625 L 119.578125 184.777344 L 119.675781 184.777344 C 120.472656 183.132812 121.746094 181.9375 123.464844 181.191406 C 125.183594 180.441406 127.078125 180.070312 129.148438 180.070312 C 131.441406 180.070312 133.433594 180.492188 135.152344 181.339844 C 136.847656 182.1875 138.269531 183.308594 139.390625 184.753906 C 140.511719 186.199219 141.359375 187.84375 141.929688 189.714844 C 142.503906 191.582031 142.804688 193.574219 142.804688 195.695312 C 142.804688 197.789062 142.53125 199.78125 141.980469 201.675781 C 141.433594 203.542969 140.585938 205.1875 139.464844 206.585938 C 138.34375 207.980469 136.921875 209.078125 135.226562 209.875 C 133.53125 210.671875 131.539062 211.070312 129.296875 211.070312 C 128.574219 211.070312 127.75 210.996094 126.855469 210.847656 C 125.957031 210.695312 125.058594 210.449219 124.1875 210.097656 C 123.316406 209.75 122.46875 209.277344 121.695312 208.703125 C 120.921875 208.105469 120.25 207.382812 119.726562 206.484375 L 119.625 206.484375 L 119.625 221.8125 L 114.71875 221.8125 L 114.71875 180.765625 Z M 137.023438 191.308594 C 136.648438 189.988281 136.101562 188.816406 135.351562 187.769531 C 134.605469 186.746094 133.65625 185.925781 132.484375 185.300781 C 131.316406 184.679688 129.96875 184.378906 128.398438 184.378906 C 126.753906 184.378906 125.359375 184.703125 124.210938 185.351562 C 123.066406 186 122.144531 186.847656 121.394531 187.894531 C 120.671875 188.941406 120.148438 190.136719 119.828125 191.484375 C 119.503906 192.828125 119.351562 194.175781 119.351562 195.542969 C 119.351562 196.988281 119.527344 198.410156 119.875 199.757812 C 120.226562 201.125 120.773438 202.296875 121.496094 203.34375 C 122.242188 204.367188 123.191406 205.214844 124.386719 205.835938 C 125.558594 206.460938 127.003906 206.785156 128.671875 206.785156 C 130.34375 206.785156 131.761719 206.460938 132.886719 205.8125 C 134.007812 205.164062 134.929688 204.292969 135.601562 203.21875 C 136.300781 202.148438 136.773438 200.925781 137.097656 199.558594 C 137.394531 198.1875 137.546875 196.765625 137.546875 195.320312 C 137.570312 193.972656 137.394531 192.628906 137.023438 191.308594 Z M 137.023438 191.308594 " fill-opacity="1" fill-rule="nonzero"/><path fill="#ffffff" d="M 167.875 208.527344 C 165.65625 210.199219 162.863281 211.046875 159.476562 211.046875 C 157.109375 211.046875 155.039062 210.671875 153.296875 209.898438 C 151.550781 209.125 150.082031 208.054688 148.882812 206.683594 C 147.6875 205.3125 146.816406 203.667969 146.21875 201.75 C 145.621094 199.832031 145.296875 197.761719 145.222656 195.496094 C 145.222656 193.226562 145.570312 191.183594 146.265625 189.289062 C 146.964844 187.421875 147.9375 185.777344 149.183594 184.40625 C 150.429688 183.035156 151.898438 181.960938 153.621094 181.191406 C 155.3125 180.417969 157.207031 180.042969 159.226562 180.042969 C 161.867188 180.042969 164.0625 180.59375 165.804688 181.6875 C 167.550781 182.785156 168.945312 184.179688 170.015625 185.851562 C 171.0625 187.542969 171.8125 189.390625 172.210938 191.359375 C 172.609375 193.351562 172.785156 195.246094 172.707031 197.039062 L 150.480469 197.039062 C 150.429688 198.335938 150.605469 199.582031 150.929688 200.726562 C 151.277344 201.898438 151.824219 202.921875 152.597656 203.820312 C 153.371094 204.714844 154.34375 205.4375 155.511719 205.960938 C 156.710938 206.484375 158.105469 206.757812 159.699219 206.757812 C 161.769531 206.757812 163.464844 206.285156 164.785156 205.3125 C 166.105469 204.367188 166.976562 202.894531 167.402344 200.953125 L 172.234375 200.953125 C 171.539062 204.339844 170.09375 206.859375 167.875 208.527344 Z M 166.679688 189.488281 C 166.230469 188.46875 165.65625 187.570312 164.910156 186.820312 C 164.160156 186.074219 163.289062 185.476562 162.265625 185.054688 C 161.246094 184.605469 160.148438 184.40625 158.902344 184.40625 C 157.632812 184.40625 156.511719 184.628906 155.488281 185.054688 C 154.464844 185.5 153.621094 186.097656 152.871094 186.847656 C 152.148438 187.621094 151.574219 188.492188 151.152344 189.515625 C 150.726562 190.535156 150.480469 191.605469 150.40625 192.753906 L 167.425781 192.753906 C 167.375 191.605469 167.125 190.535156 166.679688 189.488281 Z M 166.679688 189.488281 " fill-opacity="1" fill-rule="nonzero"/><path fill="#ffffff" d="M 180.558594 180.765625 L 180.558594 185.476562 L 180.660156 185.476562 C 182.703125 181.886719 185.917969 180.070312 190.351562 180.070312 C 192.320312 180.070312 193.941406 180.34375 195.261719 180.867188 C 196.558594 181.414062 197.628906 182.160156 198.425781 183.109375 C 199.226562 184.054688 199.796875 185.203125 200.121094 186.523438 C 200.445312 187.84375 200.621094 189.3125 200.621094 190.910156 L 200.621094 210.449219 L 195.6875 210.449219 L 195.6875 190.359375 C 195.6875 188.515625 195.136719 187.070312 194.066406 186 C 192.996094 184.929688 191.523438 184.378906 189.628906 184.378906 C 188.136719 184.378906 186.839844 184.605469 185.742188 185.078125 C 184.644531 185.527344 183.75 186.199219 183 187.023438 C 182.277344 187.867188 181.730469 188.839844 181.355469 189.988281 C 180.984375 191.109375 180.808594 192.355469 180.808594 193.699219 L 180.808594 210.472656 L 175.898438 210.472656 L 175.898438 180.765625 Z M 180.558594 180.765625 " fill-opacity="1" fill-rule="nonzero"/><path fill="#ffffff" d="M 216.496094 216.253906 C 200.84375 225.773438 177.394531 231.207031 151.226562 231.207031 C 104.101562 231.207031 65.898438 211.570312 65.898438 187.371094 C 65.898438 163.171875 104.101562 143.535156 151.226562 143.535156 C 177.492188 143.535156 201.019531 149.042969 216.667969 158.636719 C 199.597656 142.585938 168.96875 131.296875 133.929688 131.296875 C 80.277344 131.296875 36.789062 156.394531 36.789062 187.34375 C 36.789062 218.324219 80.277344 243.417969 133.929688 243.441406 C 168.796875 243.441406 199.347656 232.203125 216.496094 216.253906 Z M 216.496094 216.253906 " fill-opacity="1" fill-rule="nonzero"/><path fill="#ffffff" d="M 208.769531 163.746094 L 223.273438 163.746094 L 234.214844 195.941406 L 234.339844 195.941406 L 244.707031 163.746094 L 259.210938 163.746094 L 259.210938 210.570312 L 249.566406 210.570312 L 249.566406 177.378906 L 249.441406 177.378906 L 237.953125 210.570312 L 230.027344 210.570312 L 218.539062 177.726562 L 218.414062 177.726562 L 218.414062 210.570312 L 208.769531 210.570312 Z M 208.769531 163.746094 " fill-opacity="1" fill-rule="nonzero"/><path fill="#ffffff" d="M 266.289062 163.746094 L 276.578125 163.746094 L 276.578125 201.925781 L 299.40625 201.925781 L 299.40625 210.570312 L 266.289062 210.570312 Z M 266.289062 163.746094 " fill-opacity="1" fill-rule="nonzero"/><path fill="#ffffff" d="M 308.851562 205.8125 L 307.035156 205.8125 L 307.035156 210.570312 L 305.4375 210.570312 L 305.4375 205.8125 L 303.59375 205.8125 L 303.59375 204.417969 L 308.851562 204.417969 Z M 308.851562 205.8125 " fill-opacity="1" fill-rule="nonzero"/><path fill="#ffffff" d="M 309.574219 204.417969 L 311.917969 204.417969 L 312.988281 208.527344 L 313.015625 208.527344 L 314.0625 204.417969 L 316.429688 204.417969 L 316.429688 210.570312 L 314.910156 210.570312 L 314.910156 205.910156 L 314.882812 205.910156 L 313.613281 210.570312 L 312.390625 210.570312 L 311.09375 205.910156 L 311.070312 205.910156 L 311.070312 210.570312 L 309.574219 210.570312 Z M 309.574219 204.417969 " fill-opacity="1" fill-rule="nonzero"/></svg>