<svg xmlns="http://www.w3.org/2000/svg" xmlns:xlink="http://www.w3.org/1999/xlink" width="500" zoomAndPan="magnify" viewBox="0 0 375 374.999991" height="500" preserveAspectRatio="xMidYMid meet" version="1.0"><defs><clipPath id="ab90e1cbef"><path d="M 10 149.171875 L 123 149.171875 L 123 213.671875 L 10 213.671875 Z M 10 149.171875 " clip-rule="nonzero"/></clipPath><clipPath id="7935c2c26a"><path d="M 123 156 L 365 156 L 365 213.671875 L 123 213.671875 Z M 123 156 " clip-rule="nonzero"/></clipPath></defs><g clip-path="url(#ab90e1cbef)"><path fill="#ffffff" d="M 36.105469 182.210938 C 33.839844 182.210938 32.707031 180.402344 32.03125 178.816406 C 31.351562 177.230469 31.578125 175.875 29.996094 175.875 C 28.410156 175.875 24.566406 180.625 23.886719 186.964844 C 23.886719 187.644531 23.660156 191.941406 23.660156 194.207031 L 23.660156 200.996094 C 23.660156 203.484375 23.4375 206.652344 23.886719 208.460938 C 24.335938 210.957031 25.019531 211.179688 26.828125 212.085938 C 27.503906 212.3125 27.734375 212.535156 28.183594 212.535156 L 28.183594 212.765625 L 10.984375 212.765625 L 10.984375 212.535156 C 11.433594 212.535156 11.667969 212.3125 12.339844 212.085938 C 14.378906 211.179688 14.832031 210.957031 15.28125 208.460938 C 15.734375 206.652344 15.511719 203.484375 15.511719 200.996094 L 15.511719 177.460938 C 15.28125 175.648438 14.828125 175.199219 13.925781 174.515625 C 13.015625 173.839844 12.113281 173.839844 11.433594 173.613281 L 11.433594 173.386719 L 22.976562 173.386719 C 23.425781 173.386719 23.425781 173.613281 23.425781 173.839844 L 23.425781 184.25 C 24.554688 179.722656 26.820312 176.777344 28.175781 175.421875 C 29.535156 174.066406 31.800781 172.484375 34.742188 172.484375 C 36.097656 172.484375 37.683594 172.933594 38.8125 174.066406 C 39.496094 174.746094 40.171875 176.101562 40.171875 177.914062 C 40.402344 180.171875 39.046875 182.210938 36.105469 182.210938 Z M 72.539062 189.90625 L 48.324219 189.90625 C 48.324219 200.765625 49.679688 206.199219 52.398438 209.367188 C 54.433594 211.855469 56.46875 212.308594 59.183594 212.308594 C 66.652344 212.308594 70.5 206.199219 72.085938 199.863281 L 72.539062 199.863281 C 70.953125 207.78125 65.75 213.214844 57.828125 213.214844 C 53.300781 213.214844 48.324219 212.082031 44.925781 208.460938 C 41.304688 204.386719 39.949219 199.636719 39.949219 193.074219 C 39.949219 180.625 46.964844 172.480469 56.921875 172.480469 C 68.238281 172.480469 73.21875 180.171875 73.21875 187.414062 C 72.761719 188.097656 72.761719 189 72.539062 189.90625 Z M 61.675781 174.746094 C 60.089844 173.15625 58.734375 172.707031 56.472656 172.707031 C 54.4375 172.707031 53.078125 173.15625 51.71875 174.746094 C 49.683594 177.007812 48.554688 181.988281 48.324219 189.226562 L 61.675781 189.226562 C 64.390625 189.226562 64.617188 189.226562 64.617188 185.152344 C 64.386719 179.722656 63.035156 176.097656 61.675781 174.746094 Z M 100.144531 213.214844 C 97.882812 213.214844 96.074219 213.214844 95.167969 212.535156 C 94.035156 211.851562 93.132812 210.042969 93.355469 206.648438 C 92.453125 209.816406 89.289062 213.214844 83.402344 213.214844 C 77.96875 213.214844 73.21875 210.046875 73.21875 203.480469 C 73.21875 200.996094 73.894531 198.957031 75.480469 197.601562 C 78.421875 194.886719 82.265625 194.65625 86.113281 193.074219 C 91.320312 191.035156 93.808594 188.546875 93.808594 185.832031 L 93.808594 178.816406 C 93.808594 173.839844 92.453125 172.933594 88.605469 172.933594 C 86.570312 172.933594 85.4375 173.382812 84.53125 174.289062 C 83.628906 175.195312 83.175781 177.230469 83.175781 179.945312 C 83.175781 182.886719 81.589844 184.019531 79.105469 184.019531 C 77.066406 184.019531 75.484375 182.886719 75.484375 180.621094 C 75.484375 179.039062 75.933594 177.90625 77.066406 176.777344 C 79.105469 174.285156 84.761719 172.703125 88.609375 172.703125 C 95.398438 172.703125 101.960938 175.195312 101.960938 181.757812 C 101.960938 184.699219 101.734375 199.410156 101.734375 204.839844 C 101.734375 208.910156 101.734375 210.269531 102.640625 211.175781 C 103.191406 211.765625 103.871094 212.066406 104.675781 212.082031 C 105.582031 212.082031 106.261719 211.855469 107.167969 211.402344 L 107.167969 211.628906 C 106.027344 212.308594 103.089844 213.214844 100.144531 213.214844 Z M 87.476562 193.074219 C 84.980469 194.429688 83.851562 195.335938 82.949219 196.695312 C 82.042969 198.277344 81.363281 200.765625 81.363281 203.257812 C 81.363281 208.460938 83.398438 211.40625 87.023438 211.40625 C 87.699219 211.40625 88.605469 211.40625 89.28125 210.957031 C 91.320312 210.050781 93.128906 206.882812 93.128906 203.941406 L 93.128906 188.550781 C 92 190.582031 89.960938 191.714844 87.476562 193.074219 Z M 106.027344 212.308594 C 106.480469 212.082031 107.160156 211.855469 107.617188 211.628906 C 109.199219 210.949219 109.878906 210.5 110.332031 208.003906 C 110.78125 206.195312 110.78125 203.257812 110.78125 200.539062 L 110.78125 160.480469 C 110.78125 158.898438 110.78125 154.601562 110.554688 153.015625 C 110.332031 151.203125 109.878906 150.523438 108.96875 150.074219 C 108.066406 149.390625 107.160156 149.390625 106.480469 149.167969 L 118.019531 149.167969 C 118.472656 149.167969 118.472656 149.167969 118.472656 149.847656 L 118.472656 200.996094 C 118.472656 203.480469 118.472656 206.425781 118.699219 208.457031 C 119.148438 210.953125 119.832031 211.402344 121.863281 212.082031 C 122.316406 212.308594 122.546875 212.308594 122.996094 212.535156 L 122.996094 212.761719 L 106.023438 212.761719 L 106.023438 212.308594 Z M 106.027344 212.308594 " fill-opacity="1" fill-rule="nonzero"/></g><g clip-path="url(#7935c2c26a)"><path fill="#ffffff" d="M 147.894531 207.328125 C 146.539062 210.269531 142.460938 213.214844 138.390625 213.214844 C 134.769531 213.214844 132.507812 212.761719 130.472656 210.722656 C 128.886719 209.136719 127.980469 207.324219 127.980469 203.933594 C 127.980469 202.125 128.207031 178.136719 128.433594 173.609375 C 127.078125 173.609375 124.359375 173.609375 123 173.382812 L 123 173.15625 C 128.65625 171.800781 132.277344 168.855469 136.128906 156.410156 L 136.351562 156.410156 L 136.351562 172.929688 L 145.40625 172.929688 L 145.40625 173.378906 L 136.351562 173.378906 L 135.898438 206.421875 C 135.898438 209.816406 136.804688 211.851562 140.652344 211.851562 C 143.820312 211.851562 146.3125 209.363281 147.441406 207.101562 Z M 163.511719 213.214844 C 154.460938 213.214844 144.726562 205.292969 144.726562 192.84375 C 144.726562 180.402344 154.460938 172.484375 163.511719 172.484375 C 172.566406 172.484375 182.523438 180.175781 182.523438 192.84375 C 182.523438 205.292969 172.789062 213.214844 163.511719 213.214844 Z M 169.625 175.417969 C 167.8125 173.15625 165.550781 172.703125 163.511719 172.703125 C 161.476562 172.703125 159.210938 173.382812 157.628906 175.195312 C 154.914062 178.136719 153.328125 185.601562 153.328125 192.621094 C 153.328125 199.863281 154.914062 206.875 157.628906 210.042969 C 159.441406 212.304688 161.703125 212.761719 163.738281 212.761719 C 165.773438 212.761719 167.8125 212.308594 169.84375 210.042969 C 172.339844 207.101562 174.148438 199.859375 174.148438 192.621094 C 173.921875 185.601562 172.339844 178.589844 169.625 175.417969 Z M 206.054688 182.210938 C 203.792969 182.210938 202.660156 180.402344 201.984375 178.816406 C 201.304688 177.230469 201.53125 175.875 199.945312 175.875 C 198.359375 175.875 194.515625 180.625 193.835938 186.964844 C 193.835938 187.644531 193.613281 191.941406 193.613281 194.207031 L 193.613281 200.996094 C 193.613281 203.484375 193.386719 206.652344 193.835938 208.460938 C 194.289062 210.957031 194.96875 211.179688 196.78125 212.085938 C 197.460938 212.3125 197.683594 212.535156 198.136719 212.535156 L 198.136719 212.765625 L 181.164062 212.765625 L 181.164062 212.535156 C 181.613281 212.535156 181.84375 212.3125 182.519531 212.085938 C 184.554688 211.179688 185.007812 210.957031 185.460938 208.460938 C 185.914062 206.652344 185.6875 203.484375 185.6875 200.996094 L 185.6875 177.460938 C 185.460938 175.648438 185.007812 175.199219 184.101562 174.515625 C 183.195312 173.839844 182.289062 173.839844 181.609375 173.613281 L 181.609375 173.386719 L 193.152344 173.386719 C 193.605469 173.386719 193.605469 173.613281 193.605469 173.839844 L 193.605469 184.25 C 194.734375 179.722656 197 176.777344 198.355469 175.421875 C 199.714844 174.066406 201.980469 172.484375 204.917969 172.484375 C 206.273438 172.484375 207.859375 172.933594 208.992188 174.066406 C 209.671875 174.746094 210.351562 176.101562 210.351562 177.914062 C 210.359375 180.171875 208.996094 182.210938 206.054688 182.210938 Z M 210.359375 213.894531 C 207.640625 213.894531 205.378906 211.855469 205.378906 208.914062 C 205.378906 205.976562 207.640625 203.9375 210.359375 203.9375 C 213.074219 203.9375 215.332031 205.746094 215.332031 208.914062 C 215.109375 211.855469 213.074219 213.894531 210.359375 213.894531 Z M 236.378906 213.214844 C 231.402344 213.214844 226.875 211.175781 223.933594 208.238281 C 220.085938 204.386719 218.730469 198.953125 218.730469 192.390625 C 218.730469 179.945312 228.234375 172.480469 236.609375 172.480469 C 242.265625 172.480469 246.5625 174.511719 248.152344 176.550781 C 249.507812 178.136719 250.183594 179.492188 250.183594 180.851562 C 250.183594 183.792969 248.152344 184.925781 246.339844 184.925781 C 243.171875 184.925781 242.039062 182.886719 241.8125 179.945312 C 241.132812 174.746094 240.226562 172.933594 236.378906 172.933594 C 234.796875 172.933594 232.308594 173.613281 230.945312 175.195312 C 228.914062 177.683594 227.78125 183.570312 227.78125 190.808594 C 227.78125 199.863281 228.914062 205.742188 231.179688 209.136719 C 232.988281 211.628906 235.25 212.304688 237.285156 212.304688 C 245.660156 212.304688 249.28125 205.0625 250.636719 199.632812 L 251.089844 199.632812 C 248.824219 207.328125 244.074219 213.214844 236.378906 213.214844 Z M 269.421875 213.214844 C 260.367188 213.214844 250.636719 205.292969 250.636719 192.84375 C 250.636719 180.402344 260.367188 172.484375 269.421875 172.484375 C 278.476562 172.484375 288.429688 180.175781 288.429688 192.84375 C 288.429688 205.292969 278.472656 213.214844 269.421875 213.214844 Z M 275.53125 175.417969 C 273.71875 173.15625 271.457031 172.703125 269.421875 172.703125 C 267.386719 172.703125 265.121094 173.382812 263.539062 175.195312 C 260.820312 178.136719 259.238281 185.601562 259.238281 192.621094 C 259.238281 199.863281 260.820312 206.875 263.539062 210.042969 C 265.347656 212.304688 267.609375 212.761719 269.648438 212.761719 C 271.683594 212.761719 273.71875 212.308594 275.757812 210.042969 C 278.246094 207.101562 280.054688 199.859375 280.054688 192.621094 C 279.605469 185.601562 278.023438 178.589844 275.53125 175.417969 Z M 333.6875 212.308594 C 334.140625 212.082031 334.371094 211.855469 335.046875 211.628906 C 336.859375 210.949219 337.535156 210.5 337.988281 208.007812 C 338.4375 206.195312 338.4375 203.257812 338.4375 200.539062 L 338.4375 184.46875 C 338.4375 180.167969 337.988281 178.136719 337.082031 176.777344 C 335.953125 175.191406 334.367188 174.285156 332.105469 174.285156 C 328.03125 174.285156 323.277344 177.90625 322.601562 184.921875 C 322.601562 186.277344 322.375 187.863281 322.375 189.675781 L 322.375 200.308594 C 322.375 202.800781 322.148438 205.742188 322.601562 207.777344 C 323.050781 210.269531 323.730469 210.71875 325.539062 211.398438 C 326.222656 211.628906 326.445312 211.847656 326.898438 211.847656 L 326.898438 212.078125 L 309.699219 212.078125 L 309.699219 211.847656 C 310.152344 211.847656 310.378906 211.628906 311.054688 211.398438 C 312.867188 210.71875 313.546875 210.269531 314 207.777344 C 314.449219 205.96875 314.449219 203.027344 314.449219 200.308594 L 314.449219 184.242188 C 314.449219 179.941406 314 177.902344 312.863281 176.546875 C 311.734375 174.964844 310.148438 174.058594 307.886719 174.058594 C 303.359375 174.058594 299.058594 177.902344 298.382812 184.917969 C 298.152344 187.179688 298.152344 189.894531 298.152344 192.613281 L 298.152344 200.078125 C 298.152344 202.574219 297.929688 205.738281 298.382812 207.550781 C 298.832031 210.039062 299.511719 210.265625 301.546875 211.171875 L 302.902344 211.625 L 302.902344 211.847656 L 285.707031 211.847656 L 285.707031 211.625 C 286.15625 211.625 286.386719 211.394531 287.0625 211.171875 C 289.097656 210.492188 289.550781 210.039062 290.003906 207.550781 C 290.453125 205.738281 290.453125 202.574219 290.453125 200.078125 L 290.453125 184.242188 C 290.453125 182.652344 290.453125 178.132812 290.230469 176.769531 C 290.003906 174.960938 289.546875 174.507812 288.644531 173.828125 C 287.738281 173.148438 286.832031 173.148438 286.152344 172.921875 L 286.152344 172.699219 L 297.695312 172.699219 C 298.144531 172.699219 298.144531 172.699219 298.144531 173.148438 L 297.917969 182.203125 C 299.050781 178.132812 301.085938 175.867188 303.125 174.28125 C 304.710938 173.152344 307.648438 171.792969 310.816406 171.792969 C 314.890625 171.792969 317.832031 172.921875 319.417969 174.957031 C 320.324219 176.089844 321.90625 178.582031 321.90625 182.429688 C 323.039062 178.128906 325.304688 175.636719 327.339844 174.277344 C 329.375 172.695312 332.542969 171.789062 334.808594 171.789062 C 339.785156 171.789062 342.277344 173.375 343.632812 175.183594 C 344.761719 176.542969 345.894531 179.03125 345.894531 183.785156 L 345.894531 200.074219 C 345.894531 202.570312 345.894531 205.507812 346.347656 207.546875 C 346.796875 210.035156 347.476562 210.488281 349.289062 211.167969 L 350.644531 211.621094 L 350.644531 211.84375 L 333.671875 211.84375 L 333.671875 212.308594 L 333.691406 212.308594 Z M 357.226562 180.625 C 356.320312 180.625 355.414062 180.402344 354.511719 180.175781 C 353.605469 179.726562 352.925781 179.273438 352.472656 178.820312 C 351.792969 178.140625 351.34375 177.464844 351.117188 176.78125 C 350.664062 175.878906 350.664062 175.199219 350.664062 174.066406 C 350.664062 173.160156 350.894531 172.253906 351.117188 171.351562 C 351.566406 170.445312 352.019531 169.765625 352.472656 169.089844 C 353.152344 168.40625 353.832031 167.957031 354.738281 167.730469 C 355.640625 167.28125 356.546875 167.28125 357.453125 167.28125 C 358.359375 167.28125 359.265625 167.507812 360.167969 167.730469 C 361.074219 168.183594 361.753906 168.640625 362.203125 169.089844 C 362.886719 169.769531 363.335938 170.445312 363.558594 171.125 C 364.011719 172.03125 364.011719 172.710938 364.011719 173.839844 C 364.011719 174.746094 363.785156 175.652344 363.558594 176.558594 C 363.109375 177.464844 362.65625 178.144531 362.203125 178.820312 C 361.753906 179.492188 360.847656 179.949219 359.941406 180.175781 C 359.035156 180.625 358.132812 180.625 357.226562 180.625 Z M 357.226562 179.945312 C 358.132812 179.945312 358.8125 179.722656 359.71875 179.492188 C 360.394531 179.273438 361.074219 178.816406 361.527344 178.140625 C 361.980469 177.6875 362.433594 177.011719 362.886719 176.328125 C 363.109375 175.648438 363.335938 174.746094 363.335938 174.066406 C 363.335938 173.160156 363.109375 172.484375 362.886719 171.804688 C 362.636719 171.046875 362.183594 170.445312 361.527344 169.992188 C 361.078125 169.542969 360.394531 169.089844 359.71875 168.640625 C 359.035156 168.410156 358.132812 168.1875 357.453125 168.1875 C 356.546875 168.1875 355.871094 168.410156 354.964844 168.640625 C 354.207031 168.886719 353.601562 169.335938 353.152344 169.992188 C 352.703125 170.445312 352.25 171.125 351.796875 171.804688 C 351.570312 172.484375 351.347656 173.386719 351.347656 174.066406 C 351.347656 174.96875 351.570312 175.652344 351.796875 176.328125 C 352.019531 177.007812 352.476562 177.683594 353.152344 178.140625 C 353.605469 178.589844 354.285156 179.042969 354.964844 179.492188 C 355.640625 179.722656 356.546875 179.945312 357.226562 179.945312 Z M 354.511719 169.988281 L 357.675781 169.988281 C 358.582031 169.988281 359.488281 170.21875 359.9375 170.671875 C 360.390625 171.125 360.621094 171.578125 360.621094 172.253906 C 360.621094 172.933594 360.390625 173.386719 360.167969 173.613281 C 359.941406 174.0625 359.488281 174.292969 359.035156 174.515625 L 360.847656 177.011719 L 359.035156 177.011719 L 357.453125 174.746094 L 356.320312 174.746094 L 356.320312 177.011719 L 354.738281 177.011719 L 354.738281 169.992188 L 354.511719 169.992188 Z M 357.679688 173.382812 C 358.132812 173.382812 358.359375 173.382812 358.585938 173.15625 C 358.8125 172.933594 358.8125 172.707031 358.8125 172.480469 C 358.8125 172.03125 358.8125 171.796875 358.585938 171.796875 C 358.359375 171.574219 358.136719 171.574219 357.679688 171.574219 L 356.097656 171.574219 L 356.097656 173.609375 L 357.679688 173.609375 Z M 357.679688 173.382812 " fill-opacity="1" fill-rule="nonzero"/></g></svg>