<svg xmlns="http://www.w3.org/2000/svg" xmlns:xlink="http://www.w3.org/1999/xlink" width="500" zoomAndPan="magnify" viewBox="0 0 375 374.999991" height="500" preserveAspectRatio="xMidYMid meet" version="1.0"><defs><clipPath id="8310ba58fa"><path d="M 267 224 L 279 224 L 279 238.136719 L 267 238.136719 Z M 267 224 " clip-rule="nonzero"/></clipPath><clipPath id="dd650a78a6"><path d="M 280 224 L 291 224 L 291 238.136719 L 280 238.136719 Z M 280 224 " clip-rule="nonzero"/></clipPath><clipPath id="1cada9373e"><path d="M 292 225 L 303 225 L 303 238.136719 L 292 238.136719 Z M 292 225 " clip-rule="nonzero"/></clipPath><clipPath id="44d0a51fa5"><path d="M 150 136.886719 L 159 136.886719 L 159 162 L 150 162 Z M 150 136.886719 " clip-rule="nonzero"/></clipPath><clipPath id="101a75ade8"><path d="M 159 136.886719 L 170 136.886719 L 170 163 L 159 163 Z M 159 136.886719 " clip-rule="nonzero"/></clipPath><clipPath id="e6a3dcf5c2"><path d="M 188 136.886719 L 205 136.886719 L 205 163 L 188 163 Z M 188 136.886719 " clip-rule="nonzero"/></clipPath><clipPath id="736f2ca33c"><path d="M 246 225 L 257 225 L 257 238.136719 L 246 238.136719 Z M 246 225 " clip-rule="nonzero"/></clipPath><clipPath id="77b8bf69eb"><path d="M 233 136.886719 L 244 136.886719 L 244 163 L 233 163 Z M 233 136.886719 " clip-rule="nonzero"/></clipPath><clipPath id="7657645294"><path d="M 262 136.886719 L 273 136.886719 L 273 163 L 262 163 Z M 262 136.886719 " clip-rule="nonzero"/></clipPath></defs><path fill="#ffffff" d="M 231.574219 220.367188 L 238.222656 220.367188 C 240.367188 220.367188 241.476562 220.703125 242.539062 221.617188 C 243.527344 222.460938 243.960938 223.472656 243.960938 224.75 C 243.960938 225.933594 243.527344 226.945312 242.777344 227.691406 C 242.273438 228.171875 241.984375 228.34375 241.164062 228.609375 C 243.5 229.304688 244.632812 230.726562 244.632812 233.019531 C 244.632812 235.425781 243.117188 237.644531 240.054688 237.863281 C 239.5 237.886719 238.777344 237.910156 237.8125 237.910156 L 231.574219 237.910156 Z M 235.042969 223.355469 L 235.042969 227.378906 L 237.863281 227.378906 C 238.683594 227.378906 239.066406 227.332031 239.378906 227.160156 C 239.863281 226.921875 240.296875 226.054688 240.296875 225.355469 C 240.296875 224.632812 239.886719 223.882812 239.285156 223.59375 C 238.972656 223.472656 238.609375 223.378906 237.8125 223.378906 L 235.042969 223.378906 Z M 235.089844 230.292969 L 235.089844 235.042969 L 238.101562 235.042969 C 238.828125 235.042969 239.332031 234.921875 239.742188 234.632812 C 240.273438 234.222656 240.65625 233.425781 240.65625 232.582031 C 240.65625 231.570312 240.128906 230.726562 239.378906 230.4375 C 238.945312 230.320312 238.828125 230.292969 238.007812 230.292969 Z M 235.089844 230.292969 " fill-opacity="1" fill-rule="nonzero"/><path fill="#ffffff" d="M 262.707031 225.304688 L 262.707031 226.535156 C 263.191406 225.882812 263.769531 225.332031 264.394531 225.015625 C 264.683594 224.894531 265.117188 224.824219 265.503906 224.824219 C 266.007812 224.824219 266.226562 224.871094 266.757812 225.089844 L 266.058594 227.933594 C 265.71875 227.765625 265.457031 227.667969 265.070312 227.667969 C 264.324219 227.667969 263.625 228.027344 262.996094 228.753906 L 262.996094 237.886719 L 259.625 237.886719 L 259.625 225.28125 L 262.707031 225.28125 Z M 262.707031 225.304688 " fill-opacity="1" fill-rule="nonzero"/><g clip-path="url(#8310ba58fa)"><path fill="#ffffff" d="M 276.976562 234.464844 L 278.277344 236.488281 C 276.78125 237.691406 275.238281 238.269531 273.40625 238.269531 C 269.695312 238.269531 267.3125 235.644531 267.3125 231.597656 C 267.3125 229.28125 267.792969 227.738281 268.925781 226.488281 C 269.984375 225.304688 271.261719 224.75 272.972656 224.75 C 274.46875 224.75 275.867188 225.257812 276.710938 226.101562 C 277.890625 227.304688 278.421875 229.042969 278.421875 231.742188 C 278.421875 232.003906 278.421875 232.125 278.421875 232.511719 L 270.949219 232.511719 L 270.949219 232.609375 C 270.949219 234.609375 271.9375 235.742188 273.671875 235.742188 C 274.855469 235.765625 275.9375 235.332031 276.976562 234.464844 Z M 271.023438 230.054688 L 274.925781 230.054688 L 274.925781 229.910156 C 274.925781 228.945312 274.828125 228.4375 274.515625 227.980469 C 274.179688 227.476562 273.699219 227.234375 273.023438 227.234375 C 271.746094 227.234375 271 228.246094 271 230.03125 L 271 230.054688 Z M 271.023438 230.054688 " fill-opacity="1" fill-rule="nonzero"/></g><g clip-path="url(#dd650a78a6)"><path fill="#ffffff" d="M 287.914062 237.886719 L 287.914062 236.992188 C 287.433594 237.453125 287.386719 237.5 287.144531 237.667969 C 286.519531 238.125 285.601562 238.367188 284.542969 238.367188 C 281.675781 238.367188 280.109375 236.898438 280.109375 234.34375 C 280.109375 231.304688 282.203125 229.910156 286.300781 229.910156 C 286.542969 229.910156 286.710938 229.910156 287.046875 229.933594 L 287.046875 229.402344 C 287.046875 227.980469 286.78125 227.5 285.53125 227.5 C 284.445312 227.5 283.191406 228.027344 281.792969 228.96875 L 280.347656 226.558594 C 281.167969 226.027344 281.53125 225.859375 282.445312 225.5 C 283.699219 224.96875 284.78125 224.75 285.988281 224.75 C 288.15625 224.75 289.652344 225.546875 290.15625 226.992188 C 290.324219 227.523438 290.398438 227.933594 290.398438 229.304688 L 290.324219 233.644531 C 290.324219 233.714844 290.324219 233.789062 290.324219 233.859375 L 290.324219 237.910156 Z M 287.023438 232.246094 L 286.878906 232.246094 C 284.542969 232.246094 283.722656 232.679688 283.722656 234.222656 C 283.722656 235.234375 284.347656 235.910156 285.214844 235.910156 C 285.84375 235.910156 286.46875 235.570312 286.976562 235.019531 Z M 287.023438 232.246094 " fill-opacity="1" fill-rule="nonzero"/></g><g clip-path="url(#1cada9373e)"><path fill="#ffffff" d="M 300.375 237.886719 L 300.375 236.992188 C 299.53125 237.789062 298.328125 238.222656 296.976562 238.222656 C 295.167969 238.222656 293.601562 237.355469 293.167969 236.125 C 292.976562 235.546875 292.878906 234.875 292.878906 233.546875 L 292.878906 225.28125 L 296.207031 225.28125 L 296.207031 232.945312 C 296.207031 234.101562 296.277344 234.703125 296.46875 235.066406 C 296.640625 235.425781 297.144531 235.667969 297.652344 235.667969 C 298.472656 235.667969 299.484375 235.066406 299.746094 234.441406 L 299.746094 225.28125 L 302.976562 225.28125 L 302.976562 237.886719 Z M 300.375 237.886719 " fill-opacity="1" fill-rule="nonzero"/></g><path fill="#ffffff" d="M 95.632812 166.121094 C 92.402344 163.878906 88.980469 162.769531 85.390625 162.769531 C 81.050781 162.769531 76.808594 164.746094 74.519531 167.925781 C 72.039062 171.371094 70.929688 176.363281 70.929688 183.324219 C 70.929688 191.496094 71.675781 196.050781 73.605469 199.328125 C 76.183594 203.714844 80.425781 206.027344 85.96875 206.027344 C 89.460938 206.027344 92.523438 205.085938 95.65625 203.109375 C 96.015625 202.847656 96.5 202.507812 96.957031 202.171875 L 102.136719 210.269531 C 97.269531 213.761719 92.015625 215.328125 85.078125 215.328125 C 76.230469 215.328125 69.386719 212.652344 64.160156 207.0625 C 59 201.640625 56.398438 194.410156 56.398438 185.640625 C 56.398438 178.167969 57.773438 172.214844 60.738281 167.058594 C 65.726562 158.359375 74.929688 153.203125 85.269531 153.203125 C 91.148438 153.203125 97.027344 154.816406 100.667969 157.300781 Z M 95.632812 166.121094 " fill-opacity="1" fill-rule="nonzero"/><path fill="#ffffff" d="M 137.203125 202.074219 L 141.636719 208.894531 C 136.625 212.992188 131.347656 214.945312 125.199219 214.945312 C 112.695312 214.945312 104.597656 206.097656 104.597656 192.386719 C 104.597656 184.554688 106.210938 179.375 110.042969 175.109375 C 113.609375 171.109375 117.945312 169.226562 123.753906 169.226562 C 128.765625 169.226562 133.539062 170.9375 136.359375 173.832031 C 140.359375 177.929688 142.140625 183.785156 142.140625 192.894531 C 142.140625 193.832031 142.140625 194.171875 142.140625 195.519531 L 116.933594 195.519531 L 116.933594 195.855469 C 116.933594 202.582031 120.261719 206.414062 126.140625 206.414062 C 130.042969 206.414062 133.707031 204.964844 137.203125 202.074219 Z M 117.101562 187.183594 L 130.285156 187.183594 L 130.285156 186.675781 C 130.285156 183.445312 129.949219 181.734375 128.9375 180.121094 C 127.828125 178.410156 126.210938 177.566406 123.898438 177.566406 C 119.5625 177.566406 117.078125 180.964844 117.078125 187.011719 L 117.078125 187.183594 Z M 117.101562 187.183594 " fill-opacity="1" fill-rule="nonzero"/><path fill="#ffffff" d="M 157.804688 169.636719 L 158.890625 174.433594 C 161.515625 172.554688 162.046875 172.214844 163.902344 171.203125 C 166.191406 170.023438 169.179688 169.324219 171.734375 169.324219 C 176.578125 169.324219 180.84375 171.878906 182.195312 175.613281 C 182.796875 177.230469 183.039062 179.109375 183.039062 181.832031 L 183.039062 213.667969 L 171.832031 213.667969 L 171.832031 185.300781 C 171.832031 180.363281 170.988281 178.914062 168 178.914062 C 165.710938 178.914062 162.722656 180.457031 160.09375 182.84375 L 160.09375 213.667969 L 148.695312 213.667969 L 148.695312 169.636719 Z M 157.804688 169.636719 " fill-opacity="1" fill-rule="nonzero"/><path fill="#ffffff" d="M 158.890625 169.636719 L 158.890625 174.433594 C 161.515625 172.554688 162.046875 172.214844 163.902344 171.203125 C 166.191406 170.023438 169.179688 169.324219 171.734375 169.324219 C 176.578125 169.324219 180.84375 171.878906 182.195312 175.613281 C 182.796875 177.230469 183.039062 179.109375 183.039062 181.832031 L 183.039062 213.667969 L 171.832031 213.667969 L 171.832031 185.300781 C 171.832031 180.363281 170.988281 178.914062 168 178.914062 C 165.710938 178.914062 162.722656 180.457031 160.09375 182.84375 L 160.09375 213.667969 L 148.695312 213.667969 L 148.695312 169.636719 Z M 158.890625 169.636719 " fill-opacity="1" fill-rule="nonzero"/><path fill="#ffffff" d="M 218.632812 180.625 C 214.292969 178.410156 211.136719 177.46875 207.90625 177.46875 C 204.582031 177.46875 202.363281 179.179688 202.363281 181.734375 C 202.363281 183.953125 203.8125 185.132812 207.8125 186.167969 L 213.089844 187.519531 C 218.4375 188.867188 220.246094 190.507812 221.765625 192.460938 C 223.378906 194.507812 224.148438 196.964844 224.148438 199.859375 C 224.148438 208.871094 216.65625 215.015625 205.523438 215.015625 C 200.292969 215.015625 194.582031 213.402344 188.386719 210.246094 L 191.976562 201.664062 C 195.472656 203.785156 201.519531 206.605469 206.4375 206.605469 C 209.667969 206.605469 212.222656 204.484375 212.222656 201.664062 C 212.222656 198.675781 210.101562 197.160156 205.496094 196.316406 L 200.390625 195.375 C 197.496094 194.871094 193.90625 192.820312 192.386719 190.941406 C 190.84375 189.0625 189.929688 185.929688 189.929688 183.109375 C 189.929688 174.601562 196.652344 168.890625 206.773438 168.890625 C 213.355469 168.890625 217.835938 170.792969 221.667969 172.648438 Z M 218.632812 180.625 " fill-opacity="1" fill-rule="nonzero"/><path fill="#ffffff" d="M 254.515625 213.640625 L 254.492188 208.871094 C 251.863281 210.75 251.332031 211.085938 249.476562 212.101562 C 247.1875 213.28125 244.199219 213.980469 241.644531 213.980469 C 236.777344 213.980469 232.535156 211.425781 231.164062 207.691406 C 230.558594 206.074219 230.320312 204.195312 230.320312 201.472656 L 230.320312 169.613281 L 241.550781 169.613281 L 241.550781 197.953125 C 241.550781 202.894531 242.394531 204.339844 245.382812 204.339844 C 247.671875 204.339844 250.660156 202.796875 253.285156 200.410156 L 253.285156 169.613281 L 264.683594 169.613281 L 264.683594 213.640625 Z M 254.515625 213.640625 " fill-opacity="1" fill-rule="nonzero"/><path fill="#ffffff" d="M 126.621094 140.886719 L 126.621094 152.359375 C 126.621094 158.695312 123.5625 162.144531 117.921875 162.144531 C 112.285156 162.144531 109.390625 158.527344 109.390625 152.285156 L 109.390625 140.886719 L 106.789062 140.886719 L 106.789062 137.898438 L 115.5625 137.898438 L 115.5625 140.886719 L 112.984375 140.886719 L 112.984375 152.625 C 112.984375 156.769531 114.695312 159.011719 117.996094 159.011719 C 121.394531 159.011719 123.078125 156.839844 123.078125 152.863281 L 123.078125 140.886719 L 120.476562 140.886719 L 120.476562 137.898438 L 129.226562 137.898438 L 129.226562 140.886719 L 126.621094 140.886719 " fill-opacity="1" fill-rule="nonzero"/><path fill="#ffffff" d="M 140.480469 161.757812 L 140.480469 158.9375 L 142.550781 158.9375 L 142.550781 150.792969 C 142.550781 147.371094 141.46875 146.40625 139.636719 146.40625 C 137.925781 146.40625 136.769531 147.296875 135.757812 148.601562 L 135.757812 158.9375 L 137.851562 158.9375 L 137.851562 161.757812 L 130.164062 161.757812 L 130.164062 158.9375 L 132.238281 158.9375 L 132.238281 146.71875 L 130.164062 146.71875 L 130.164062 143.875 L 135.757812 143.875 L 135.757812 145.707031 C 136.914062 144.359375 138.382812 143.492188 140.527344 143.492188 C 144.117188 143.492188 146.09375 145.492188 146.09375 150.550781 L 146.09375 158.9375 L 148.214844 158.9375 L 148.214844 161.757812 L 140.480469 161.757812 " fill-opacity="1" fill-rule="nonzero"/><g clip-path="url(#44d0a51fa5)"><path fill="#ffffff" d="M 153.804688 140.863281 C 152.527344 140.863281 151.515625 139.828125 151.515625 138.621094 C 151.515625 137.34375 152.554688 136.332031 153.804688 136.332031 C 155.035156 136.332031 156.046875 137.371094 156.046875 138.621094 C 156.070312 139.828125 155.035156 140.863281 153.804688 140.863281 M 150.191406 161.757812 L 150.191406 158.9375 L 152.40625 158.9375 L 152.40625 146.71875 L 150.191406 146.71875 L 150.191406 143.875 L 155.925781 143.875 L 155.925781 158.9375 L 158.144531 158.9375 L 158.144531 161.757812 Z M 150.191406 161.757812 " fill-opacity="1" fill-rule="nonzero"/></g><g clip-path="url(#101a75ade8)"><path fill="#ffffff" d="M 169.109375 161.324219 C 168.289062 161.78125 167.132812 162.144531 165.808594 162.144531 C 163.445312 162.144531 161.976562 160.601562 161.976562 157.394531 L 161.976562 146.695312 L 159.542969 146.695312 L 159.542969 143.851562 L 161.976562 143.851562 L 161.976562 138.742188 L 165.46875 136.886719 L 165.46875 143.851562 L 169.496094 143.851562 L 169.496094 146.695312 L 165.46875 146.695312 L 165.46875 157.058594 C 165.46875 158.722656 165.902344 159.203125 167.132812 159.203125 C 167.492188 159.203125 167.878906 159.15625 168.21875 159.058594 Z M 169.109375 161.324219 " fill-opacity="1" fill-rule="nonzero"/></g><path fill="#ffffff" d="M 185.710938 154.046875 L 174.652344 154.046875 C 174.917969 157.300781 176.265625 159.128906 179.085938 159.128906 C 181.109375 159.128906 182.289062 158.601562 183.882812 157.394531 L 185.375 159.804688 C 183.449219 161.394531 181.445312 162.144531 178.867188 162.144531 C 174.484375 162.144531 171.207031 158.769531 171.207031 152.839844 C 171.207031 146.769531 174.242188 143.492188 178.652344 143.492188 C 183.496094 143.492188 185.808594 147.613281 185.808594 152.457031 C 185.808594 153.082031 185.738281 153.660156 185.710938 154.046875 M 178.433594 146.382812 C 176.121094 146.382812 174.917969 148.070312 174.675781 151.25 L 182.289062 151.25 C 182.097656 148.601562 181.15625 146.382812 178.433594 146.382812 " fill-opacity="1" fill-rule="nonzero"/><g clip-path="url(#e6a3dcf5c2)"><path fill="#ffffff" d="M 199.375 161.757812 L 199.375 159.878906 C 198.148438 161.324219 196.847656 162.117188 194.941406 162.117188 C 191.136719 162.117188 188.410156 159.324219 188.410156 152.503906 C 188.410156 146.382812 191.398438 143.464844 194.796875 143.464844 C 196.941406 143.464844 198.269531 144.382812 199.402344 145.585938 L 199.402344 139.296875 L 197.28125 139.296875 L 197.28125 136.476562 L 202.894531 136.476562 L 202.894531 158.914062 L 204.800781 158.914062 L 204.800781 161.734375 L 199.375 161.734375 M 199.402344 148.71875 C 198.652344 147.660156 197.160156 146.382812 195.472656 146.382812 C 193.109375 146.382812 191.882812 148.429688 191.882812 152.40625 C 191.882812 157.371094 193.28125 159.226562 195.640625 159.226562 C 197.085938 159.226562 198.027344 158.550781 199.402344 156.9375 Z M 199.402344 148.71875 " fill-opacity="1" fill-rule="nonzero"/></g><path fill="#ffffff" d="M 224.175781 162.117188 C 221.859375 162.117188 220.148438 161.203125 218.992188 159.804688 L 218.992188 161.734375 L 215.933594 161.734375 L 215.933594 154.429688 L 218.847656 154.429688 C 219.691406 157.347656 221.1875 159.035156 224.125 159.035156 C 226.730469 159.035156 228.152344 157.78125 228.152344 155.445312 C 228.152344 153.347656 227.5 152.3125 223.164062 151.082031 C 218.414062 149.757812 216.101562 148.214844 216.101562 143.949219 C 216.101562 139.925781 218.847656 137.464844 222.921875 137.464844 C 225.644531 137.464844 227.1875 138.574219 227.933594 139.78125 L 227.933594 137.851562 L 230.996094 137.851562 L 230.996094 145.152344 L 228.101562 145.152344 C 227.667969 142.359375 226.101562 140.550781 223.164062 140.550781 C 220.632812 140.550781 219.714844 141.851562 219.714844 143.730469 C 219.714844 145.707031 221.015625 146.816406 224.535156 147.78125 C 229.308594 149.152344 231.765625 150.792969 231.765625 155.058594 C 231.742188 159.78125 228.632812 162.117188 224.175781 162.117188 " fill-opacity="1" fill-rule="nonzero"/><path fill="#ffffff" d="M 256.03125 161.757812 L 256.03125 159.828125 C 254.949219 161.226562 253.308594 162.144531 251.1875 162.144531 C 248.105469 162.144531 245.453125 160.578125 245.453125 156.191406 C 245.453125 152.191406 248.273438 150.3125 252.054688 150.3125 C 253.769531 150.3125 255.019531 150.648438 256.007812 151.179688 L 256.007812 149.515625 C 256.007812 147.5625 254.851562 146.480469 252.78125 146.480469 C 251.042969 146.480469 249.671875 146.816406 248.34375 147.585938 L 247.042969 145.105469 C 248.683594 144.046875 250.585938 143.515625 252.972656 143.515625 C 256.753906 143.515625 259.40625 145.441406 259.40625 149.515625 L 259.40625 158.960938 L 261.359375 158.960938 L 261.359375 161.78125 L 256.03125 161.78125 M 256.03125 153.878906 C 255.140625 153.445312 254.152344 153.082031 252.082031 153.082031 C 250.152344 153.082031 248.804688 154.191406 248.804688 156.046875 C 248.804688 158.214844 249.792969 159.179688 251.839844 159.179688 C 253.550781 159.179688 255.042969 158.238281 256.03125 156.9375 Z M 256.03125 153.878906 " fill-opacity="1" fill-rule="nonzero"/><path fill="#ffffff" d="M 288.46875 154.046875 L 277.410156 154.046875 C 277.699219 157.300781 279.046875 159.128906 281.84375 159.128906 C 283.867188 159.128906 285.046875 158.601562 286.664062 157.394531 L 288.179688 159.804688 C 286.230469 161.394531 284.253906 162.144531 281.648438 162.144531 C 277.265625 162.144531 273.988281 158.769531 273.988281 152.839844 C 273.988281 146.769531 277.023438 143.492188 281.410156 143.492188 C 286.253906 143.492188 288.566406 147.613281 288.566406 152.457031 C 288.566406 153.082031 288.492188 153.660156 288.46875 154.046875 M 281.191406 146.382812 C 278.878906 146.382812 277.671875 148.070312 277.433594 151.25 L 285.023438 151.25 C 284.855469 148.601562 283.914062 146.382812 281.191406 146.382812 " fill-opacity="1" fill-rule="nonzero"/><path fill="#ffffff" d="M 298.375 162.023438 C 296.300781 162.023438 295.265625 161.421875 294.324219 160.335938 L 294.324219 161.78125 L 291.578125 161.78125 L 291.578125 156.167969 L 294.011719 156.167969 C 295.097656 158.214844 296.207031 159.226562 298.230469 159.226562 C 299.699219 159.226562 300.472656 158.359375 300.472656 157.128906 C 300.472656 155.804688 299.894531 155.058594 297.363281 154.335938 C 293 153.058594 291.53125 151.757812 291.53125 148.527344 C 291.53125 145.925781 293.410156 143.539062 297 143.539062 C 298.589844 143.539062 299.796875 143.925781 300.761719 144.914062 L 300.761719 143.828125 L 303.484375 143.828125 L 303.484375 149.417969 L 301.050781 149.417969 C 300.253906 147.371094 299.144531 146.285156 297.195312 146.285156 C 295.699219 146.285156 295.023438 147.058594 295.023438 148.261719 C 295.023438 149.347656 295.433594 150.140625 298.132812 150.960938 C 302.328125 152.261719 303.964844 153.46875 303.964844 156.867188 C 303.964844 159.710938 301.820312 162.023438 298.375 162.023438 " fill-opacity="1" fill-rule="nonzero"/><g clip-path="url(#736f2ca33c)"><path fill="#ffffff" d="M 254.203125 237.886719 L 254.203125 236.992188 C 253.382812 237.789062 252.152344 238.222656 250.804688 238.222656 C 248.996094 238.222656 247.429688 237.355469 246.996094 236.125 C 246.804688 235.546875 246.707031 234.875 246.707031 233.546875 L 246.707031 225.28125 L 250.03125 225.28125 L 250.03125 232.945312 C 250.03125 234.101562 250.105469 234.703125 250.320312 235.066406 C 250.488281 235.425781 250.996094 235.667969 251.503906 235.667969 C 252.320312 235.667969 253.332031 235.066406 253.597656 234.441406 L 253.597656 225.28125 L 256.828125 225.28125 L 256.828125 237.886719 Z M 254.203125 237.886719 " fill-opacity="1" fill-rule="nonzero"/></g><path fill="#ffffff" d="M 300.351562 180.625 C 296.011719 178.410156 292.855469 177.46875 289.625 177.46875 C 286.300781 177.46875 284.082031 179.179688 284.082031 181.734375 C 284.082031 183.953125 285.53125 185.132812 289.53125 186.167969 L 294.808594 187.519531 C 300.15625 188.867188 301.964844 190.507812 303.484375 192.460938 C 305.097656 194.507812 305.871094 196.964844 305.871094 199.859375 C 305.871094 208.871094 298.375 215.015625 287.242188 215.015625 C 282.011719 215.015625 276.300781 213.402344 270.105469 210.246094 L 273.699219 201.664062 C 277.191406 203.785156 283.242188 206.605469 288.15625 206.605469 C 291.386719 206.605469 293.941406 204.484375 293.941406 201.664062 C 293.941406 198.675781 291.820312 197.160156 287.214844 196.316406 L 282.109375 195.375 C 279.214844 194.871094 275.648438 192.820312 274.105469 190.941406 C 272.566406 189.0625 271.648438 185.929688 271.648438 183.109375 C 271.648438 174.601562 278.371094 168.890625 288.492188 168.890625 C 295.074219 168.890625 299.53125 170.792969 303.386719 172.648438 Z M 300.351562 180.625 " fill-opacity="1" fill-rule="nonzero"/><path fill="#ffffff" d="M 62.929688 226.199219 L 218.101562 226.199219 C 221.332031 226.199219 223.957031 228.800781 223.957031 232.054688 C 223.957031 235.28125 221.332031 237.910156 218.101562 237.910156 L 62.929688 237.910156 C 59.699219 237.910156 57.074219 235.28125 57.074219 232.054688 C 57.074219 228.824219 59.699219 226.199219 62.929688 226.199219 Z M 62.929688 226.199219 " fill-opacity="1" fill-rule="nonzero"/><g clip-path="url(#77b8bf69eb)"><path fill="#ffffff" d="M 243.285156 161.324219 C 242.464844 161.78125 241.308594 162.144531 239.984375 162.144531 C 237.644531 162.144531 236.152344 160.601562 236.152344 157.394531 L 236.152344 146.695312 L 233.71875 146.695312 L 233.71875 143.851562 L 236.152344 143.851562 L 236.152344 138.742188 L 239.644531 136.886719 L 239.644531 143.851562 L 243.671875 143.851562 L 243.671875 146.695312 L 239.644531 146.695312 L 239.644531 157.058594 C 239.644531 158.722656 240.078125 159.203125 241.308594 159.203125 C 241.671875 159.203125 242.03125 159.15625 242.394531 159.058594 Z M 243.285156 161.324219 " fill-opacity="1" fill-rule="nonzero"/></g><g clip-path="url(#7657645294)"><path fill="#ffffff" d="M 271.816406 161.324219 C 271 161.78125 269.839844 162.144531 268.515625 162.144531 C 266.15625 162.144531 264.683594 160.601562 264.683594 157.394531 L 264.683594 146.695312 L 262.25 146.695312 L 262.25 143.851562 L 264.683594 143.851562 L 264.683594 138.742188 L 268.179688 136.886719 L 268.179688 143.851562 L 272.203125 143.851562 L 272.203125 146.695312 L 268.179688 146.695312 L 268.179688 157.058594 C 268.179688 158.722656 268.613281 159.203125 269.839844 159.203125 C 270.203125 159.203125 270.589844 159.15625 270.925781 159.058594 Z M 271.816406 161.324219 " fill-opacity="1" fill-rule="nonzero"/></g><path fill="#ffffff" d="M 312.039062 139.804688 C 312.90625 139.804688 313.75 140.019531 314.570312 140.453125 C 315.386719 140.886719 316.039062 141.539062 316.496094 142.359375 C 316.980469 143.175781 317.195312 144.046875 317.195312 144.984375 C 317.195312 146.40625 316.691406 147.636719 315.675781 148.648438 C 314.664062 149.660156 313.460938 150.167969 312.015625 150.167969 C 310.59375 150.167969 309.363281 149.660156 308.351562 148.648438 C 307.339844 147.636719 306.832031 146.40625 306.832031 144.984375 C 306.832031 144.046875 307.074219 143.175781 307.53125 142.382812 C 308.015625 141.5625 308.640625 140.9375 309.460938 140.476562 C 310.277344 140.019531 311.148438 139.804688 312.039062 139.804688 Z M 312.039062 140.648438 C 311.316406 140.648438 310.617188 140.839844 309.941406 141.203125 C 309.265625 141.5625 308.710938 142.09375 308.328125 142.792969 C 307.941406 143.492188 307.726562 144.214844 307.726562 144.984375 C 307.726562 146.164062 308.132812 147.203125 309.003906 148.046875 C 309.84375 148.890625 310.859375 149.324219 312.0625 149.324219 C 313.265625 149.324219 314.28125 148.890625 315.121094 148.046875 C 315.964844 147.203125 316.375 146.191406 316.375 144.984375 C 316.375 143.78125 315.941406 142.769531 315.097656 141.925781 C 314.253906 141.082031 313.242188 140.648438 312.039062 140.648438 Z M 309.773438 147.828125 L 309.773438 142.261719 L 311.675781 142.261719 C 312.230469 142.261719 312.664062 142.308594 312.953125 142.382812 C 313.242188 142.453125 313.507812 142.625 313.726562 142.886719 C 313.941406 143.152344 314.039062 143.441406 314.039062 143.78125 C 314.039062 144.164062 313.894531 144.527344 313.605469 144.839844 C 313.316406 145.152344 312.929688 145.320312 312.449219 145.371094 C 312.785156 145.46875 313.21875 145.925781 313.75 146.769531 L 314.425781 147.851562 L 313.316406 147.851562 L 312.808594 146.984375 C 312.425781 146.335938 312.160156 145.925781 311.941406 145.757812 C 311.75 145.585938 311.484375 145.515625 311.148438 145.515625 L 310.617188 145.515625 L 310.617188 147.875 L 309.773438 147.875 Z M 310.6875 144.695312 L 311.773438 144.695312 C 312.664062 144.695312 313.121094 144.40625 313.121094 143.851562 C 313.121094 143.539062 313.027344 143.347656 312.808594 143.203125 C 312.59375 143.082031 312.230469 143.007812 311.726562 143.007812 L 310.714844 143.007812 L 310.714844 144.695312 Z M 310.6875 144.695312 " fill-opacity="1" fill-rule="nonzero"/></svg>