<svg xmlns="http://www.w3.org/2000/svg" xmlns:xlink="http://www.w3.org/1999/xlink" width="500" zoomAndPan="magnify" viewBox="0 0 375 374.999991" height="500" preserveAspectRatio="xMidYMid meet" version="1.0"><defs><clipPath id="3104764a2f"><path d="M 25.5 152.183594 L 90 152.183594 L 90 198 L 25.5 198 Z M 25.5 152.183594 " clip-rule="nonzero"/></clipPath><clipPath id="af675cdbb3"><path d="M 25.5 184 L 90 184 L 90 222 L 25.5 222 Z M 25.5 184 " clip-rule="nonzero"/></clipPath><clipPath id="9b39274bc9"><path d="M 107 158 L 349.5 158 L 349.5 222.683594 L 107 222.683594 Z M 107 158 " clip-rule="nonzero"/></clipPath></defs><g clip-path="url(#3104764a2f)"><path fill="#ffffff" d="M 69.144531 171.613281 C 70.0625 171.40625 71.019531 171.761719 71.574219 172.519531 L 74.964844 177.125 C 75.148438 177.378906 75.28125 177.65625 75.355469 177.964844 C 75.433594 178.269531 75.445312 178.578125 75.398438 178.886719 C 75.351562 179.199219 75.242188 179.488281 75.082031 179.757812 C 74.917969 180.027344 74.707031 180.253906 74.453125 180.4375 C 67.5 185.550781 59.964844 192.351562 55.628906 197.316406 C 55.527344 197.433594 55.601562 197.449219 55.671875 197.421875 C 63.386719 194.566406 81.113281 190.351562 89.648438 189.171875 L 89.648438 178.523438 L 89.65625 178.53125 C 89.65625 177.136719 89.015625 175.800781 87.917969 174.925781 L 87.351562 174.472656 L 60.453125 153.214844 C 60.046875 152.898438 59.601562 152.652344 59.113281 152.484375 C 58.625 152.3125 58.121094 152.230469 57.605469 152.230469 C 57.089844 152.230469 56.585938 152.3125 56.097656 152.484375 C 55.609375 152.652344 55.164062 152.898438 54.757812 153.214844 C 54.757812 153.214844 35.144531 168.6875 27.242188 174.925781 C 26.140625 175.800781 25.5 177.125 25.5 178.527344 L 25.5 187.199219 C 44.605469 178.011719 63.902344 172.789062 69.144531 171.609375 Z M 69.144531 171.613281 " fill-opacity="1" fill-rule="nonzero"/></g><g clip-path="url(#af675cdbb3)"><path fill="#ffffff" d="M 43.566406 212.8125 C 43.089844 213.015625 42.601562 213.054688 42.101562 212.933594 C 41.597656 212.8125 41.183594 212.554688 40.851562 212.160156 C 39.535156 210.582031 38.242188 208.988281 36.964844 207.378906 C 36.792969 207.164062 36.664062 206.925781 36.574219 206.664062 C 36.488281 206.398438 36.445312 206.132812 36.449219 205.855469 C 36.457031 205.578125 36.507812 205.308594 36.605469 205.050781 C 36.707031 204.792969 36.847656 204.558594 37.027344 204.351562 C 40.757812 200.042969 51.90625 187.972656 57.03125 184.566406 C 57.144531 184.492188 57.113281 184.417969 56.988281 184.449219 C 50.707031 186.144531 32.488281 192.898438 25.5 196.324219 L 25.5 216.847656 C 25.5 219.390625 27.550781 221.441406 30.097656 221.441406 L 85.058594 221.441406 C 87.59375 221.441406 89.65625 219.390625 89.65625 216.855469 L 89.65625 200.292969 C 80.292969 201.617188 55.855469 207.671875 43.566406 212.824219 Z M 43.566406 212.8125 " fill-opacity="1" fill-rule="nonzero"/></g><g clip-path="url(#9b39274bc9)"><path fill="#ffffff" d="M 186.648438 158.285156 L 186.648438 221.449219 L 199.378906 221.449219 L 199.378906 158.285156 Z M 208.59375 158.285156 L 208.59375 221.449219 L 221.324219 221.449219 L 221.324219 158.285156 Z M 171.074219 158.421875 C 167.078125 158.421875 164.234375 161.253906 164.234375 165.070312 L 164.230469 165.070312 C 164.234375 168.96875 167.078125 171.71875 171.070312 171.71875 C 175.066406 171.71875 177.910156 168.894531 177.910156 165.070312 C 177.910156 161.25 175.066406 158.421875 171.074219 158.421875 Z M 108.144531 160.429688 L 108.144531 171.914062 L 137.292969 171.914062 L 137.292969 172.773438 L 107.632812 214.25 L 107.632812 221.449219 L 157.226562 221.449219 L 157.226562 209.964844 L 127.226562 209.964844 L 127.226562 209.109375 L 156.371094 167.625 L 156.371094 160.429688 Z M 251.394531 176.234375 C 236.722656 176.234375 227.03125 185.382812 227.03125 199.5 L 227.03125 199.503906 C 227.03125 213.621094 236.8125 222.769531 251.398438 222.769531 C 265.980469 222.769531 275.761719 213.695312 275.761719 199.5 C 275.753906 185.382812 266.0625 176.234375 251.394531 176.234375 Z M 164.683594 177.503906 L 164.683594 221.449219 L 177.457031 221.449219 L 177.457031 177.503906 Z M 336.90625 177.542969 L 328.175781 209.011719 L 327.320312 209.011719 L 318.925781 177.550781 L 306.246094 177.550781 L 298.457031 209.015625 L 297.601562 209.015625 L 288.691406 177.550781 L 275.757812 177.550781 L 288.953125 221.445312 L 305.558594 221.445312 L 312.15625 192.378906 L 313.011719 192.378906 L 319.695312 221.4375 L 336.226562 221.4375 L 349.5 177.542969 Z M 288.953125 221.445312 L 288.949219 221.445312 L 288.953125 221.449219 Z M 251.394531 187.097656 C 258.167969 187.097656 262.976562 192.226562 262.976562 199.5 L 262.972656 199.5 L 262.980469 199.503906 C 262.980469 206.773438 258.261719 211.996094 251.398438 211.996094 C 244.535156 211.996094 239.726562 206.777344 239.726562 199.503906 C 239.726562 192.226562 244.621094 187.097656 251.394531 187.097656 Z M 251.394531 187.097656 " fill-opacity="1" fill-rule="nonzero"/></g></svg>