<svg xmlns="http://www.w3.org/2000/svg" xmlns:xlink="http://www.w3.org/1999/xlink" width="500" zoomAndPan="magnify" viewBox="0 0 375 374.999991" height="500" preserveAspectRatio="xMidYMid meet" version="1.0"><defs><clipPath id="9f78e29eb1"><path d="M 114 112.636719 L 261 112.636719 L 261 229 L 114 229 Z M 114 112.636719 " clip-rule="nonzero"/></clipPath><clipPath id="db055465cf"><path d="M 114 118 L 261 118 L 261 262.636719 L 114 262.636719 Z M 114 118 " clip-rule="nonzero"/></clipPath></defs><path fill="#ffffff" d="M 131.472656 187.582031 C 131.472656 218.660156 156.671875 244.027344 187.917969 244.027344 C 219 244.027344 244.367188 218.660156 244.367188 187.582031 C 244.367188 156.5 219 131.132812 187.917969 131.132812 C 156.671875 131.132812 131.472656 156.5 131.472656 187.582031 Z M 132.984375 187.582031 C 132.984375 157.339844 157.511719 132.644531 187.917969 132.644531 C 218.160156 132.644531 242.6875 157.339844 242.6875 187.582031 C 242.6875 217.820312 218.160156 242.515625 187.917969 242.515625 C 157.511719 242.515625 132.984375 217.820312 132.984375 187.582031 Z M 132.984375 187.582031 " fill-opacity="1" fill-rule="nonzero"/><path fill="#ffffff" d="M 139.871094 141.550781 L 139.871094 194.804688 C 139.871094 198.667969 140.375 202.363281 141.382812 206.0625 C 143.230469 212.949219 147.261719 219.332031 152.472656 224.375 C 157.175781 229.078125 162.71875 232.773438 168.597656 235.796875 C 173.136719 238.148438 177.671875 239.996094 182.542969 241.507812 C 183.71875 242.011719 185.0625 242.347656 186.238281 242.683594 C 186.574219 242.683594 186.910156 242.851562 187.246094 242.851562 C 189.972656 242.339844 192.664062 241.667969 195.3125 240.835938 C 200.351562 239.324219 205.390625 237.308594 210.09375 234.621094 C 215.976562 231.597656 221.183594 227.398438 225.550781 222.355469 C 230.421875 216.644531 233.613281 209.589844 234.960938 202.195312 C 235.96875 197.15625 235.800781 192.117188 235.96875 186.910156 C 235.96875 180.1875 235.96875 173.300781 236.136719 166.414062 C 236.136719 160.027344 236.136719 153.644531 236.304688 147.09375 L 236.304688 141.550781 Z M 204.550781 229.75 C 204.382812 229.75 204.214844 229.917969 203.878906 229.917969 L 203.039062 229.917969 C 202.199219 230.253906 201.527344 230.589844 200.855469 230.925781 C 200.183594 231.09375 199.679688 231.597656 199.175781 231.765625 L 197.160156 232.269531 C 195.984375 232.605469 194.976562 232.941406 193.800781 232.941406 C 192.625 232.941406 191.109375 232.773438 190.101562 232.269531 C 189.597656 232.101562 189.09375 231.765625 188.421875 231.597656 C 187.246094 230.925781 185.902344 230.253906 184.726562 229.582031 C 184.144531 229.195312 183.699219 228.691406 183.382812 228.070312 C 183.046875 227.902344 182.878906 227.566406 182.542969 227.230469 C 182.207031 227.0625 181.871094 226.558594 181.535156 226.558594 L 180.023438 226.558594 C 179.855469 226.558594 179.6875 226.222656 179.6875 226.054688 C 179.519531 225.886719 179.351562 225.886719 179.183594 225.71875 C 179.015625 225.550781 178.847656 225.382812 178.679688 225.382812 C 178.34375 225.214844 178.34375 225.046875 178.175781 225.214844 C 178.511719 225.71875 178.847656 226.054688 179.183594 226.558594 C 179.351562 226.894531 179.183594 227.230469 179.519531 227.230469 C 179.855469 227.230469 180.359375 227.0625 180.695312 227.0625 C 182.039062 227.230469 182.710938 228.574219 183.214844 229.75 C 183.382812 230.253906 183.550781 231.09375 183.550781 231.597656 L 183.550781 232.4375 C 183.382812 232.773438 183.214844 233.109375 183.214844 233.277344 C 183.214844 233.445312 183.046875 233.949219 182.878906 233.949219 C 182.542969 234.117188 182.207031 234.285156 181.871094 234.285156 C 181.367188 234.453125 180.695312 234.285156 180.191406 234.117188 C 179.519531 233.949219 179.015625 233.613281 178.511719 233.109375 C 178.34375 233.109375 177.839844 232.773438 177.671875 232.605469 C 177.503906 232.269531 177.335938 231.933594 177.167969 231.429688 L 177.167969 230.757812 C 177.167969 230.421875 177 229.917969 177 229.75 C 177.335938 228.910156 177.503906 228.40625 178.007812 227.902344 L 178.511719 228.910156 C 178.679688 229.246094 178.847656 229.414062 179.183594 229.078125 C 179.519531 228.742188 179.015625 228.40625 178.847656 228.238281 C 178.679688 228.070312 178.679688 227.902344 178.679688 227.734375 C 178.679688 227.566406 178.679688 227.398438 178.511719 227.230469 L 177.671875 226.390625 C 177.503906 226.222656 177 225.886719 177 225.71875 C 177 225.550781 176.832031 224.710938 176.496094 225.214844 C 176.160156 225.550781 176.496094 225.71875 176.664062 226.222656 C 175.992188 226.222656 175.488281 225.886719 174.816406 225.71875 C 174.3125 225.550781 173.808594 225.382812 173.136719 225.214844 C 172.128906 224.878906 171.117188 224.375 170.109375 224.039062 C 168.933594 223.53125 167.757812 223.195312 166.582031 222.859375 C 166.414062 222.691406 166.246094 222.691406 165.910156 222.691406 C 165.742188 222.691406 165.238281 222.523438 164.902344 222.691406 C 164.734375 222.691406 164.398438 222.859375 164.230469 222.859375 C 163.894531 222.859375 163.558594 222.859375 163.390625 222.523438 C 162.382812 221.851562 162.382812 220.675781 161.710938 219.667969 C 161.039062 218.828125 160.199219 217.820312 159.191406 217.316406 C 158.855469 217.148438 158.183594 216.644531 158.015625 216.308594 C 158.015625 215.972656 157.847656 215.636719 158.183594 215.636719 C 158.6875 215.636719 158.6875 215.636719 159.023438 216.140625 C 159.359375 216.308594 160.03125 216.308594 160.367188 216.476562 C 160.871094 216.8125 161.542969 217.148438 162.046875 217.484375 C 163.054688 217.988281 163.894531 218.828125 164.902344 219.5 C 165.742188 220.171875 166.75 220.675781 167.925781 221.179688 C 168.933594 221.515625 169.773438 222.355469 170.949219 222.523438 C 171.457031 222.523438 172.128906 222.691406 172.632812 223.027344 C 172.96875 223.195312 173.136719 223.195312 173.304688 223.027344 C 173.472656 222.691406 173.640625 222.523438 173.640625 222.1875 C 173.808594 222.1875 173.808594 222.019531 173.976562 221.851562 L 173.808594 221.683594 C 173.640625 221.515625 173.472656 221.011719 173.472656 220.84375 C 173.640625 220.507812 173.808594 220.339844 173.976562 220.003906 C 174.144531 219.835938 174.3125 219.667969 174.480469 219.332031 C 174.816406 218.996094 175.320312 218.660156 175.824219 218.492188 C 176.328125 218.324219 176.832031 218.15625 177.335938 218.15625 C 177.839844 218.15625 178.679688 217.988281 179.015625 218.15625 C 179.351562 218.324219 179.519531 218.492188 179.855469 218.492188 L 180.695312 218.492188 C 181.03125 218.996094 181.199219 219.5 181.03125 220.003906 C 180.863281 220.675781 180.695312 221.179688 180.191406 221.683594 C 180.023438 222.019531 180.023438 222.355469 179.855469 222.523438 L 178.847656 223.027344 C 178.175781 223.363281 177.503906 223.53125 176.832031 223.53125 L 175.824219 223.53125 C 175.65625 223.363281 174.984375 223.363281 174.984375 223.195312 C 174.816406 222.859375 175.320312 222.691406 175.488281 222.355469 C 175.65625 222.1875 175.320312 221.683594 175.152344 221.515625 L 174.984375 221.683594 L 174.984375 222.019531 C 174.816406 222.355469 174.480469 222.523438 174.3125 222.691406 L 174.144531 222.859375 C 174.144531 223.027344 174.3125 223.195312 174.144531 223.363281 C 174.144531 223.53125 173.808594 223.699219 173.808594 223.867188 C 174.3125 224.203125 174.816406 223.867188 175.320312 224.035156 C 175.488281 224.035156 175.824219 224.203125 175.992188 224.203125 C 176.496094 224.203125 176.832031 224.375 177.167969 224.375 L 178.175781 224.375 C 178.34375 224.375 178.511719 224.035156 178.847656 224.035156 C 179.351562 224.035156 179.855469 223.699219 180.359375 223.53125 C 180.527344 223.363281 180.863281 223.363281 181.03125 223.195312 C 181.199219 222.859375 181.367188 222.691406 181.535156 222.523438 C 182.039062 222.019531 182.375 221.515625 182.710938 221.179688 C 183.550781 220.507812 184.558594 219.835938 185.398438 219.164062 C 186.574219 218.492188 187.582031 217.988281 188.757812 217.484375 C 189.261719 217.316406 189.933594 217.316406 190.4375 217.316406 C 190.941406 217.316406 191.613281 217.316406 192.117188 217.148438 C 193.296875 217.148438 194.304688 216.980469 195.480469 217.148438 C 196.152344 217.316406 196.824219 217.316406 197.496094 217.484375 C 198 217.652344 198.503906 217.652344 199.175781 217.652344 L 200.855469 217.652344 C 201.527344 217.652344 202.03125 217.484375 202.535156 217.484375 C 203.039062 217.484375 203.710938 217.484375 204.214844 217.652344 C 204.382812 217.820312 205.726562 218.15625 205.054688 218.492188 C 204.550781 218.828125 204.046875 218.996094 203.375 219.164062 C 202.871094 219.164062 202.367188 219.5 201.863281 219.835938 C 201.359375 220.171875 201.023438 220.507812 200.519531 220.675781 C 200.015625 221.011719 199.511719 221.179688 198.839844 221.347656 C 197.832031 221.683594 196.824219 222.1875 195.648438 222.355469 C 195.144531 222.523438 194.472656 222.691406 193.964844 222.859375 C 193.632812 223.027344 193.292969 222.859375 193.125 222.859375 C 192.789062 222.859375 192.625 223.027344 192.285156 223.195312 L 191.445312 223.195312 C 191.109375 223.363281 190.773438 223.363281 190.605469 223.53125 C 189.933594 223.53125 189.429688 223.699219 188.757812 223.699219 C 187.75 224.035156 186.574219 224.035156 185.398438 224.203125 L 182.207031 224.203125 C 181.535156 224.035156 181.199219 224.375 180.695312 224.539062 C 180.359375 224.710938 180.191406 224.875 180.023438 224.875 C 179.6875 225.046875 180.527344 225.382812 180.527344 225.382812 C 181.03125 225.550781 181.703125 225.550781 182.375 225.550781 C 182.542969 225.550781 182.710938 225.550781 183.046875 225.382812 C 183.214844 225.214844 183.382812 225.214844 183.886719 225.046875 C 184.894531 224.875 186.070312 225.046875 187.078125 225.046875 C 187.75 225.214844 188.253906 225.214844 188.925781 225.382812 C 189.429688 225.71875 189.933594 225.886719 190.605469 226.054688 C 191.613281 226.390625 192.453125 226.894531 193.464844 227.398438 C 194.136719 227.566406 194.640625 227.734375 195.3125 227.734375 C 195.816406 227.902344 196.152344 228.070312 196.65625 228.238281 C 197.664062 228.574219 198.839844 228.910156 200.015625 228.910156 L 201.191406 228.910156 C 201.695312 228.910156 202.03125 228.574219 202.367188 228.742188 L 203.375 228.742188 C 203.710938 228.742188 203.878906 228.910156 204.046875 229.078125 C 204.550781 229.246094 204.71875 229.246094 204.550781 229.75 Z M 213.285156 220.84375 C 213.117188 221.011719 213.117188 221.179688 212.949219 221.179688 L 212.277344 221.179688 C 212.277344 221.179688 211.941406 221.515625 211.773438 221.515625 L 210.261719 223.027344 C 209.421875 223.53125 208.75 224.375 207.910156 224.878906 C 207.40625 225.214844 206.902344 225.550781 206.566406 225.886719 C 206.0625 226.054688 205.390625 226.558594 204.886719 226.726562 C 203.710938 227.0625 202.535156 227.398438 201.359375 227.566406 C 200.351562 227.566406 199.175781 227.566406 198 227.398438 C 197.160156 227.398438 196.320312 227.0625 195.480469 226.894531 C 194.640625 226.558594 193.800781 226.390625 192.960938 226.054688 C 191.949219 225.71875 191.109375 225.214844 190.269531 224.878906 C 191.445312 225.046875 192.453125 225.214844 193.632812 225.214844 L 197.328125 225.214844 C 197.832031 225.214844 198.503906 225.046875 199.007812 225.046875 C 199.511719 225.046875 200.015625 224.878906 200.6875 224.710938 C 201.695312 224.375 203.039062 224.375 203.878906 223.699219 C 203.375 223.699219 203.039062 223.699219 202.535156 223.867188 C 202.367188 224.035156 202.199219 223.867188 201.863281 223.867188 C 201.695312 223.867188 201.527344 224.035156 201.191406 224.035156 C 200.855469 224.035156 200.6875 223.867188 200.351562 223.867188 C 200.183594 223.867188 200.015625 224.035156 199.679688 224.035156 C 199.175781 224.203125 198.503906 224.203125 198 224.375 C 196.992188 224.539062 196.152344 224.539062 195.3125 224.539062 L 193.800781 224.539062 C 193.464844 224.539062 192.789062 224.710938 192.453125 224.375 C 192.960938 224.203125 193.296875 224.035156 193.800781 224.035156 C 194.472656 223.867188 194.976562 223.867188 195.480469 223.699219 C 196.65625 223.363281 197.832031 223.027344 198.839844 222.523438 C 199.847656 222.1875 201.023438 221.683594 202.199219 221.347656 L 206.0625 221.347656 C 207.238281 221.347656 208.246094 220.675781 209.421875 220.339844 C 210.261719 220.171875 210.765625 220.003906 211.605469 220.003906 L 212.613281 220.003906 C 212.78125 220.003906 212.78125 220.003906 212.949219 220.171875 C 213.117188 220.171875 213.453125 220.675781 213.285156 220.84375 Z M 206.734375 210.429688 C 201.023438 210.429688 195.3125 208.582031 190.605469 205.390625 C 190.101562 205.054688 189.597656 204.546875 189.09375 204.214844 C 188.757812 204.046875 188.589844 203.707031 188.253906 203.542969 C 188.085938 203.371094 188.085938 203.207031 187.917969 203.371094 L 187.414062 203.878906 C 186.40625 204.71875 185.230469 205.558594 184.054688 206.230469 C 181.703125 207.742188 179.015625 208.75 176.328125 209.589844 C 166.582031 211.941406 156.167969 208.917969 149.109375 201.859375 C 142.390625 194.804688 139.703125 184.894531 141.886719 175.484375 C 144.070312 166.414062 150.960938 158.683594 159.863281 155.492188 C 164.566406 153.8125 169.941406 153.308594 174.984375 154.316406 C 177.671875 154.988281 180.359375 155.996094 182.878906 157.339844 C 184.054688 157.84375 185.230469 158.683594 186.40625 159.523438 C 186.910156 159.859375 187.414062 160.363281 187.917969 160.699219 C 188.085938 160.871094 188.085938 160.871094 188.253906 160.699219 C 188.421875 160.53125 188.589844 160.363281 188.757812 160.363281 C 188.925781 160.027344 189.261719 159.859375 189.597656 159.691406 C 198.167969 153.140625 209.925781 151.964844 219.503906 156.835938 C 227.902344 161.035156 233.78125 169.4375 234.792969 178.84375 C 235.800781 188.421875 231.933594 197.996094 224.542969 204.046875 C 219.503906 208.078125 213.117188 210.429688 206.734375 210.429688 Z M 206.734375 210.429688 " fill-opacity="1" fill-rule="evenodd"/><path fill="#ffffff" d="M 196.65625 230.253906 C 195.816406 230.253906 195.144531 230.085938 194.472656 229.917969 C 193.632812 229.75 192.960938 229.414062 192.117188 229.246094 C 190.773438 228.910156 189.429688 228.238281 188.085938 227.734375 C 187.078125 227.230469 185.902344 227.230469 184.726562 227.230469 C 184.894531 227.566406 186.070312 227.734375 186.40625 227.734375 C 186.742188 227.902344 187.246094 228.238281 187.75 228.40625 C 188.757812 228.910156 189.765625 229.582031 190.773438 230.085938 C 191.277344 230.253906 191.949219 230.589844 192.453125 230.757812 C 193.125 230.757812 193.632812 230.925781 194.136719 230.925781 C 194.808594 230.925781 195.816406 231.09375 196.488281 230.925781 C 196.992188 230.589844 197.664062 230.589844 198.167969 230.589844 C 198.335938 230.589844 198.335938 230.253906 198.335938 230.253906 Z M 162.71875 218.828125 C 162.382812 218.660156 162.046875 218.15625 161.710938 217.988281 C 161.542969 218.324219 162.382812 218.828125 162.550781 218.996094 C 162.71875 219.164062 163.558594 220.003906 163.390625 220.507812 C 163.222656 220.339844 163.054688 220.339844 163.054688 220.507812 C 163.054688 220.675781 163.222656 221.011719 163.222656 221.179688 C 163.222656 221.347656 163.390625 221.515625 163.390625 221.683594 C 163.726562 222.019531 164.0625 221.851562 164.230469 221.515625 C 164.230469 221.011719 164.0625 220.339844 163.726562 219.835938 C 163.558594 219.5 163.054688 219.164062 162.71875 218.828125 Z M 183.046875 223.027344 C 184.222656 222.691406 185.230469 222.355469 186.238281 222.019531 C 187.414062 221.683594 188.589844 221.515625 189.597656 221.347656 C 190.75 221.015625 191.925781 220.847656 193.125 220.84375 C 193.632812 220.84375 194.304688 220.675781 194.808594 220.675781 C 195.3125 220.507812 195.816406 220.171875 196.152344 220.003906 C 196.824219 219.667969 197.328125 219.667969 198 219.5 C 198.503906 219.332031 199.175781 219.5 199.511719 219.332031 C 199.679688 219.332031 199.847656 219.332031 199.847656 219.164062 C 199.847656 218.996094 199.847656 218.996094 199.679688 218.996094 L 198.671875 218.996094 C 198.167969 218.996094 197.664062 219.164062 197.160156 219.164062 C 195.984375 219.332031 194.808594 219.332031 193.632812 219.5 C 192.625 219.667969 191.445312 219.667969 190.4375 220.003906 C 189.261719 220.339844 187.75 220.675781 186.574219 221.179688 C 185.230469 221.683594 184.054688 222.355469 182.710938 222.859375 C 182.878906 223.027344 183.046875 223.027344 183.046875 223.027344 Z M 183.046875 223.027344 " fill-opacity="1" fill-rule="evenodd"/><path fill="#ffffff" d="M 140.542969 182.039062 C 140.542969 197.996094 153.480469 210.933594 169.4375 210.933594 C 176.496094 210.933594 183.214844 208.414062 188.421875 203.710938 C 194.640625 198.332031 198.335938 190.4375 198.335938 182.039062 C 198.335938 173.804688 194.640625 165.910156 188.421875 160.363281 C 183.214844 155.828125 176.496094 153.308594 169.4375 153.308594 C 153.480469 153.308594 140.542969 166.246094 140.542969 182.039062 Z M 141.71875 182.039062 C 141.71875 166.917969 154.152344 154.484375 169.4375 154.484375 C 176.160156 154.484375 182.710938 156.835938 187.75 161.371094 C 193.632812 166.582031 197.160156 174.140625 197.160156 182.039062 C 197.160156 190.101562 193.632812 197.660156 187.75 202.867188 C 182.710938 207.40625 176.160156 209.757812 169.4375 209.757812 C 154.152344 209.757812 141.71875 197.324219 141.71875 182.039062 Z M 141.71875 182.039062 " fill-opacity="1" fill-rule="nonzero"/><path fill="#ffffff" d="M 156.167969 162.71875 C 156.503906 162.382812 156.671875 162.210938 157.175781 162.046875 C 157.34375 162.046875 157.511719 162.210938 157.511719 162.210938 C 157.34375 162.550781 157.175781 162.550781 157.175781 162.71875 C 157.007812 163.222656 156.839844 163.558594 156.503906 164.0625 C 156.335938 164.230469 156.671875 164.230469 156.335938 164.398438 C 156.167969 164.398438 156 164.566406 155.832031 164.566406 C 155.664062 164.734375 155.496094 164.734375 155.328125 164.734375 C 155.160156 164.734375 154.992188 164.566406 154.824219 164.566406 C 154.65625 164.566406 154.320312 164.734375 154.320312 164.398438 C 154.320312 164.230469 154.488281 164.0625 154.65625 163.894531 C 154.992188 163.558594 155.328125 163.894531 155.832031 163.726562 C 156.167969 163.558594 156 163.054688 156.167969 162.71875 Z M 153.816406 164.566406 C 153.984375 164.398438 154.152344 164.566406 153.984375 164.734375 C 153.816406 164.734375 153.648438 164.566406 153.816406 164.566406 Z M 153.816406 164.566406 " fill-opacity="1" fill-rule="nonzero"/><path fill="#ffffff" d="M 188.085938 161.875 C 187.582031 161.542969 187.246094 161.203125 186.742188 161.035156 C 186.238281 160.699219 185.902344 160.195312 185.398438 159.859375 C 185.230469 159.691406 185.0625 159.523438 184.726562 159.355469 C 184.558594 159.1875 184.390625 159.1875 184.054688 159.019531 C 183.550781 158.515625 183.214844 158.347656 182.542969 158.179688 L 181.871094 158.179688 C 181.535156 158.179688 181.367188 158.179688 181.03125 158.515625 L 180.695312 158.515625 C 180.527344 158.515625 180.527344 158.851562 180.527344 158.851562 C 180.359375 159.019531 180.359375 159.355469 180.191406 159.523438 C 180.023438 159.859375 179.855469 160.027344 179.6875 160.027344 L 178.679688 160.027344 C 178.511719 160.195312 178.175781 160.195312 177.839844 160.195312 C 177.671875 160.195312 177.335938 160.363281 177.167969 160.363281 C 176.832031 160.53125 176.496094 160.53125 176.160156 160.53125 C 175.992188 160.53125 175.65625 160.53125 175.320312 160.363281 C 174.984375 160.363281 174.816406 160.363281 174.648438 160.699219 C 174.480469 160.871094 174.3125 161.035156 173.976562 161.207031 C 173.472656 161.542969 172.96875 161.878906 172.296875 162.046875 C 172.128906 162.210938 171.792969 162.382812 171.621094 162.550781 C 171.117188 162.71875 171.621094 162.71875 171.457031 163.222656 C 171.285156 163.054688 171.117188 163.054688 170.949219 162.71875 C 170.949219 162.71875 170.78125 162.210938 170.613281 162.382812 C 170.445312 162.382812 170.277344 162.382812 170.109375 162.550781 C 169.941406 162.886719 169.941406 162.886719 169.605469 162.71875 C 169.101562 162.71875 168.765625 162.886719 168.261719 162.886719 C 167.925781 162.886719 167.421875 162.550781 167.253906 162.71875 C 166.917969 162.886719 166.917969 162.886719 166.582031 162.886719 C 166.582031 162.71875 166.582031 162.382812 166.414062 162.210938 C 166.246094 162.046875 166.078125 161.875 166.078125 161.539062 C 165.742188 161.035156 165.40625 160.867188 164.734375 160.867188 C 164.398438 160.867188 164.230469 160.867188 164.0625 160.699219 C 163.894531 160.53125 163.390625 160.363281 163.222656 160.53125 L 162.71875 161.035156 C 162.550781 161.035156 162.550781 161.207031 162.382812 161.207031 C 162.382812 161.371094 162.214844 161.371094 162.046875 161.371094 C 161.710938 161.371094 161.710938 161.710938 161.375 161.710938 C 161.039062 161.710938 160.871094 161.710938 160.535156 161.875 L 159.695312 161.875 C 159.359375 161.875 159.359375 162.210938 159.023438 162.382812 C 158.855469 162.550781 158.855469 162.71875 158.855469 163.054688 C 158.855469 163.390625 159.359375 163.222656 159.527344 163.222656 C 159.695312 163.222656 159.695312 163.222656 159.695312 163.390625 L 159.695312 163.726562 C 159.695312 164.0625 159.359375 164.230469 159.359375 164.398438 C 159.359375 164.902344 160.703125 164.566406 160.871094 164.398438 C 160.871094 164.398438 160.871094 164.230469 161.039062 164.0625 C 161.039062 163.894531 161.207031 163.894531 161.375 163.894531 C 161.542969 163.726562 161.710938 163.390625 161.878906 163.222656 C 162.046875 162.886719 162.71875 162.382812 163.054688 162.210938 C 163.222656 162.210938 163.726562 162.210938 163.726562 162.382812 C 163.726562 162.550781 163.726562 162.886719 163.390625 163.054688 C 163.222656 163.222656 162.886719 162.886719 162.71875 163.054688 C 162.550781 163.222656 162.214844 163.222656 162.046875 163.558594 C 162.046875 163.726562 161.878906 163.726562 162.046875 163.894531 L 162.214844 164.0625 C 162.382812 164.0625 162.71875 164.230469 162.886719 164.0625 C 163.222656 164.0625 163.558594 163.894531 163.726562 163.894531 C 164.0625 163.894531 164.398438 163.894531 164.0625 164.230469 C 163.894531 164.734375 163.054688 164.398438 162.71875 164.566406 C 162.382812 164.734375 162.046875 164.734375 161.710938 164.902344 C 161.542969 164.902344 161.207031 164.734375 161.039062 165.070312 C 160.871094 165.238281 160.535156 165.40625 160.367188 165.574219 C 160.199219 165.742188 159.695312 165.40625 159.695312 165.40625 C 159.023438 165.070312 159.695312 164.230469 159.191406 163.894531 C 159.191406 163.726562 158.6875 163.894531 158.519531 163.894531 C 158.183594 163.894531 158.015625 163.894531 157.679688 164.0625 C 157.34375 164.398438 156.839844 164.734375 156.335938 164.902344 C 156 164.902344 155.832031 165.070312 155.496094 165.070312 C 155.496094 165.238281 154.992188 165.070312 154.824219 165.070312 L 153.984375 165.070312 C 153.648438 165.070312 153.648438 165.238281 153.480469 165.574219 C 153.3125 165.742188 153.144531 166.078125 152.976562 166.246094 C 152.808594 166.414062 152.808594 166.75 152.472656 166.917969 C 152.304688 167.085938 152.136719 166.582031 151.96875 166.582031 C 151.800781 166.414062 151.292969 166.75 151.128906 166.414062 C 150.960938 166.246094 150.789062 166.078125 150.625 166.414062 C 150.289062 166.582031 150.117188 166.75 150.117188 167.085938 C 150.117188 167.421875 149.949219 167.421875 149.78125 167.589844 C 149.613281 167.757812 149.277344 167.925781 149.445312 168.261719 C 149.613281 168.597656 149.613281 168.765625 149.613281 169.101562 C 149.613281 169.4375 150.117188 169.269531 150.289062 169.269531 C 150.625 169.269531 151.128906 169.4375 151.464844 169.4375 C 151.96875 169.4375 151.800781 169.4375 152.136719 169.101562 C 152.136719 168.933594 152.304688 168.933594 152.304688 168.765625 C 152.472656 168.597656 152.304688 168.597656 152.472656 168.429688 C 152.640625 168.429688 153.144531 168.429688 153.3125 168.597656 C 153.3125 168.765625 153.816406 168.765625 153.984375 168.765625 C 154.152344 168.597656 154.488281 168.597656 154.65625 168.765625 C 154.992188 168.933594 154.992188 169.101562 155.160156 169.4375 C 155.328125 169.605469 155.160156 169.941406 155.160156 170.109375 C 155.328125 170.445312 155.328125 170.445312 155.496094 170.613281 C 155.496094 170.78125 155.664062 170.949219 155.664062 171.117188 C 155.664062 171.453125 155.664062 171.453125 155.328125 171.621094 L 155.328125 172.125 C 155.832031 172.125 156 171.957031 156.335938 171.621094 L 156.335938 172.125 C 156.839844 171.621094 156.839844 171.285156 156.839844 170.613281 C 156.839844 170.445312 156.503906 170.277344 156.503906 170.109375 L 156.503906 169.605469 C 156.503906 169.4375 156.503906 169.4375 156.671875 169.4375 C 157.34375 169.4375 157.175781 170.109375 157.175781 170.613281 L 157.175781 172.125 C 157.511719 172.125 158.183594 172.125 158.351562 171.789062 C 158.351562 171.621094 158.183594 171.285156 158.183594 171.117188 C 158.183594 170.949219 158.519531 170.949219 158.6875 170.949219 C 158.519531 171.285156 158.519531 171.453125 158.519531 171.789062 C 158.519531 171.957031 158.351562 171.957031 158.519531 172.125 L 158.519531 172.460938 C 158.6875 172.628906 159.023438 172.628906 159.191406 172.796875 C 159.359375 172.964844 159.359375 172.964844 159.359375 173.132812 C 159.359375 173.46875 159.527344 173.300781 159.695312 173.300781 C 159.863281 173.300781 160.199219 173.804688 160.03125 173.804688 C 160.03125 174.140625 159.863281 174.476562 159.695312 174.476562 C 159.527344 174.476562 159.023438 174.476562 158.855469 174.308594 C 158.6875 174.308594 158.351562 174.140625 158.015625 173.972656 C 157.847656 173.804688 157.847656 173.636719 157.511719 173.46875 L 156 173.46875 C 155.832031 173.132812 155.832031 172.964844 155.496094 172.796875 C 155.328125 172.460938 154.320312 172.460938 154.320312 171.957031 L 154.320312 171.453125 L 154.65625 171.453125 C 154.824219 171.789062 154.824219 171.957031 154.992188 172.125 C 155.328125 171.957031 155.160156 171.789062 155.160156 171.621094 L 154.824219 171.285156 C 154.65625 171.117188 154.824219 171.117188 154.488281 171.117188 C 154.320312 171.117188 154.488281 171.285156 154.320312 171.117188 C 154.152344 171.117188 154.152344 170.949219 153.984375 170.949219 C 153.984375 170.613281 153.984375 170.78125 153.816406 170.613281 C 153.648438 170.613281 153.648438 170.445312 153.480469 170.445312 C 153.3125 170.277344 152.976562 170.277344 152.808594 170.277344 L 150.957031 170.277344 C 150.625 170.109375 150.453125 169.941406 150.117188 169.773438 C 149.949219 169.773438 149.613281 169.4375 149.613281 169.4375 C 149.445312 169.605469 149.277344 169.773438 149.109375 169.773438 C 148.605469 170.277344 147.933594 170.78125 147.261719 171.117188 C 146.421875 171.789062 145.414062 172.292969 144.742188 173.132812 C 144.238281 173.636719 143.734375 174.308594 143.398438 174.8125 C 143.0625 175.148438 143.0625 175.820312 143.0625 176.15625 C 142.894531 176.828125 142.894531 177.332031 142.726562 178.003906 C 142.726562 178.339844 142.558594 178.507812 142.558594 178.84375 C 142.390625 179.011719 142.558594 179.347656 142.726562 179.515625 C 142.894531 180.019531 143.0625 180.691406 143.230469 181.195312 L 143.734375 182.203125 L 143.734375 182.878906 C 143.734375 183.378906 143.734375 183.378906 144.070312 183.550781 C 144.238281 183.886719 144.40625 183.71875 144.742188 183.71875 C 145.246094 183.550781 145.246094 183.550781 145.582031 183.886719 C 145.75 184.054688 145.917969 184.054688 146.253906 184.054688 C 146.589844 184.054688 147.765625 183.886719 147.933594 184.054688 C 148.101562 184.222656 148.269531 184.558594 148.4375 184.726562 C 148.773438 184.726562 149.277344 184.894531 149.277344 185.0625 C 149.445312 185.230469 149.277344 185.902344 149.277344 186.070312 C 149.277344 186.40625 149.277344 186.40625 149.445312 186.742188 C 149.78125 187.246094 149.949219 187.917969 150.117188 188.421875 C 150.289062 188.925781 150.789062 189.429688 150.789062 189.933594 L 150.789062 190.773438 C 150.789062 191.109375 150.625 191.445312 150.453125 191.613281 C 150.453125 191.949219 150.453125 191.949219 150.625 192.285156 C 150.789062 192.621094 150.960938 192.957031 151.296875 193.292969 C 151.464844 193.628906 151.628906 194.132812 151.800781 194.46875 C 152.304688 195.644531 152.640625 196.820312 153.3125 197.996094 C 153.480469 198.5 153.816406 199.003906 153.984375 199.507812 C 154.152344 199.675781 154.488281 199.84375 154.65625 199.84375 C 154.824219 199.84375 155.160156 199.507812 155.328125 199.339844 C 155.832031 199.003906 156.503906 198.835938 157.007812 198.5 C 157.511719 198.332031 157.511719 197.492188 157.679688 196.988281 C 157.679688 196.820312 157.847656 196.820312 158.015625 196.652344 C 158.519531 196.484375 158.855469 195.980469 158.519531 195.476562 C 158.519531 195.476562 158.351562 195.308594 158.351562 195.140625 L 158.351562 194.46875 C 158.351562 193.796875 158.6875 193.796875 159.023438 193.460938 C 159.527344 192.957031 159.527344 192.621094 159.527344 192.117188 L 159.527344 189.933594 C 159.527344 189.765625 158.6875 188.925781 158.855469 188.757812 L 160.03125 187.582031 C 160.871094 186.742188 161.710938 185.902344 162.550781 184.894531 C 162.886719 184.558594 163.054688 183.886719 163.222656 183.378906 C 163.222656 183.042969 163.390625 182.878906 163.558594 182.539062 C 163.558594 182.539062 164.0625 182.039062 163.726562 181.867188 C 163.222656 181.699219 162.382812 182.203125 161.878906 182.539062 C 161.710938 182.539062 161.207031 182.375 161.039062 182.375 C 160.535156 182.039062 160.535156 181.363281 160.199219 181.027344 C 160.03125 180.859375 159.863281 180.523438 159.695312 180.355469 C 159.527344 180.355469 159.359375 180.523438 159.359375 180.355469 C 159.191406 180.355469 159.359375 180.019531 159.359375 179.851562 C 159.359375 179.347656 159.023438 178.84375 158.855469 178.339844 C 158.6875 178.003906 158.6875 177.835938 158.519531 177.667969 C 158.351562 177.332031 158.351562 176.996094 158.351562 176.828125 L 158.351562 175.988281 C 158.351562 175.820312 158.855469 175.484375 158.855469 175.652344 C 159.191406 175.988281 159.191406 176.828125 159.359375 177.164062 C 159.527344 177.835938 159.695312 178.339844 160.03125 178.84375 C 160.03125 179.179688 160.367188 179.179688 160.535156 179.347656 C 160.871094 179.515625 160.703125 179.851562 160.871094 180.019531 C 160.871094 180.523438 160.871094 180.859375 161.039062 181.195312 C 161.207031 181.699219 161.375 181.699219 161.710938 181.699219 C 162.046875 181.699219 162.382812 181.53125 162.550781 181.53125 C 162.886719 181.363281 163.054688 181.363281 163.390625 181.195312 C 163.894531 181.027344 164.398438 180.691406 164.734375 180.355469 C 165.070312 180.1875 165.238281 180.1875 165.574219 180.1875 C 165.742188 180.1875 166.078125 179.683594 166.078125 179.515625 L 166.582031 179.011719 C 166.582031 178.84375 166.75 178.339844 166.582031 178.339844 L 166.246094 178.339844 C 166.246094 178.003906 166.078125 177.835938 165.910156 177.667969 C 165.742188 177.5 165.070312 177.5 164.734375 177.5 C 164.230469 177.5 164.230469 177.5 164.0625 177.164062 C 163.894531 176.996094 163.726562 176.660156 163.726562 176.324219 C 163.558594 176.15625 163.558594 176.15625 163.558594 175.820312 C 163.726562 175.988281 164.0625 175.988281 164.0625 176.15625 C 164.230469 176.492188 164.230469 176.660156 164.230469 176.996094 C 164.398438 176.996094 164.734375 176.828125 164.902344 176.828125 C 165.238281 176.828125 165.238281 176.996094 165.574219 177.164062 C 165.742188 177.332031 165.910156 177.667969 166.078125 177.667969 C 166.414062 177.667969 166.75 177.667969 166.917969 177.835938 C 167.421875 177.835938 167.925781 177.667969 168.261719 177.667969 C 168.597656 177.667969 168.765625 177.667969 168.933594 178.003906 C 169.101562 178.171875 169.269531 178.339844 169.4375 178.675781 C 169.605469 179.011719 169.605469 179.011719 169.941406 179.011719 C 170.277344 179.011719 170.277344 179.011719 170.277344 179.347656 C 170.277344 179.851562 170.277344 180.523438 170.613281 181.027344 C 170.949219 181.53125 171.117188 181.867188 171.621094 182.375 C 171.792969 182.710938 171.957031 183.214844 172.464844 183.550781 C 172.632812 183.214844 172.96875 182.710938 172.96875 182.375 C 172.96875 182.039062 173.136719 182.039062 173.304688 181.867188 C 173.472656 181.699219 173.472656 181.53125 173.472656 181.195312 C 173.472656 180.523438 173.640625 180.355469 173.976562 180.019531 C 174.3125 179.683594 174.816406 179.347656 175.152344 179.011719 C 175.488281 178.675781 175.824219 178.507812 176.328125 178.507812 C 176.496094 178.507812 176.664062 178.675781 176.832031 178.84375 C 177 179.011719 176.832031 179.347656 177 179.515625 C 177 179.515625 177 179.683594 177.167969 179.683594 C 177.167969 179.851562 177.335938 179.851562 177.503906 179.851562 C 177.503906 180.019531 177.671875 180.355469 177.671875 180.523438 C 178.007812 181.199219 178.34375 181.199219 178.679688 180.691406 C 178.847656 181.027344 178.847656 181.699219 179.183594 182.039062 C 179.351562 182.375 179.351562 182.878906 179.519531 183.382812 C 179.6875 183.886719 179.855469 184.390625 180.023438 184.726562 C 180.359375 185.230469 180.695312 185.734375 181.199219 185.902344 C 181.367188 185.902344 181.535156 185.902344 181.367188 185.566406 C 181.367188 185.566406 181.199219 185.566406 181.199219 185.398438 L 181.199219 184.894531 C 181.03125 184.390625 180.863281 183.886719 180.695312 183.550781 C 180.527344 183.378906 180.191406 183.214844 180.023438 183.042969 C 179.855469 183.042969 179.855469 182.710938 179.6875 182.539062 C 179.519531 182.039062 179.6875 181.699219 180.191406 181.363281 C 180.527344 181.699219 180.863281 182.375 181.367188 182.539062 C 181.703125 182.539062 181.871094 182.203125 182.039062 182.039062 C 182.207031 181.867188 182.207031 181.867188 182.375 181.867188 C 182.542969 181.699219 182.542969 181.699219 182.710938 181.363281 C 182.878906 180.859375 182.542969 180.1875 182.375 179.515625 C 182.207031 179.179688 182.207031 179.011719 182.207031 178.507812 C 182.207031 178.339844 182.710938 178.003906 182.710938 177.835938 C 182.878906 178.003906 183.046875 178.171875 182.878906 178.339844 C 182.710938 178.507812 182.878906 178.507812 182.878906 178.675781 C 183.046875 178.84375 183.382812 178.675781 183.382812 178.507812 C 183.550781 178.507812 183.382812 178.171875 183.382812 178.003906 C 183.382812 177.667969 183.71875 177.332031 184.054688 177.332031 C 184.390625 177.164062 184.726562 176.660156 184.894531 176.492188 C 185.0625 176.324219 185.230469 175.820312 185.230469 175.484375 C 185.230469 175.148438 185.398438 174.644531 185.230469 174.308594 C 185.0625 173.46875 185.0625 172.628906 184.390625 172.125 C 184.558594 171.957031 184.894531 171.789062 184.726562 171.621094 C 184.390625 171.285156 184.222656 171.621094 184.054688 171.789062 C 184.054688 171.789062 183.71875 171.285156 183.886719 171.117188 C 184.054688 171.117188 184.054688 170.949219 184.222656 170.949219 C 184.390625 170.78125 184.390625 170.78125 184.558594 170.949219 L 185.0625 171.453125 C 185.398438 171.621094 185.230469 171.957031 185.398438 172.292969 C 185.398438 172.460938 185.398438 172.460938 185.566406 172.628906 C 185.734375 172.628906 185.734375 172.628906 185.902344 172.460938 C 185.902344 172.292969 186.238281 172.125 186.238281 171.957031 C 186.238281 171.621094 186.40625 171.285156 186.238281 171.117188 C 185.902344 170.78125 185.734375 170.78125 185.734375 170.277344 C 185.734375 169.773438 185.734375 169.101562 186.070312 168.765625 C 186.40625 168.597656 186.40625 168.597656 186.238281 168.09375 C 186.070312 168.09375 185.902344 168.09375 186.070312 167.925781 L 186.070312 167.589844 C 186.070312 166.917969 186.40625 166.582031 186.238281 165.910156 C 186.070312 165.574219 185.734375 164.902344 185.398438 164.566406 C 185.230469 164.230469 185.0625 164.0625 184.894531 163.894531 C 184.726562 163.726562 184.222656 163.558594 184.222656 163.390625 C 184.054688 163.222656 184.222656 163.054688 184.222656 163.054688 C 184.222656 162.886719 184.054688 162.71875 183.886719 162.71875 C 183.71875 162.550781 183.382812 162.886719 183.214844 162.886719 C 183.046875 162.886719 183.214844 162.214844 183.382812 162.046875 C 183.382812 161.875 183.550781 161.710938 183.886719 161.710938 C 184.222656 161.542969 184.390625 161.542969 184.558594 161.371094 C 184.726562 161.207031 184.726562 160.871094 185.0625 160.699219 L 185.566406 161.710938 C 185.734375 161.875 185.734375 162.046875 185.902344 162.046875 C 185.902344 162.214844 186.070312 162.046875 186.070312 162.046875 C 186.40625 162.214844 186.238281 162.382812 186.574219 162.382812 C 187.078125 162.382812 187.414062 162.71875 187.917969 162.71875 C 188.253906 162.71875 188.253906 162.886719 188.253906 162.550781 C 188.253906 162.210938 188.085938 162.214844 188.085938 161.875 Z M 161.375 165.40625 C 161.542969 165.40625 161.542969 165.574219 161.375 165.742188 C 161.207031 165.742188 161.039062 165.574219 161.375 165.40625 Z M 162.550781 171.789062 C 162.382812 172.125 161.542969 171.453125 161.207031 171.621094 C 161.039062 171.621094 160.535156 171.453125 160.703125 171.285156 C 160.703125 171.117188 160.871094 170.613281 161.039062 170.613281 C 161.207031 170.445312 161.542969 170.277344 161.710938 170.445312 L 161.878906 170.613281 C 161.878906 170.78125 162.046875 170.78125 162.214844 170.78125 C 162.550781 170.78125 162.550781 170.78125 162.71875 171.117188 C 162.71875 171.453125 162.71875 171.453125 162.550781 171.789062 Z M 165.40625 171.621094 C 165.238281 171.789062 165.070312 171.957031 165.238281 172.292969 C 165.238281 172.628906 165.40625 172.628906 165.070312 173.132812 C 165.070312 173.300781 165.070312 173.636719 164.566406 173.636719 C 164.398438 173.636719 164.230469 173.804688 164.0625 173.46875 C 163.894531 173.300781 164.0625 173.132812 164.230469 173.132812 C 164.566406 173.132812 164.398438 172.628906 164.398438 172.460938 L 164.398438 171.789062 C 164.398438 171.453125 164.566406 171.285156 164.902344 171.285156 C 165.070312 171.117188 165.574219 171.117188 165.40625 171.621094 Z M 154.488281 162.382812 C 154.65625 162.382812 154.824219 162.210938 154.824219 162.210938 C 154.992188 162.382812 155.160156 162.382812 155.328125 162.382812 C 155.496094 162.382812 155.664062 162.550781 155.664062 162.886719 C 155.664062 163.054688 155.832031 163.222656 155.496094 163.390625 C 155.328125 163.390625 155.160156 163.558594 154.992188 163.558594 L 154.320312 163.558594 C 153.984375 163.726562 153.816406 163.894531 153.648438 163.558594 C 153.480469 163.054688 153.816406 163.054688 154.152344 162.886719 C 154.320312 162.886719 154.488281 162.550781 154.488281 162.382812 Z M 154.488281 162.382812 " fill-opacity="1" fill-rule="nonzero"/><path fill="#ffffff" d="M 162.046875 191.109375 C 162.046875 190.773438 162.046875 190.773438 162.382812 190.605469 C 162.550781 190.605469 162.886719 190.941406 162.886719 191.109375 C 163.222656 191.613281 163.054688 192.117188 163.054688 192.789062 C 163.054688 192.957031 162.71875 193.292969 162.71875 193.460938 C 162.550781 193.628906 162.382812 193.796875 162.382812 194.132812 C 162.382812 194.300781 162.214844 194.636719 162.214844 194.972656 C 162.214844 195.140625 162.550781 195.476562 162.382812 195.644531 C 162.382812 195.644531 162.046875 195.980469 161.878906 195.980469 C 161.710938 195.8125 161.375 195.644531 161.207031 195.308594 C 160.871094 194.972656 161.039062 194.300781 161.039062 193.964844 L 161.039062 193.125 C 160.871094 192.789062 161.039062 192.621094 161.039062 192.285156 C 161.207031 192.117188 161.207031 191.78125 161.375 191.613281 C 161.710938 191.613281 161.710938 191.277344 162.046875 191.109375 Z M 172.796875 183.550781 C 172.796875 183.378906 173.304688 182.878906 173.304688 182.878906 C 173.640625 183.042969 173.472656 183.550781 173.472656 183.71875 C 173.472656 183.886719 173.304688 184.390625 172.96875 184.390625 C 172.632812 184.222656 172.796875 183.71875 172.796875 183.550781 Z M 177.671875 184.390625 C 178.175781 184.390625 178.511719 184.390625 179.015625 184.726562 C 179.351562 184.894531 179.6875 185.230469 180.023438 185.566406 C 180.359375 185.902344 180.695312 186.238281 180.863281 186.574219 C 181.199219 186.742188 180.863281 187.582031 180.863281 187.917969 C 180.695312 188.253906 180.191406 187.078125 180.023438 187.078125 C 179.855469 186.574219 179.519531 186.238281 179.351562 185.902344 C 179.183594 185.734375 178.511719 185.0625 178.34375 185.0625 C 178.175781 185.0625 177.839844 185.0625 177.671875 184.894531 C 177.671875 184.894531 177.503906 184.558594 177.671875 184.390625 Z M 181.367188 187.246094 C 181.535156 187.414062 181.535156 187.75 181.703125 188.085938 C 181.703125 188.253906 182.375 188.253906 182.542969 188.253906 C 182.710938 188.253906 183.214844 188.253906 183.214844 188.421875 C 183.550781 188.757812 183.382812 189.09375 183.046875 189.09375 C 182.878906 188.925781 182.710938 188.757812 182.375 188.757812 C 182.039062 188.757812 181.871094 188.589844 181.535156 188.589844 C 181.367188 188.421875 181.03125 188.253906 181.199219 187.917969 C 181.367188 187.75 181.199219 187.414062 181.367188 187.246094 Z M 183.71875 189.09375 C 184.054688 189.09375 184.054688 189.09375 184.390625 189.261719 L 184.894531 189.261719 C 185.230469 189.261719 185.398438 189.261719 185.566406 189.429688 C 185.902344 189.429688 186.070312 189.597656 185.734375 189.765625 C 185.566406 189.933594 184.726562 189.597656 184.558594 189.597656 C 184.222656 189.597656 184.222656 189.429688 183.886719 189.429688 C 183.71875 189.429688 183.382812 189.261719 183.71875 189.09375 Z M 186.574219 189.765625 L 187.078125 189.765625 C 187.246094 190.101562 187.246094 190.269531 186.910156 190.269531 L 186.40625 190.269531 C 186.238281 190.101562 186.238281 190.269531 186.070312 190.269531 C 185.902344 190.4375 185.566406 190.4375 185.566406 190.269531 C 185.398438 190.269531 185.230469 189.933594 185.398438 189.933594 C 185.734375 189.933594 186.40625 189.933594 186.574219 189.765625 Z M 182.039062 184.726562 C 182.542969 184.726562 182.878906 184.558594 183.214844 184.222656 C 183.382812 184.054688 183.71875 183.886719 183.886719 183.71875 C 184.054688 183.550781 184.222656 183.214844 184.390625 183.378906 C 184.558594 183.378906 185.0625 183.550781 185.0625 183.71875 C 184.894531 184.054688 184.894531 183.886719 184.558594 184.222656 C 184.390625 184.222656 184.390625 184.558594 184.558594 184.726562 C 184.894531 185.0625 184.726562 185.0625 184.558594 185.398438 C 184.390625 185.566406 184.054688 185.902344 184.054688 186.070312 C 184.054688 186.40625 183.886719 186.40625 183.886719 186.742188 C 183.71875 186.910156 183.550781 186.910156 183.382812 186.742188 C 183.214844 186.574219 183.046875 186.574219 182.710938 186.574219 C 182.542969 186.574219 182.207031 186.742188 182.039062 186.574219 C 182.039062 186.574219 181.871094 186.070312 181.871094 185.902344 C 181.703125 185.734375 181.535156 185.566406 181.703125 185.230469 C 181.703125 184.894531 181.703125 184.894531 182.039062 184.726562 Z M 186.742188 185.566406 C 186.238281 185.566406 185.734375 185.566406 185.230469 185.902344 C 184.894531 186.070312 184.726562 186.574219 184.726562 187.078125 L 184.726562 187.75 C 184.894531 187.917969 185.230469 188.253906 185.398438 188.253906 C 185.902344 188.085938 185.0625 187.414062 185.230469 187.078125 C 185.398438 187.078125 185.398438 187.246094 185.566406 187.414062 C 185.566406 187.582031 185.734375 187.75 185.902344 187.75 C 186.070312 187.75 186.40625 187.582031 186.238281 187.582031 C 186.238281 187.414062 186.070312 187.246094 185.902344 187.246094 C 185.398438 186.910156 186.238281 186.910156 186.40625 186.910156 C 186.910156 186.40625 185.902344 186.574219 185.734375 186.574219 C 185.734375 186.238281 186.070312 186.070312 186.40625 186.070312 C 186.574219 186.070312 187.078125 185.902344 186.742188 185.566406 Z M 187.078125 184.390625 C 187.246094 184.390625 187.75 184.390625 187.75 184.558594 C 187.75 184.726562 187.582031 184.894531 187.582031 185.0625 C 187.582031 185.230469 187.75 185.0625 187.917969 185.230469 C 188.085938 185.398438 187.75 185.734375 187.75 185.734375 C 187.582031 185.902344 186.910156 185.566406 186.910156 185.398438 C 186.742188 184.894531 187.078125 184.726562 187.078125 184.390625 Z M 186.070312 182.203125 C 186.070312 182.039062 186.40625 181.699219 186.574219 181.699219 C 186.742188 181.699219 186.910156 182.203125 186.742188 182.375 C 186.574219 182.710938 186.910156 182.710938 186.910156 183.046875 C 186.910156 183.378906 187.246094 183.71875 186.910156 183.886719 C 186.40625 183.886719 186.40625 183.71875 186.238281 183.550781 C 186.070312 183.378906 185.902344 183.378906 185.734375 183.378906 C 185.734375 183.378906 185.734375 183.550781 185.566406 183.550781 C 185.230469 183.550781 185.230469 183.214844 185.398438 183.042969 C 185.734375 183.042969 185.902344 182.878906 186.238281 183.042969 C 186.238281 182.878906 186.40625 182.710938 186.40625 182.539062 C 186.40625 182.375 186.238281 182.375 186.070312 182.203125 Z M 185.566406 181.195312 C 185.734375 181.195312 186.238281 181.699219 185.902344 181.699219 C 185.566406 181.699219 185.230469 181.363281 185.566406 181.195312 Z M 186.238281 180.691406 C 186.238281 180.691406 186.40625 181.027344 186.40625 181.195312 C 186.40625 181.363281 186.238281 181.195312 186.070312 181.195312 C 185.734375 181.195312 185.902344 180.355469 186.238281 180.691406 Z M 185.230469 178.675781 C 185.398438 178.675781 185.566406 178.675781 185.734375 179.011719 C 185.902344 179.179688 185.734375 179.347656 185.566406 179.515625 C 185.398438 179.515625 185.734375 180.019531 185.734375 180.1875 C 185.902344 180.1875 185.902344 180.691406 185.734375 180.691406 C 185.566406 180.691406 185.230469 180.523438 185.0625 180.355469 C 184.894531 180.1875 184.894531 180.019531 185.0625 179.851562 C 185.0625 179.515625 184.558594 178.675781 185.230469 178.675781 Z M 185.566406 176.15625 C 185.566406 175.988281 185.566406 175.820312 185.734375 175.652344 C 185.902344 175.484375 186.070312 175.820312 186.070312 175.820312 C 186.070312 176.15625 186.238281 176.660156 186.238281 176.828125 C 186.070312 177.332031 185.734375 177.332031 185.398438 177.164062 C 185.398438 176.996094 185.398438 176.324219 185.566406 176.15625 Z M 188.421875 185.398438 C 187.917969 184.726562 188.589844 184.726562 189.261719 184.894531 C 189.429688 184.894531 189.429688 185.0625 189.597656 185.230469 C 189.597656 185.398438 189.597656 185.398438 189.429688 185.566406 C 189.429688 185.734375 189.597656 185.902344 189.765625 185.902344 C 190.101562 186.238281 190.605469 185.398438 191.109375 185.734375 C 191.613281 186.070312 191.785156 186.742188 192.285156 187.078125 C 192.453125 187.078125 192.789062 187.246094 192.960938 187.414062 C 193.125 187.582031 193.125 187.582031 193.125 187.75 C 193.296875 187.75 193.464844 187.75 193.464844 187.917969 C 193.800781 188.421875 194.136719 188.925781 194.304688 189.429688 C 194.472656 189.765625 195.144531 190.773438 194.640625 190.941406 C 194.304688 191.109375 194.136719 190.4375 194.136719 190.269531 C 193.964844 189.933594 193.632812 190.269531 193.464844 190.101562 C 193.125 189.933594 192.960938 189.429688 192.625 189.429688 C 192.285156 189.261719 192.117188 189.933594 191.78125 189.597656 C 191.277344 189.429688 191.277344 189.09375 190.773438 188.925781 C 190.4375 188.757812 189.933594 188.589844 190.101562 188.253906 C 190.269531 188.085938 190.269531 187.917969 190.269531 187.75 C 190.269531 187.414062 190.269531 187.414062 190.101562 187.246094 C 189.765625 186.910156 189.429688 186.742188 189.09375 186.742188 C 188.925781 186.742188 188.589844 186.742188 188.421875 186.574219 C 188.421875 186.574219 188.253906 186.238281 188.085938 186.070312 C 187.917969 186.070312 187.75 185.902344 188.085938 185.734375 C 188.253906 185.734375 188.421875 185.566406 188.589844 185.566406 Z M 194.640625 186.238281 L 194.640625 186.070312 C 195.144531 186.070312 195.816406 186.574219 195.648438 186.910156 C 195.648438 187.078125 195.480469 187.246094 195.3125 187.246094 C 195.144531 187.078125 195.144531 187.078125 195.144531 186.910156 C 194.976562 186.742188 194.976562 186.574219 194.976562 186.40625 C 194.808594 186.40625 194.640625 186.40625 194.640625 186.238281 Z M 194.472656 187.246094 L 194.640625 187.078125 C 194.808594 187.078125 194.808594 187.246094 194.808594 187.414062 L 194.808594 187.75 C 194.640625 187.917969 194.640625 187.917969 194.472656 187.917969 C 194.304688 188.253906 193.964844 188.085938 194.136719 187.75 C 194.304688 187.582031 194.640625 187.582031 194.472656 187.246094 Z M 195.648438 187.246094 C 196.152344 187.078125 196.152344 188.253906 195.816406 188.421875 C 195.480469 188.589844 195.3125 187.414062 195.648438 187.246094 Z M 195.816406 188.757812 C 195.984375 188.589844 196.152344 188.589844 196.320312 188.421875 L 196.320312 189.09375 C 196.152344 189.261719 196.152344 189.765625 195.984375 189.765625 C 195.648438 189.933594 195.816406 189.429688 195.648438 189.261719 C 195.648438 189.09375 195.480469 189.261719 195.648438 188.925781 Z M 187.582031 190.4375 L 189.261719 190.4375 C 189.597656 190.4375 189.429688 190.605469 189.429688 190.941406 C 189.429688 191.277344 189.261719 191.277344 189.09375 191.613281 C 188.589844 191.949219 189.261719 192.453125 189.597656 192.789062 C 189.765625 193.125 189.933594 193.125 190.101562 192.789062 C 190.269531 192.453125 190.4375 192.453125 190.4375 192.117188 C 190.605469 191.78125 190.773438 191.613281 190.773438 191.445312 C 190.941406 191.109375 190.941406 190.773438 191.109375 190.605469 C 191.785156 190.101562 191.613281 191.613281 191.613281 191.949219 C 191.613281 192.285156 191.613281 192.453125 191.78125 192.789062 C 191.949219 193.125 191.949219 193.292969 191.949219 193.628906 C 191.78125 194.132812 191.949219 194.804688 192.117188 195.308594 L 192.117188 196.820312 C 192.117188 197.15625 192.117188 197.492188 191.949219 197.660156 C 191.949219 197.996094 191.613281 198.164062 191.613281 198.332031 C 191.445312 198.667969 191.277344 198.835938 191.109375 199.171875 C 191.109375 199.339844 190.773438 199.507812 190.605469 199.675781 C 190.605469 200.011719 190.4375 200.179688 190.269531 200.347656 C 190.101562 200.683594 189.933594 200.851562 189.765625 201.019531 C 189.261719 201.355469 188.925781 201.691406 188.421875 202.027344 L 187.75 202.027344 C 187.414062 202.027344 187.078125 202.195312 186.910156 202.195312 C 186.574219 202.195312 186.40625 202.195312 186.238281 202.027344 C 186.070312 201.859375 186.070312 201.523438 185.902344 201.1875 C 185.902344 200.683594 185.902344 200.179688 186.070312 199.507812 C 185.734375 199.675781 185.566406 200.011719 185.398438 199.84375 C 185.0625 199.675781 185.230469 199.507812 185.0625 199.171875 C 184.726562 198.667969 184.558594 198.164062 183.886719 197.996094 C 182.710938 197.828125 181.703125 198.164062 180.695312 198.332031 C 180.527344 198.332031 180.191406 197.996094 180.023438 197.996094 C 179.855469 197.828125 179.6875 197.492188 179.855469 197.324219 C 180.023438 197.15625 180.191406 196.820312 180.191406 196.652344 C 180.359375 196.316406 180.359375 195.980469 180.359375 195.8125 C 180.359375 195.476562 180.527344 195.308594 180.695312 195.140625 C 180.863281 194.804688 180.863281 194.636719 181.03125 194.300781 C 181.199219 193.964844 181.535156 193.460938 182.039062 193.292969 C 182.542969 193.125 183.046875 192.957031 183.550781 192.621094 L 183.886719 192.621094 C 184.054688 192.621094 184.054688 192.453125 184.222656 192.453125 C 184.390625 192.117188 184.558594 192.117188 184.726562 191.949219 C 185.230469 191.445312 185.734375 191.277344 186.238281 191.277344 C 186.742188 191.109375 187.078125 190.605469 187.582031 190.4375 Z M 185.734375 202.867188 C 185.902344 202.867188 186.070312 202.867188 186.238281 203.035156 L 186.238281 203.207031 L 186.574219 203.207031 C 186.742188 203.035156 186.910156 202.867188 187.078125 202.867188 C 187.414062 203.035156 187.414062 203.207031 187.246094 203.371094 L 186.742188 203.878906 C 186.574219 203.878906 186.574219 204.214844 186.40625 204.382812 C 186.070312 204.546875 185.734375 204.546875 185.734375 204.046875 C 185.398438 204.214844 185.0625 203.878906 185.0625 203.542969 C 185.0625 203.371094 185.398438 203.035156 185.566406 202.867188 Z M 158.015625 158.011719 C 158.183594 158.011719 158.351562 158.011719 158.6875 158.179688 C 159.023438 158.179688 159.023438 158.179688 159.191406 158.011719 C 159.527344 158.179688 159.359375 158.515625 159.191406 158.683594 C 158.855469 158.851562 158.6875 159.019531 158.183594 159.019531 C 157.847656 159.019531 157.511719 159.019531 157.511719 158.683594 C 157.511719 158.347656 157.847656 158.179688 158.015625 158.011719 Z M 184.558594 162.886719 C 185.230469 163.222656 185.902344 163.894531 186.40625 164.230469 C 186.574219 164.566406 186.574219 164.566406 186.742188 164.734375 C 186.742188 165.070312 186.742188 165.070312 186.910156 165.238281 C 187.078125 165.40625 187.917969 165.910156 187.582031 166.078125 C 187.414062 166.246094 186.574219 165.910156 186.40625 165.742188 C 186.238281 165.574219 186.238281 164.902344 186.070312 164.734375 C 185.566406 164.0625 184.726562 163.726562 184.390625 163.054688 C 184.558594 163.054688 184.558594 162.886719 184.558594 162.886719 Z M 188.421875 163.054688 C 188.421875 163.054688 189.261719 163.390625 188.757812 163.558594 C 188.589844 163.558594 188.253906 163.726562 187.917969 163.390625 C 188.085938 163.390625 188.253906 163.222656 188.421875 163.054688 Z M 188.757812 163.894531 C 188.925781 164.0625 188.925781 164.0625 188.757812 164.230469 C 188.589844 164.398438 188.421875 164.230469 188.253906 164.230469 C 188.085938 164.230469 188.085938 163.894531 188.253906 163.894531 Z M 187.414062 166.246094 C 187.582031 166.414062 187.917969 166.582031 187.917969 166.582031 C 188.085938 166.582031 188.757812 166.414062 188.757812 166.582031 C 188.925781 166.917969 189.261719 166.917969 188.925781 167.085938 C 188.757812 167.253906 188.253906 167.421875 188.253906 167.589844 C 188.253906 167.589844 188.085938 168.09375 187.917969 168.09375 C 187.582031 167.925781 187.75 167.421875 187.582031 167.253906 C 187.582031 167.085938 186.742188 166.414062 187.414062 166.246094 Z M 188.757812 167.589844 C 188.925781 167.757812 188.757812 168.09375 188.757812 168.261719 C 188.925781 168.429688 189.09375 168.429688 189.261719 168.597656 C 189.261719 168.933594 189.09375 169.269531 189.09375 169.4375 C 189.261719 169.605469 189.261719 170.109375 189.261719 170.277344 L 189.09375 170.445312 C 189.09375 170.613281 189.261719 170.78125 189.09375 170.78125 C 189.09375 170.949219 188.925781 170.949219 188.925781 170.949219 C 188.925781 171.117188 188.925781 171.285156 188.757812 171.453125 C 188.757812 171.621094 188.589844 171.621094 188.421875 171.621094 C 188.085938 171.789062 187.75 172.125 187.414062 172.125 C 187.414062 172.292969 187.246094 172.796875 186.910156 172.628906 C 186.742188 172.460938 186.910156 171.957031 187.078125 171.957031 C 187.246094 171.621094 187.414062 171.453125 187.582031 171.117188 C 187.75 170.949219 187.917969 170.949219 188.253906 170.949219 C 188.085938 170.613281 187.75 170.445312 187.75 170.277344 C 187.75 170.109375 188.253906 169.773438 188.253906 169.4375 C 188.421875 169.269531 188.085938 168.765625 188.253906 168.429688 C 188.421875 168.261719 188.421875 167.589844 188.757812 167.589844 Z M 188.757812 167.589844 " fill-opacity="1" fill-rule="nonzero"/><path fill="#ffffff" d="M 188.253906 172.292969 C 187.917969 172.125 187.078125 172.628906 187.414062 172.796875 C 187.75 172.796875 188.253906 172.628906 188.253906 172.292969 Z M 187.246094 172.964844 C 187.246094 172.796875 187.078125 172.796875 187.078125 172.628906 C 186.910156 172.796875 186.40625 173.46875 186.742188 173.636719 C 186.910156 173.804688 186.910156 173.46875 187.078125 173.300781 C 187.078125 173.300781 187.414062 173.132812 187.246094 172.964844 Z M 191.613281 159.019531 C 192.285156 159.019531 192.625 158.851562 192.960938 158.347656 C 193.125 158.179688 193.296875 158.011719 193.464844 158.011719 C 193.800781 158.011719 193.964844 157.84375 194.304688 157.675781 C 194.472656 157.675781 194.808594 157.507812 194.976562 157.507812 C 195.3125 157.339844 195.3125 157.171875 195.648438 157.003906 C 196.152344 157.003906 196.65625 157.171875 197.160156 157.339844 C 197.496094 157.507812 198.335938 157.507812 198.335938 158.011719 C 198.503906 158.179688 198.335938 158.347656 198.503906 158.683594 C 198.671875 158.851562 198.839844 159.1875 198.839844 159.355469 C 198.839844 159.523438 198.671875 159.523438 198.671875 159.691406 L 198.671875 160.027344 C 198.503906 160.363281 198.335938 160.53125 198.167969 160.699219 C 198 160.871094 197.832031 161.035156 197.496094 161.035156 C 197.328125 161.035156 197.328125 160.195312 197.328125 160.027344 C 197.160156 160.027344 196.992188 160.027344 196.992188 160.195312 C 196.824219 160.195312 196.65625 160.027344 196.65625 159.859375 C 196.488281 160.027344 196.320312 160.195312 195.984375 160.363281 C 195.648438 160.363281 195.480469 160.363281 195.144531 160.195312 L 193.464844 160.195312 C 193.296875 160.195312 192.960938 160.195312 192.789062 160.027344 C 192.625 160.027344 192.453125 159.859375 192.453125 160.027344 C 192.453125 160.195312 192.285156 160.195312 192.117188 160.363281 L 190.101562 160.363281 C 190.4375 159.691406 191.277344 159.691406 191.613281 159.019531 Z M 194.976562 164.566406 C 195.144531 164.566406 195.480469 164.734375 195.480469 164.902344 C 195.480469 165.238281 194.976562 165.070312 194.808594 165.070312 C 194.640625 165.070312 194.304688 164.902344 194.304688 164.734375 C 194.472656 164.566406 194.808594 164.566406 194.976562 164.566406 Z M 193.800781 165.070312 C 193.964844 165.238281 194.136719 165.238281 194.304688 165.40625 C 194.472656 165.574219 194.136719 165.742188 193.964844 165.742188 C 193.800781 165.574219 193.464844 165.742188 193.292969 165.40625 C 193.125 165.070312 193.464844 165.238281 193.800781 165.070312 Z M 201.863281 168.765625 C 202.199219 168.933594 202.199219 168.933594 202.367188 169.101562 C 202.535156 169.269531 202.703125 169.605469 202.535156 169.773438 C 202.199219 169.941406 202.03125 169.4375 202.03125 169.269531 C 201.863281 169.101562 201.695312 168.933594 201.863281 168.765625 Z M 204.71875 160.195312 C 204.886719 160.027344 204.886719 159.859375 205.054688 160.027344 C 205.222656 160.027344 205.222656 160.027344 205.390625 160.195312 C 205.558594 160.363281 205.726562 160.699219 205.558594 161.035156 C 205.390625 161.371094 205.222656 161.371094 204.886719 161.035156 C 204.550781 160.871094 204.71875 160.363281 204.71875 160.195312 Z M 207.238281 157.003906 C 207.40625 156.667969 207.574219 156.332031 207.910156 156.164062 C 208.078125 155.996094 208.917969 155.828125 208.75 156.332031 L 208.246094 156.332031 C 208.078125 156.5 207.910156 156.667969 207.910156 156.835938 C 207.742188 156.835938 207.574219 157.003906 207.574219 157.171875 C 207.40625 157.171875 207.070312 157.339844 207.238281 157.003906 Z M 208.414062 156.835938 C 208.75 156.667969 208.917969 156.667969 209.253906 156.667969 C 209.421875 156.667969 209.421875 156.164062 209.421875 156.164062 C 209.589844 155.828125 209.757812 155.660156 209.925781 155.492188 C 210.261719 155.324219 210.429688 155.324219 210.765625 155.324219 C 211.4375 155.324219 211.941406 155.15625 212.445312 155.492188 C 212.613281 155.660156 212.613281 155.660156 212.949219 155.492188 C 213.285156 155.492188 213.453125 155.492188 213.792969 155.660156 C 214.128906 155.828125 214.296875 155.996094 214.632812 156.164062 C 214.800781 156.332031 214.96875 156.5 215.304688 156.667969 C 215.472656 156.835938 215.640625 156.667969 215.976562 156.835938 C 216.3125 156.835938 216.480469 157.003906 216.816406 157.171875 C 216.984375 157.339844 216.984375 157.339844 216.984375 157.84375 C 216.984375 158.179688 217.152344 158.347656 217.320312 158.683594 C 217.488281 158.851562 217.320312 159.019531 217.488281 159.355469 C 217.65625 159.523438 217.824219 159.859375 217.824219 160.195312 C 217.992188 160.363281 217.992188 160.53125 218.160156 160.699219 C 218.496094 160.871094 218.664062 161.207031 218.664062 161.371094 C 218.664062 162.046875 218.160156 162.210938 217.65625 162.210938 C 217.152344 162.210938 216.648438 162.046875 216.144531 161.875 C 215.472656 161.542969 215.136719 161.371094 214.632812 160.871094 C 214.464844 160.699219 214.292969 160.363281 214.128906 160.363281 C 213.792969 160.195312 213.621094 160.027344 213.621094 159.859375 C 213.621094 159.691406 213.792969 159.1875 213.453125 159.1875 C 213.117188 159.1875 212.949219 159.019531 212.613281 159.019531 C 212.109375 159.019531 211.605469 158.851562 211.101562 158.851562 C 210.933594 158.851562 210.597656 158.851562 210.261719 159.019531 C 210.261719 159.019531 210.429688 159.1875 210.261719 159.355469 L 209.925781 159.355469 C 209.925781 160.195312 210.765625 159.691406 211.269531 160.027344 C 211.941406 160.195312 212.445312 160.195312 212.949219 160.363281 C 213.285156 160.53125 213.285156 160.53125 213.453125 160.871094 C 213.621094 161.035156 213.792969 161.207031 214.128906 161.371094 C 214.464844 161.542969 214.632812 161.542969 214.96875 161.710938 C 215.304688 161.710938 215.304688 162.046875 214.96875 162.210938 C 214.800781 162.210938 214.464844 162.210938 214.464844 162.382812 C 214.292969 162.71875 214.464844 162.886719 214.464844 163.222656 C 214.464844 163.390625 214.464844 163.726562 214.128906 163.726562 C 213.957031 163.558594 213.621094 163.558594 213.285156 163.390625 C 212.949219 163.222656 211.773438 163.726562 211.773438 163.054688 C 211.773438 162.71875 212.109375 162.550781 212.109375 162.382812 C 212.277344 162.046875 211.941406 162.046875 211.773438 161.875 C 211.4375 161.710938 211.269531 161.710938 210.933594 161.542969 C 210.597656 161.542969 210.261719 161.371094 210.09375 161.035156 C 209.925781 161.035156 209.757812 161.035156 209.757812 160.871094 C 209.589844 160.699219 209.589844 160.53125 209.421875 160.363281 C 209.253906 160.027344 209.085938 159.859375 208.75 159.859375 C 208.246094 159.859375 208.246094 159.523438 208.078125 159.1875 L 208.078125 158.683594 C 207.910156 158.347656 207.910156 158.515625 207.742188 158.515625 C 207.574219 158.347656 207.574219 158.347656 207.574219 158.179688 C 207.574219 158.011719 207.238281 157.84375 207.238281 157.675781 C 207.40625 157.339844 207.910156 157.675781 207.910156 157.84375 C 208.078125 157.84375 208.246094 157.507812 208.246094 157.339844 C 208.246094 157.171875 208.246094 157.003906 208.414062 156.835938 Z M 219.335938 158.347656 C 219.671875 158.011719 219.839844 158.011719 220.175781 158.179688 C 220.511719 158.515625 220.847656 158.515625 221.015625 158.683594 C 221.351562 159.019531 221.519531 159.1875 221.855469 159.355469 C 221.855469 159.523438 222.023438 159.691406 221.855469 159.859375 L 221.351562 159.859375 C 221.015625 159.859375 220.847656 159.691406 220.511719 159.523438 C 220.34375 159.355469 220.34375 159.1875 220.175781 159.1875 C 220.007812 159.019531 219.839844 159.1875 219.671875 159.1875 C 219.335938 159.355469 219.167969 159.355469 219 159.019531 C 218.832031 158.851562 218.832031 158.515625 219 158.515625 C 219.167969 158.515625 219.335938 158.515625 219.335938 158.347656 Z M 206.734375 158.515625 C 206.734375 158.347656 206.902344 158.011719 207.238281 158.179688 C 207.40625 158.347656 207.238281 158.683594 207.238281 159.019531 C 206.902344 158.851562 206.734375 158.851562 206.734375 158.515625 Z M 205.894531 159.523438 C 205.894531 159.355469 206.0625 159.1875 206.230469 159.019531 C 206.398438 158.851562 206.902344 158.851562 206.734375 159.1875 C 206.734375 159.355469 206.566406 159.691406 206.398438 159.859375 C 206.230469 160.195312 205.894531 159.859375 205.894531 159.523438 Z M 207.238281 159.355469 C 207.574219 159.1875 207.742188 159.523438 207.742188 159.859375 C 207.910156 160.195312 207.742188 160.363281 207.574219 160.699219 C 207.40625 160.699219 207.070312 160.363281 206.902344 160.195312 C 206.734375 160.027344 207.070312 159.859375 207.070312 159.859375 C 207.238281 159.859375 207.070312 159.523438 207.070312 159.355469 Z M 206.230469 160.367188 C 206.398438 160.195312 206.566406 160.195312 206.902344 160.367188 C 207.070312 160.53125 207.070312 160.53125 207.070312 160.871094 C 206.902344 160.871094 207.070312 161.207031 207.070312 161.207031 C 207.070312 161.371094 207.238281 161.371094 207.40625 161.371094 C 207.574219 161.371094 207.574219 161.542969 207.742188 161.710938 C 207.742188 161.875 207.910156 161.875 208.078125 162.046875 C 208.078125 162.210938 207.910156 162.210938 207.910156 162.382812 C 207.574219 162.550781 207.238281 162.382812 206.902344 162.210938 C 206.734375 162.210938 206.398438 162.210938 206.0625 161.875 C 206.0625 161.875 206.230469 161.371094 206.230469 161.203125 C 206.230469 160.871094 205.894531 160.53125 206.230469 160.363281 Z M 206.230469 160.367188 " fill-opacity="1" fill-rule="nonzero"/><path fill="#ffffff" d="M 231.429688 189.261719 C 231.09375 188.925781 230.925781 188.421875 230.757812 188.085938 C 230.757812 187.917969 230.253906 187.75 230.253906 187.582031 C 229.917969 187.414062 229.75 187.414062 229.582031 187.414062 C 229.078125 187.246094 228.742188 187.078125 228.238281 186.910156 C 228.070312 186.910156 227.902344 186.742188 227.734375 186.742188 L 226.894531 186.742188 C 227.0625 186.238281 227.0625 185.902344 226.894531 185.566406 C 226.558594 185.230469 226.390625 184.894531 226.054688 184.726562 C 225.550781 184.726562 225.214844 184.558594 224.878906 184.390625 C 224.710938 184.222656 224.542969 184.054688 224.542969 183.886719 L 224.039062 183.378906 C 223.703125 183.214844 223.367188 182.878906 223.03125 182.707031 C 222.695312 182.539062 222.359375 182.035156 222.023438 181.867188 C 221.855469 181.867188 221.6875 181.867188 221.519531 181.699219 C 221.183594 181.699219 221.015625 181.363281 220.847656 181.699219 C 220.679688 181.867188 220.34375 182.203125 219.839844 182.203125 L 220.34375 181.699219 C 220.511719 181.53125 220.511719 181.53125 220.511719 181.363281 C 220.34375 181.363281 220.34375 181.195312 220.175781 181.195312 C 219.671875 181.53125 219 181.53125 218.496094 181.699219 C 218.328125 181.699219 218.160156 182.039062 217.992188 182.203125 C 217.992188 182.203125 217.992188 182.039062 217.824219 182.203125 L 217.65625 182.203125 C 217.65625 182.375 217.488281 182.539062 217.320312 182.539062 C 217.152344 182.375 216.816406 182.375 216.648438 182.375 C 216.480469 182.375 216.144531 182.710938 215.976562 182.710938 C 215.640625 182.539062 215.472656 182.539062 215.304688 182.375 C 215.136719 182.203125 215.136719 181.699219 215.304688 181.53125 C 215.304688 181.027344 215.472656 180.355469 214.800781 180.355469 C 214.292969 180.355469 213.621094 180.859375 213.285156 180.355469 C 213.117188 179.851562 214.128906 179.347656 213.453125 179.011719 C 212.949219 178.675781 212.445312 179.179688 211.941406 179.347656 C 211.773438 179.515625 211.4375 179.515625 211.269531 179.347656 C 211.101562 179.179688 210.933594 178.84375 210.765625 178.675781 C 210.597656 178.339844 210.597656 178.339844 210.429688 177.835938 C 210.429688 177.5 210.597656 177.5 210.765625 177.164062 C 210.765625 176.996094 210.765625 176.660156 211.101562 176.324219 C 211.269531 176.15625 211.4375 176.324219 211.773438 176.324219 C 211.941406 176.324219 212.277344 176.15625 212.445312 176.15625 C 212.78125 175.988281 212.949219 175.988281 213.285156 175.820312 C 213.621094 175.820312 213.792969 175.652344 214.128906 175.652344 C 214.464844 175.820312 214.632812 175.988281 214.800781 176.324219 C 214.96875 176.492188 214.800781 176.660156 214.800781 176.996094 C 214.800781 177.164062 215.136719 177.667969 215.304688 177.332031 C 215.808594 176.828125 215.808594 176.324219 215.472656 175.820312 C 215.472656 175.652344 215.304688 175.484375 215.304688 175.316406 C 215.304688 174.980469 215.304688 174.8125 215.472656 174.644531 C 215.808594 174.140625 216.144531 173.804688 216.480469 173.46875 C 216.648438 173.132812 216.648438 172.460938 216.648438 172.125 C 216.816406 171.789062 216.816406 171.117188 217.320312 170.949219 C 217.824219 170.613281 217.488281 170.109375 217.824219 169.773438 C 217.992188 169.4375 218.328125 169.101562 218.664062 168.597656 C 218.832031 168.429688 218.832031 168.429688 218.832031 168.09375 C 218.832031 167.925781 218.328125 167.925781 218.496094 167.589844 L 218.832031 167.589844 C 219 167.421875 218.832031 167.421875 218.664062 167.253906 C 218.496094 167.253906 218.160156 167.421875 217.992188 167.421875 C 218.160156 167.589844 218.328125 167.589844 218.328125 167.925781 C 218.160156 168.09375 217.992188 168.261719 217.824219 168.09375 C 217.65625 167.757812 217.824219 167.757812 217.488281 167.757812 C 217.320312 167.589844 216.984375 167.757812 216.816406 167.757812 C 216.984375 167.589844 217.152344 167.253906 217.320312 167.253906 C 217.65625 167.253906 217.824219 167.085938 218.160156 167.085938 C 218.664062 167.085938 219.335938 166.917969 219.335938 166.414062 C 219.503906 166.078125 219.167969 165.910156 219 165.742188 C 219 165.574219 218.832031 165.40625 218.832031 165.40625 C 218.664062 165.40625 218.496094 165.574219 218.328125 165.574219 C 217.992188 165.574219 217.320312 165.238281 216.816406 165.070312 C 216.144531 164.902344 215.976562 164.734375 215.472656 164.230469 C 215.472656 164.0625 215.304688 163.726562 214.96875 163.894531 C 214.800781 164.0625 214.632812 164.0625 214.292969 163.894531 C 213.792969 163.726562 213.285156 163.558594 212.78125 163.726562 C 212.445312 163.726562 212.277344 163.726562 212.277344 164.0625 C 212.109375 164.566406 212.277344 164.566406 212.613281 164.734375 C 212.78125 164.902344 212.613281 165.070312 212.78125 165.238281 C 212.949219 165.40625 213.285156 165.574219 213.285156 165.742188 C 213.285156 166.246094 213.453125 166.75 213.453125 167.253906 C 213.117188 167.085938 212.949219 166.75 212.613281 166.75 C 212.109375 166.582031 211.941406 166.75 211.605469 166.414062 C 211.269531 166.246094 210.933594 166.078125 210.597656 166.078125 C 210.597656 165.910156 210.261719 166.078125 210.261719 165.910156 L 209.925781 165.574219 C 209.589844 165.238281 209.589844 165.070312 209.925781 164.902344 C 210.09375 164.566406 210.429688 164.398438 210.597656 164.0625 C 210.597656 163.894531 210.261719 163.222656 210.429688 163.222656 C 210.597656 163.054688 210.933594 162.886719 211.269531 162.71875 C 211.101562 162.382812 210.429688 162.046875 210.09375 161.875 C 209.757812 161.710938 209.589844 161.542969 209.421875 161.371094 C 209.085938 161.207031 209.085938 160.871094 208.75 160.871094 C 208.582031 160.699219 208.414062 160.699219 208.246094 161.035156 C 208.246094 161.207031 208.414062 161.542969 208.414062 161.710938 C 208.582031 162.046875 208.917969 162.210938 208.75 162.550781 C 208.414062 162.886719 208.246094 162.71875 207.910156 162.886719 C 207.238281 162.886719 206.902344 162.886719 206.398438 162.71875 C 206.0625 162.550781 205.894531 162.382812 205.558594 162.210938 C 205.390625 162.046875 205.222656 161.875 204.886719 161.875 C 204.382812 161.710938 203.878906 161.875 203.375 161.542969 C 202.871094 161.371094 202.367188 161.035156 201.863281 160.871094 C 201.695312 160.699219 201.527344 160.53125 201.359375 160.53125 C 201.359375 160.363281 201.191406 160.195312 201.023438 160.195312 C 200.6875 160.027344 200.183594 160.363281 199.679688 160.53125 C 199.34375 160.699219 198.839844 160.699219 198.671875 160.871094 C 198.503906 161.035156 198.335938 161.371094 198.335938 161.542969 C 198.335938 161.710938 198.167969 161.710938 198 161.710938 C 197.496094 161.875 197.664062 161.710938 197.664062 162.046875 L 197.328125 162.382812 C 196.992188 162.71875 196.992188 163.222656 197.160156 163.558594 C 197.328125 163.894531 197.328125 163.894531 197.160156 164.0625 C 196.992188 164.398438 196.992188 164.398438 196.65625 164.230469 C 196.320312 164.230469 195.816406 164.0625 195.480469 164.398438 L 195.816406 164.734375 L 196.152344 164.734375 C 196.320312 164.902344 196.65625 164.902344 196.992188 164.902344 C 197.328125 164.734375 197.328125 164.566406 197.664062 164.734375 C 197.832031 164.902344 198.167969 164.734375 198.335938 164.734375 C 199.007812 164.566406 199.511719 164.566406 200.183594 164.734375 C 200.6875 164.734375 201.023438 165.40625 201.191406 165.742188 C 201.695312 166.75 202.03125 167.757812 202.535156 168.765625 C 202.535156 168.933594 202.703125 168.933594 202.703125 168.933594 C 202.703125 169.101562 202.871094 169.269531 202.871094 169.4375 L 202.871094 170.277344 C 202.703125 170.949219 202.703125 171.453125 202.703125 172.125 C 202.703125 172.292969 202.703125 172.628906 202.871094 172.796875 C 202.871094 172.964844 203.207031 173.300781 203.207031 173.46875 C 203.375 173.804688 203.542969 174.140625 203.710938 174.308594 C 203.878906 174.644531 204.046875 174.8125 204.214844 174.980469 C 204.382812 175.652344 204.550781 175.988281 204.886719 176.492188 C 205.222656 176.996094 205.390625 177.5 205.894531 177.835938 C 206.230469 178.003906 205.894531 177.332031 205.894531 177.164062 C 205.726562 176.996094 205.558594 176.828125 205.558594 176.492188 C 205.726562 176.15625 205.558594 176.15625 205.390625 175.820312 C 205.222656 175.652344 204.886719 175.484375 204.71875 175.148438 C 204.550781 174.8125 204.71875 174.644531 205.054688 174.8125 C 205.222656 174.8125 205.390625 175.148438 205.390625 175.316406 C 205.558594 175.652344 205.726562 175.820312 205.726562 175.988281 C 205.894531 176.324219 206.0625 176.492188 206.230469 176.828125 C 206.398438 176.996094 206.566406 176.996094 206.734375 177.332031 C 206.734375 177.5 206.902344 177.835938 207.070312 178.003906 C 207.238281 178.171875 207.574219 178.003906 207.742188 178.339844 C 207.910156 178.507812 207.910156 178.84375 208.078125 179.011719 C 208.582031 180.019531 209.421875 181.027344 210.429688 181.027344 C 210.765625 181.027344 211.101562 180.859375 211.269531 181.027344 C 211.605469 181.027344 211.773438 181.195312 212.109375 181.363281 C 212.445312 181.699219 212.949219 182.039062 213.453125 182.203125 C 213.621094 182.203125 213.957031 182.039062 214.128906 182.203125 C 214.464844 182.375 214.464844 182.710938 214.632812 182.878906 C 214.800781 183.042969 215.132812 183.214844 215.304688 183.214844 L 215.640625 183.214844 C 215.808594 183.378906 215.808594 183.550781 215.976562 183.71875 C 216.144531 183.886719 216.144531 183.378906 216.3125 183.214844 C 216.480469 182.878906 216.648438 182.878906 216.984375 183.042969 C 217.320312 183.378906 217.65625 184.054688 217.488281 184.558594 C 217.320312 184.726562 217.152344 184.894531 216.984375 185.230469 C 216.816406 185.398438 216.816406 185.734375 216.648438 186.070312 C 216.480469 186.40625 216.648438 187.246094 216.648438 187.582031 C 216.816406 187.75 216.816406 188.085938 216.816406 188.421875 C 216.816406 188.757812 216.984375 188.925781 216.984375 189.261719 C 217.320312 189.765625 217.152344 190.269531 217.320312 190.773438 C 217.320312 191.109375 217.152344 191.445312 217.152344 191.613281 C 217.320312 191.78125 217.488281 192.117188 217.65625 192.285156 C 217.824219 192.621094 217.992188 192.789062 218.328125 192.957031 L 218.328125 193.796875 C 218.328125 193.964844 218.328125 194.132812 218.160156 194.300781 C 218.160156 194.46875 217.992188 194.636719 217.992188 194.804688 C 217.992188 195.308594 217.824219 195.644531 217.65625 195.980469 C 217.65625 196.148438 217.488281 196.316406 217.488281 196.484375 L 217.152344 196.652344 C 217.152344 196.988281 216.984375 197.15625 216.984375 197.324219 C 216.816406 197.492188 216.648438 197.660156 216.648438 197.828125 L 216.648438 198.332031 C 216.648438 198.667969 216.648438 198.5 216.480469 198.667969 L 215.976562 199.675781 C 215.640625 200.011719 215.472656 200.347656 215.304688 200.683594 C 215.304688 201.019531 214.96875 201.355469 214.800781 201.691406 C 214.96875 201.691406 215.132812 201.859375 214.96875 202.027344 C 214.96875 202.195312 214.632812 202.195312 214.464844 202.363281 C 214.292969 202.53125 213.792969 202.699219 213.792969 203.035156 C 213.621094 203.371094 213.957031 204.046875 213.621094 204.214844 C 213.453125 204.382812 213.117188 204.886719 213.621094 205.054688 C 213.285156 205.390625 212.949219 205.726562 213.453125 206.230469 C 213.453125 206.230469 213.792969 206.398438 213.792969 206.566406 C 213.957031 206.734375 213.792969 207.070312 213.792969 207.238281 C 214.128906 207.238281 214.128906 207.070312 214.292969 207.070312 C 214.464844 207.238281 214.464844 207.238281 214.632812 207.238281 C 214.632812 207.40625 214.96875 207.40625 214.96875 207.40625 C 215.132812 207.238281 215.132812 207.238281 214.96875 207.070312 L 214.96875 206.398438 C 214.800781 205.894531 214.632812 206.566406 214.464844 206.230469 C 214.464844 206.0625 214.464844 206.0625 214.632812 205.894531 C 214.800781 205.726562 214.800781 205.894531 214.96875 205.726562 C 215.304688 205.726562 215.304688 205.558594 215.472656 205.222656 C 215.808594 204.71875 215.976562 204.214844 216.3125 203.875 C 216.648438 203.203125 216.984375 202.867188 217.488281 202.363281 C 217.992188 202.027344 218.328125 201.691406 218.664062 201.523438 C 219.167969 201.355469 219.839844 201.1875 220.34375 200.851562 L 221.519531 199.675781 C 221.855469 199.339844 222.527344 199.171875 222.863281 198.835938 C 223.199219 198.667969 223.367188 198.667969 223.703125 198.5 C 224.039062 198.5 224.207031 198.332031 224.375 198.164062 C 224.878906 197.828125 225.214844 197.660156 225.71875 197.324219 C 226.054688 196.988281 226.390625 196.484375 226.726562 196.316406 C 227.230469 196.148438 227.566406 195.980469 227.902344 195.644531 C 228.238281 195.308594 228.742188 194.972656 228.910156 194.46875 C 229.078125 194.132812 229.078125 193.964844 229.414062 193.796875 C 229.414062 193.628906 229.414062 193.292969 229.582031 193.125 C 229.75 192.621094 230.085938 192.285156 230.421875 191.78125 C 230.757812 191.445312 230.925781 191.109375 231.261719 190.605469 C 231.261719 190.4375 231.429688 190.101562 231.597656 189.933594 C 231.765625 189.765625 231.597656 189.597656 231.429688 189.261719 Z M 215.472656 169.605469 C 215.640625 169.4375 215.808594 169.605469 215.976562 169.4375 C 216.144531 169.269531 216.3125 169.4375 216.3125 169.605469 C 216.480469 169.773438 215.472656 169.773438 215.304688 169.773438 Z M 213.792969 169.4375 C 214.128906 169.4375 214.128906 169.4375 214.464844 169.605469 C 214.632812 169.773438 215.136719 169.941406 214.800781 170.109375 C 214.632812 170.109375 214.292969 169.941406 214.128906 169.941406 C 213.957031 169.773438 213.285156 169.4375 213.792969 169.4375 Z M 213.453125 169.605469 C 213.285156 169.773438 212.78125 170.78125 212.445312 170.613281 C 212.445312 170.445312 212.613281 170.445312 212.613281 170.277344 C 212.613281 170.109375 212.78125 169.941406 212.78125 169.773438 C 212.78125 169.4375 213.285156 169.269531 213.453125 169.605469 Z M 211.773438 168.765625 C 211.941406 168.765625 212.277344 168.765625 212.613281 168.597656 C 212.78125 168.429688 212.109375 168.261719 212.277344 167.925781 C 212.445312 167.757812 212.953125 168.261719 213.117188 168.261719 C 213.285156 168.429688 213.285156 168.765625 213.453125 169.101562 L 212.445312 169.101562 C 212.277344 169.101562 211.605469 169.101562 211.773438 168.765625 Z M 211.773438 168.765625 " fill-opacity="1" fill-rule="nonzero"/><g clip-path="url(#9f78e29eb1)"><path fill="#ffffff" d="M 219.335938 168.597656 C 219.335938 168.765625 219.167969 168.933594 219 169.101562 C 218.664062 169.101562 218.832031 168.765625 218.832031 168.597656 C 219 168.429688 219.167969 168.09375 219.335938 168.09375 C 219.671875 168.09375 219.671875 168.429688 219.335938 168.597656 Z M 219.503906 166.414062 C 219.671875 166.414062 219.839844 166.078125 220.007812 166.246094 C 220.175781 166.414062 219.839844 166.582031 219.839844 166.75 C 220.007812 166.917969 220.679688 166.75 220.679688 167.085938 C 220.847656 167.253906 220.679688 167.589844 220.511719 167.589844 C 220.34375 167.589844 220.175781 167.421875 220.175781 167.253906 C 220.007812 167.085938 219.335938 167.757812 219.167969 167.421875 C 219 167.085938 219.335938 166.582031 219.503906 166.414062 Z M 215.640625 178.339844 C 216.144531 178.507812 216.648438 178.84375 217.152344 178.84375 C 217.320312 178.84375 217.488281 179.011719 217.488281 179.179688 C 217.488281 179.347656 216.984375 179.347656 216.816406 179.347656 C 216.3125 179.179688 215.976562 179.011719 215.472656 178.675781 C 215.304688 178.675781 215.136719 178.507812 215.136719 178.171875 C 215.136719 178.003906 215.640625 178.339844 215.640625 178.339844 Z M 219.167969 179.179688 C 219.503906 179.179688 220.007812 179.011719 220.175781 179.515625 C 220.175781 179.851562 219.839844 179.515625 219.839844 179.515625 L 219.167969 179.515625 C 219 179.515625 218.832031 179.515625 218.664062 179.347656 C 218.496094 179.347656 218.496094 179.179688 218.328125 179.011719 C 218.160156 178.84375 218.664062 178.84375 218.664062 178.84375 C 219 178.84375 219 178.84375 219.167969 179.179688 Z M 220.679688 179.683594 C 220.847656 179.515625 220.847656 179.515625 221.183594 179.683594 C 221.183594 179.683594 221.351562 179.851562 221.351562 180.019531 C 221.351562 180.1875 220.847656 179.851562 220.679688 179.851562 Z M 211.101562 163.222656 C 211.4375 163.390625 211.605469 163.390625 211.773438 163.558594 C 211.773438 163.894531 211.773438 164.0625 211.4375 163.894531 C 211.101562 163.894531 210.933594 163.726562 210.765625 163.558594 L 210.765625 163.222656 Z M 231.429688 141.550781 L 231.597656 141.71875 L 230.421875 141.886719 L 230.589844 141.550781 Z M 116.855469 165.40625 L 117.695312 165.574219 L 117.359375 166.917969 L 127.4375 169.4375 L 127.941406 168.09375 L 128.78125 168.429688 L 126.933594 176.15625 L 125.925781 175.988281 L 126.261719 174.476562 L 116.183594 171.789062 L 115.847656 173.300781 L 114.839844 173.132812 Z M 120.046875 156.835938 L 117.695312 162.550781 L 118.535156 163.054688 L 119.207031 161.542969 L 128.949219 165.40625 L 128.445312 166.75 L 129.285156 167.085938 L 130.800781 163.222656 L 129.960938 162.71875 L 129.285156 164.0625 L 122.734375 161.542969 L 131.976562 160.363281 L 134.160156 156.332031 L 124.078125 150.789062 L 124.917969 149.445312 L 124.078125 148.941406 L 121.894531 152.804688 L 122.734375 153.308594 L 123.574219 151.964844 L 129.789062 155.492188 Z M 124.917969 147.597656 C 125.253906 146.589844 132.984375 136.675781 133.992188 136.003906 L 136.175781 138.019531 L 135.335938 138.859375 L 134.496094 138.1875 C 134.496094 138.1875 132.816406 139.027344 131.640625 140.371094 L 139.199219 146.421875 L 139.199219 148.773438 L 136.679688 152.300781 L 135.839844 151.796875 L 136.679688 150.621094 L 128.613281 144.238281 C 128.613281 144.238281 127.4375 146.253906 127.101562 147.597656 L 127.941406 148.4375 L 127.4375 149.109375 Z M 135 134.996094 C 135.167969 134.492188 144.238281 126.429688 145.246094 126.09375 L 146.925781 128.445312 L 146.253906 129.117188 L 145.414062 128.109375 C 145.414062 128.109375 143.0625 128.78125 140.542969 131.132812 L 143.566406 134.492188 C 143.566406 134.492188 145.246094 133.652344 145.078125 133.148438 L 144.40625 132.476562 L 145.078125 131.804688 L 147.261719 134.492188 L 146.589844 134.996094 L 145.75 134.15625 L 144.40625 135.332031 L 144.40625 135.667969 C 144.574219 135.667969 147.429688 138.859375 147.429688 138.859375 L 147.597656 138.691406 C 147.933594 138.523438 150.289062 136.171875 150.453125 135.332031 C 150.453125 135.332031 150.289062 134.996094 149.949219 134.660156 C 149.613281 134.324219 149.78125 134.324219 149.78125 134.324219 L 150.625 133.652344 L 152.472656 136.339844 L 146.589844 141.042969 L 142.558594 141.042969 L 136.679688 134.492188 L 135.671875 135.667969 Z M 166.246094 117.019531 L 165.910156 116.011719 L 171.457031 114.5 L 178.511719 121.054688 L 177.839844 114.332031 L 176.328125 114.5 L 176.160156 113.660156 L 180.527344 112.988281 L 180.695312 113.996094 L 179.183594 114.332031 L 180.527344 125.589844 L 176.664062 126.09375 L 169.773438 119.539062 L 171.621094 126.261719 L 172.796875 125.925781 L 172.96875 126.933594 L 169.269531 127.941406 L 168.933594 127.101562 L 170.277344 126.765625 L 167.421875 116.683594 Z M 197.160156 124.75 L 192.457031 112.820312 L 188.421875 112.652344 L 183.214844 124.246094 L 182.039062 124.414062 L 182.207031 125.421875 C 182.710938 125.253906 186.070312 125.253906 186.070312 125.253906 L 185.902344 124.078125 L 184.894531 124.078125 L 185.902344 121.558594 L 190.609375 121.390625 L 191.785156 124.078125 L 190.4375 124.246094 L 190.605469 125.253906 C 191.617188 125.085938 198.335938 125.925781 198.335938 125.925781 L 198.335938 124.917969 Z M 186.40625 120.550781 L 188.589844 116.011719 L 190.269531 120.550781 Z M 199.175781 116.515625 C 199.175781 116.515625 199.679688 113.996094 199.847656 113.660156 C 199.847656 113.492188 208.414062 115.003906 213.453125 117.1875 L 212.613281 120.046875 L 211.4375 119.710938 L 211.773438 118.535156 C 211.773438 118.535156 209.253906 117.019531 208.917969 117.019531 C 208.917969 117.019531 206.398438 126.597656 206.398438 126.765625 L 207.742188 127.269531 L 207.574219 128.277344 C 207.574219 128.277344 200.519531 126.09375 199.679688 126.09375 L 199.847656 125.253906 L 201.359375 125.421875 L 203.878906 115.84375 L 200.519531 115.675781 L 200.183594 116.683594 Z M 215.304688 117.859375 C 215.304688 117.859375 222.527344 121.054688 222.527344 121.222656 C 222.695312 121.390625 222.191406 122.230469 222.191406 122.230469 L 220.847656 121.558594 L 216.480469 130.796875 L 217.824219 131.636719 L 217.320312 132.476562 C 217.320312 132.476562 210.765625 129.117188 210.09375 129.117188 L 210.261719 128.277344 L 211.773438 128.78125 L 216.144531 119.375 L 214.796875 118.535156 Z M 233.78125 128.613281 L 228.574219 124.917969 C 222.863281 122.902344 220.511719 126.261719 219.839844 128.949219 C 219 132.644531 221.519531 134.492188 221.519531 134.492188 C 221.519531 134.492188 225.046875 137.683594 225.886719 138.019531 C 228.910156 139.703125 232.773438 138.859375 234.453125 136.171875 C 236.976562 131.972656 233.78125 128.613281 233.78125 128.613281 Z M 231.597656 129.453125 C 231.261719 130.628906 230.925781 131.636719 227.902344 135.332031 C 227.902344 135.332031 226.726562 137.011719 225.214844 136.339844 C 225.214844 136.339844 224.207031 135.667969 224.039062 135.5 C 223.703125 135.164062 223.367188 134.828125 223.367188 134.15625 C 223.535156 133.484375 223.367188 132.980469 224.039062 132.140625 C 224.542969 131.300781 226.726562 128.109375 226.726562 128.109375 C 226.726562 128.109375 227.734375 126.765625 228.40625 126.765625 C 228.910156 126.765625 229.414062 126.765625 229.75 126.933594 C 230.085938 126.933594 230.589844 127.4375 230.589844 127.4375 C 230.589844 127.4375 231.933594 128.109375 231.597656 129.453125 Z M 232.4375 141.71875 L 232.605469 141.550781 L 234.453125 141.550781 L 234.117188 141.71875 Z M 233.109375 141.042969 L 239.328125 134.828125 L 238.320312 133.652344 L 238.992188 132.980469 L 243.191406 137.347656 L 242.183594 145.917969 L 246.382812 142.726562 L 245.542969 141.550781 L 246.382812 140.878906 L 249.070312 144.574219 L 248.230469 145.246094 L 247.390625 144.070312 L 238.152344 150.621094 L 236.808594 148.941406 L 236.808594 147.765625 L 237.816406 138.1875 L 234.960938 141.046875 Z M 254.949219 154.988281 L 252.765625 150.957031 L 240.503906 152.46875 L 239.664062 151.292969 L 238.992188 151.796875 L 241.175781 155.15625 L 241.847656 154.652344 L 241.34375 153.476562 L 244.03125 153.140625 L 246.382812 157.507812 L 244.535156 159.523438 L 243.359375 157.339844 L 242.519531 157.675781 L 246.214844 166.246094 L 247.054688 165.910156 L 246.886719 164.734375 Z M 245.207031 152.972656 L 245.207031 153.140625 L 250.582031 152.46875 L 247.054688 156.5 Z M 258.3125 166.246094 L 257.976562 164.566406 L 258.816406 164.398438 L 261 172.460938 L 259.992188 172.796875 L 259.488281 171.117188 L 249.574219 173.636719 C 249.574219 173.636719 250.078125 177.164062 250.917969 177.5 L 252.429688 177.5 L 252.429688 178.675781 L 249.40625 179.179688 C 249.40625 179.179688 247.558594 168.261719 246.886719 167.589844 L 247.558594 167.253906 L 248.230469 168.765625 Z M 134.832031 220.507812 L 131.976562 215.300781 C 127.605469 211.605469 124.078125 213.957031 122.566406 215.972656 C 120.382812 218.996094 121.726562 221.515625 121.726562 221.515625 C 121.726562 221.515625 123.742188 225.550781 124.246094 226.222656 C 126.261719 228.910156 130.292969 228.910156 132.644531 227.230469 C 135.839844 224.710938 134.832031 220.507812 134.832031 220.507812 Z M 132.816406 220.84375 C 132.648438 221.011719 130.460938 222.691406 126.933594 224.539062 C 126.933594 224.539062 125.421875 225.382812 124.414062 224.375 C 124.414062 224.375 123.574219 223.53125 123.574219 223.195312 C 123.40625 222.859375 123.238281 222.523438 123.574219 221.851562 C 123.910156 221.347656 123.910156 220.84375 124.75 220.339844 L 128.949219 217.820312 C 128.949219 217.820312 130.460938 216.980469 130.96875 217.316406 C 131.640625 217.484375 131.976562 217.652344 132.144531 217.820312 C 132.480469 218.15625 132.648438 218.660156 132.648438 218.660156 C 132.648438 218.660156 133.65625 219.835938 132.816406 220.84375 Z M 132.816406 220.84375 " fill-opacity="1" fill-rule="nonzero"/></g><g clip-path="url(#db055465cf)"><path fill="#ffffff" d="M 125.421875 196.988281 L 125.253906 195.308594 L 126.261719 195.140625 C 126.261719 195.140625 127.101562 201.1875 127.269531 201.523438 C 127.605469 201.691406 121.894531 205.390625 121.894531 205.390625 L 128.445312 206.230469 L 130.632812 211.773438 L 129.789062 212.277344 L 128.949219 210.597656 L 119.207031 214.125 L 119.710938 215.636719 L 118.871094 215.972656 L 116.183594 208.246094 L 117.023438 207.910156 L 117.695312 209.421875 L 124.246094 206.902344 L 115.679688 206.0625 L 115.007812 203.542969 L 122.398438 198.835938 L 115.34375 200.011719 L 115.679688 201.355469 L 114.839844 201.691406 L 114 197.324219 L 114.839844 197.15625 L 115.175781 198.667969 Z M 129.285156 232.269531 L 128.277344 230.925781 L 127.4375 231.429688 L 130.296875 235.125 L 130.96875 234.621094 L 129.960938 233.277344 L 135.671875 228.910156 L 133.488281 238.820312 L 136.679688 242.011719 L 144.574219 233.78125 L 145.414062 234.621094 L 145.917969 233.78125 L 143.398438 231.261719 L 142.726562 231.933594 L 143.566406 232.941406 L 138.527344 237.980469 L 140.710938 228.070312 L 137.519531 224.203125 L 136.679688 224.875 L 137.519531 225.71875 Z M 147.765625 243.859375 L 144.574219 247.390625 C 144.574219 247.390625 146.757812 249.238281 148.773438 249.742188 L 149.613281 248.398438 L 150.625 249.070312 L 148.941406 251.589844 C 148.941406 251.589844 140.207031 245.371094 139.199219 244.195312 L 139.703125 243.523438 L 140.710938 244.363281 L 147.261719 236.132812 L 146.421875 235.292969 L 146.925781 234.453125 C 146.925781 234.453125 151.800781 238.820312 155.832031 241.171875 L 154.152344 243.863281 L 153.3125 243.355469 L 153.984375 242.011719 C 153.984375 242.011719 152.472656 239.660156 151.128906 239.15625 L 148.269531 242.851562 L 149.613281 243.859375 L 150.289062 243.1875 L 151.128906 243.691406 L 149.445312 246.382812 L 148.605469 246.042969 L 149.277344 244.867188 Z M 155.496094 244.363281 L 156.839844 241.675781 C 156.839844 241.675781 164.566406 245.878906 168.765625 247.054688 L 167.925781 249.910156 L 166.75 249.574219 L 167.085938 248.398438 C 167.085938 248.398438 164.734375 246.71875 164.566406 246.550781 L 160.367188 256.125 L 161.710938 256.628906 L 161.375 257.46875 L 153.984375 254.277344 L 154.320312 253.4375 L 155.832031 254.109375 L 159.863281 244.53125 C 159.863281 244.53125 157.679688 243.859375 157.007812 244.195312 L 156.335938 244.867188 Z M 170.78125 260.324219 C 171.457031 260.492188 179.183594 261.835938 179.183594 261.835938 L 179.183594 260.828125 L 178.34375 260.828125 L 175.992188 248.902344 L 171.457031 247.726562 L 164.0625 257.300781 L 162.886719 257.132812 L 162.550781 257.804688 L 166.078125 259.148438 L 166.582031 258.476562 L 165.40625 257.972656 L 167.085938 255.789062 L 172.464844 257.132812 L 172.796875 259.820312 L 170.78125 259.652344 Z M 167.757812 254.78125 L 171.117188 250.917969 L 172.296875 256.125 Z M 167.421875 127.4375 L 167.253906 127.605469 C 167.253906 127.605469 166.75 127.773438 166.414062 127.773438 C 166.246094 127.773438 165.742188 127.4375 165.574219 127.269531 C 165.574219 127.101562 164.902344 125.757812 164.734375 125.589844 C 164.566406 125.589844 163.726562 124.582031 162.886719 124.75 C 162.046875 124.917969 161.542969 124.75 161.542969 124.75 C 164.734375 122.0625 161.878906 118.195312 159.191406 118.535156 C 156.839844 118.867188 147.429688 124.75 147.429688 124.75 L 148.101562 125.421875 L 149.277344 124.75 L 154.320312 133.820312 L 153.144531 134.660156 L 153.816406 135.332031 L 160.367188 131.636719 L 159.863281 130.628906 C 159.863281 130.628906 159.359375 131.132812 159.023438 131.132812 C 158.6875 131.300781 158.6875 131.132812 158.6875 131.132812 L 156.503906 127.101562 L 158.351562 126.261719 C 158.351562 126.261719 159.023438 126.09375 159.359375 125.925781 C 159.527344 125.925781 159.863281 126.261719 159.863281 126.261719 C 159.863281 126.261719 161.375 129.117188 161.710938 129.621094 C 161.878906 129.957031 162.550781 129.957031 162.71875 129.957031 C 162.886719 130.125 164.566406 129.621094 164.566406 129.621094 L 167.757812 128.445312 Z M 158.351562 124.917969 C 158.183594 125.253906 156 126.261719 156 126.261719 L 153.648438 122.0625 L 156.167969 120.886719 C 156.167969 120.886719 156.839844 120.71875 157.175781 121.054688 C 157.511719 121.390625 158.855469 124.078125 158.855469 124.078125 C 158.855469 124.078125 158.6875 124.75 158.351562 124.917969 Z M 196.488281 260.828125 L 196.320312 260.996094 C 196.320312 260.996094 195.3125 260.996094 194.976562 260.660156 C 194.976562 260.492188 194.976562 260.492188 194.808594 260.492188 C 194.976562 260.492188 194.976562 260.324219 194.808594 259.652344 C 194.808594 257.972656 192.960938 256.628906 192.960938 256.628906 C 192.960938 256.628906 195.480469 255.285156 195.480469 253.269531 C 195.480469 251.253906 193.632812 250.078125 193.125 250.078125 C 192.625 249.910156 191.613281 249.910156 191.613281 249.910156 C 188.589844 250.246094 180.863281 249.574219 180.863281 249.574219 L 181.03125 250.582031 L 182.207031 250.75 L 181.703125 260.996094 L 180.527344 260.996094 C 180.527344 260.996094 180.359375 262.003906 180.527344 262.003906 C 180.695312 262.003906 187.917969 262.339844 187.917969 262.339844 L 187.75 261.332031 L 186.742188 261.332031 L 186.910156 256.628906 L 189.261719 256.628906 C 189.429688 256.460938 189.933594 257.46875 189.933594 257.46875 C 189.933594 257.46875 190.101562 260.996094 190.101562 261.164062 C 190.101562 261.332031 190.941406 262.003906 191.277344 262.171875 C 191.613281 262.171875 196.824219 261.835938 196.824219 261.835938 Z M 190.101562 254.949219 C 190.101562 254.949219 190.101562 255.453125 189.765625 255.621094 L 187.078125 255.621094 L 187.414062 250.917969 L 189.765625 250.917969 L 190.269531 251.421875 C 190.269531 251.757812 190.101562 254.949219 190.101562 254.949219 Z M 195.648438 249.40625 L 203.710938 248.0625 C 203.710938 248.0625 204.046875 248.734375 204.046875 248.902344 C 204.046875 249.070312 202.871094 248.902344 203.039062 249.238281 C 203.039062 249.40625 206.902344 252.261719 206.902344 252.261719 C 206.902344 252.261719 209.253906 247.894531 209.085938 247.222656 L 208.078125 247.558594 L 207.742188 246.71875 L 211.4375 245.371094 L 211.941406 246.046875 L 210.765625 246.71875 L 207.910156 253.605469 L 209.085938 258.140625 L 210.429688 257.972656 L 210.765625 258.8125 L 203.039062 260.660156 L 202.703125 259.988281 L 204.214844 259.484375 L 203.039062 254.949219 L 196.824219 250.246094 L 195.816406 250.414062 Z M 217.992188 242.179688 C 217.992188 242.179688 226.222656 237.476562 227.734375 235.292969 L 229.75 237.8125 L 228.910156 238.652344 L 227.902344 237.644531 C 227.902344 237.644531 225.214844 238.316406 224.039062 239.492188 L 226.558594 243.523438 L 228.070312 242.347656 L 227.566406 241.339844 L 228.574219 240.667969 L 230.589844 243.1875 L 229.582031 244.027344 L 228.910156 243.1875 L 227.230469 244.363281 L 229.582031 248.230469 L 230.757812 247.390625 L 231.429688 248.230469 L 224.710938 252.765625 L 224.039062 251.925781 L 225.214844 251.085938 L 219.839844 242.179688 L 218.328125 242.851562 Z M 228.910156 234.621094 L 233.949219 229.246094 L 234.789062 230.085938 L 233.949219 230.925781 L 239.496094 236.636719 C 239.496094 236.636719 240.839844 237.476562 242.015625 236.636719 C 243.191406 235.964844 244.03125 235.292969 243.695312 233.78125 C 243.359375 232.4375 243.023438 232.4375 242.6875 232.101562 C 242.183594 231.765625 237.144531 227.230469 237.144531 227.230469 L 236.304688 228.40625 L 235.464844 227.566406 L 237.816406 224.539062 L 238.65625 225.214844 L 237.984375 226.222656 L 243.695312 231.09375 C 243.695312 231.09375 245.039062 233.109375 245.039062 234.285156 C 244.871094 235.460938 244.703125 236.132812 244.535156 236.300781 C 244.199219 236.636719 240.839844 240.164062 240.839844 240.164062 C 240.839844 240.164062 239.160156 241.171875 238.320312 241.171875 C 237.648438 241.171875 236.304688 240.667969 235.96875 240.164062 C 235.464844 239.828125 230.253906 234.453125 230.253906 234.453125 L 229.414062 235.292969 Z M 239.328125 224.035156 L 238.65625 223.53125 L 241.007812 219.5 L 251.085938 217.484375 L 245.039062 214.460938 L 244.367188 215.636719 L 243.527344 215.132812 L 245.207031 211.773438 L 246.046875 212.109375 L 245.542969 213.285156 L 255.792969 218.15625 L 253.941406 222.1875 L 244.03125 223.867188 L 249.40625 227.902344 L 250.246094 226.390625 L 251.085938 226.894531 L 248.566406 230.589844 L 247.894531 230.085938 L 248.734375 228.742188 L 240.167969 223.027344 Z M 255.117188 197.996094 C 250.582031 196.988281 248.566406 201.1875 248.566406 201.1875 L 245.710938 210.597656 L 246.550781 210.933594 L 247.054688 209.589844 L 256.800781 212.949219 L 256.292969 214.628906 L 257.304688 214.964844 C 257.304688 214.964844 260.328125 206.230469 260.328125 204.214844 C 260.496094 202.195312 258.984375 198.835938 255.117188 197.996094 Z M 259.152344 205.726562 L 258.480469 208.246094 C 258.480469 208.246094 248.566406 205.054688 248.566406 204.886719 C 248.566406 204.886719 248.734375 203.707031 248.902344 202.867188 C 249.238281 202.027344 250.078125 202.363281 250.078125 202.363281 C 250.078125 202.363281 257.472656 204.382812 258.480469 204.71875 C 259.488281 204.886719 259.152344 205.726562 259.152344 205.726562 Z M 118.535156 185.398438 L 119.878906 181.699219 L 120.886719 185.398438 L 124.75 185.398438 L 121.558594 187.75 L 122.734375 191.445312 L 119.710938 189.09375 L 116.351562 191.613281 L 117.695312 187.75 L 114.671875 185.398438 Z M 254.78125 186.40625 L 256.128906 182.710938 L 257.136719 186.40625 L 261 186.40625 L 257.808594 188.757812 L 259.152344 192.453125 L 255.957031 190.101562 L 252.597656 192.621094 L 253.941406 188.757812 L 250.917969 186.40625 Z M 254.78125 186.40625 " fill-opacity="1" fill-rule="nonzero"/></g></svg>