<svg xmlns="http://www.w3.org/2000/svg" xmlns:xlink="http://www.w3.org/1999/xlink" width="500" zoomAndPan="magnify" viewBox="0 0 375 374.999991" height="500" preserveAspectRatio="xMidYMid meet" version="1.0"><defs><clipPath id="fb9deee0e4"><path d="M 14 157.453125 L 60 157.453125 L 60 205 L 14 205 Z M 14 157.453125 " clip-rule="nonzero"/></clipPath><clipPath id="2e137506f3"><path d="M 129 174 L 160 174 L 160 217.453125 L 129 217.453125 Z M 129 174 " clip-rule="nonzero"/></clipPath></defs><path fill="#ffffff" d="M 239.007812 204.066406 C 238.296875 204.082031 237.589844 204.0625 236.882812 204.007812 C 236.175781 203.953125 235.472656 203.863281 234.773438 203.734375 C 234.078125 203.609375 233.386719 203.445312 232.707031 203.25 C 232.023438 203.050781 231.355469 202.820312 230.695312 202.554688 C 230.039062 202.289062 229.394531 201.992188 228.769531 201.660156 C 228.140625 201.332031 227.53125 200.96875 226.941406 200.578125 C 226.351562 200.183594 225.78125 199.761719 225.234375 199.3125 C 224.683594 198.863281 224.160156 198.386719 223.660156 197.882812 C 223.164062 197.378906 222.691406 196.851562 222.242188 196.300781 C 221.796875 195.746094 221.382812 195.175781 220.992188 194.582031 C 220.605469 193.988281 220.25 193.375 219.925781 192.746094 C 219.597656 192.113281 219.304688 191.46875 219.046875 190.808594 C 218.785156 190.148438 218.5625 189.476562 218.371094 188.792969 C 218.179688 188.113281 218.019531 187.421875 217.898438 186.722656 C 217.777344 186.023438 217.695312 185.320312 217.644531 184.613281 C 217.59375 183.90625 217.582031 183.195312 217.601562 182.488281 C 217.566406 181.074219 217.671875 179.671875 217.917969 178.28125 C 218.167969 176.890625 218.554688 175.539062 219.074219 174.226562 C 219.597656 172.914062 220.25 171.667969 221.023438 170.488281 C 221.800781 169.308594 222.6875 168.21875 223.6875 167.214844 C 224.679688 166.199219 225.769531 165.292969 226.949219 164.503906 C 228.128906 163.710938 229.378906 163.046875 230.699219 162.511719 C 232.015625 161.980469 233.375 161.585938 234.773438 161.332031 C 236.175781 161.078125 237.585938 160.96875 239.007812 161.007812 C 240.429688 160.972656 241.839844 161.097656 243.238281 161.375 C 244.632812 161.65625 245.980469 162.089844 247.28125 162.671875 C 248.582031 163.253906 249.800781 163.972656 250.9375 164.828125 C 252.078125 165.683594 253.105469 166.65625 254.027344 167.742188 L 250.347656 171.421875 C 249.671875 170.570312 248.910156 169.804688 248.058594 169.128906 C 247.207031 168.449219 246.289062 167.878906 245.304688 167.414062 C 244.320312 166.949219 243.296875 166.605469 242.234375 166.375 C 241.167969 166.148438 240.09375 166.042969 239.007812 166.066406 C 236.863281 166.011719 234.800781 166.386719 232.8125 167.1875 C 230.824219 167.988281 229.074219 169.148438 227.566406 170.671875 C 226.023438 172.242188 224.859375 174.054688 224.066406 176.109375 C 223.273438 178.160156 222.921875 180.289062 223.007812 182.488281 C 222.914062 184.695312 223.265625 186.832031 224.054688 188.894531 C 224.847656 190.957031 226.019531 192.777344 227.566406 194.355469 C 229.070312 195.882812 230.816406 197.046875 232.808594 197.847656 C 234.796875 198.648438 236.863281 199.019531 239.007812 198.960938 C 240.210938 198.953125 241.398438 198.816406 242.570312 198.542969 C 243.742188 198.273438 244.867188 197.875 245.953125 197.351562 C 247.035156 196.824219 248.046875 196.1875 248.988281 195.4375 C 249.925781 194.6875 250.773438 193.839844 251.523438 192.902344 L 255.378906 196.65625 C 253.402344 199.019531 251.007812 200.832031 248.195312 202.089844 C 245.277344 203.425781 242.214844 204.085938 239.007812 204.066406 Z M 264.96875 161.933594 L 264.96875 203.164062 L 259.660156 203.164062 L 259.660156 161.933594 Z M 269.523438 189.046875 C 269.464844 187.050781 269.792969 185.121094 270.503906 183.253906 C 271.214844 181.390625 272.257812 179.730469 273.628906 178.28125 C 274.988281 176.871094 276.574219 175.796875 278.386719 175.058594 C 280.199219 174.316406 282.085938 173.972656 284.042969 174.027344 C 285.992188 173.96875 287.871094 174.3125 289.675781 175.054688 C 291.480469 175.796875 293.058594 176.871094 294.40625 178.28125 C 295.792969 179.722656 296.84375 181.378906 297.5625 183.246094 C 298.277344 185.113281 298.605469 187.046875 298.539062 189.046875 C 298.613281 191.046875 298.289062 192.980469 297.574219 194.851562 C 296.855469 196.71875 295.800781 198.375 294.40625 199.8125 C 293.0625 201.226562 291.488281 202.304688 289.679688 203.046875 C 287.875 203.789062 285.996094 204.128906 284.042969 204.066406 C 282.085938 204.125 280.199219 203.785156 278.382812 203.042969 C 276.570312 202.304688 274.984375 201.226562 273.628906 199.8125 C 272.257812 198.359375 271.214844 196.703125 270.503906 194.839844 C 269.792969 192.972656 269.464844 191.042969 269.523438 189.046875 Z M 274.832031 189.046875 C 274.769531 190.398438 274.96875 191.714844 275.429688 192.988281 C 275.886719 194.265625 276.574219 195.402344 277.484375 196.40625 C 277.90625 196.855469 278.367188 197.253906 278.871094 197.605469 C 279.375 197.957031 279.90625 198.257812 280.472656 198.5 C 281.035156 198.742188 281.617188 198.925781 282.21875 199.050781 C 282.820312 199.175781 283.429688 199.238281 284.042969 199.238281 C 284.65625 199.238281 285.265625 199.175781 285.867188 199.050781 C 286.46875 198.925781 287.050781 198.742188 287.613281 198.5 C 288.179688 198.257812 288.710938 197.957031 289.214844 197.605469 C 289.71875 197.253906 290.179688 196.855469 290.601562 196.40625 C 291.511719 195.402344 292.199219 194.265625 292.65625 192.988281 C 293.117188 191.714844 293.316406 190.398438 293.253906 189.046875 C 293.3125 187.699219 293.113281 186.394531 292.652344 185.128906 C 292.195312 183.863281 291.511719 182.730469 290.601562 181.738281 C 290.183594 181.28125 289.726562 180.875 289.222656 180.519531 C 288.722656 180.160156 288.1875 179.855469 287.625 179.609375 C 287.058594 179.363281 286.476562 179.175781 285.871094 179.046875 C 285.269531 178.921875 284.660156 178.859375 284.042969 178.859375 C 283.425781 178.859375 282.816406 178.921875 282.214844 179.046875 C 281.609375 179.175781 281.027344 179.363281 280.460938 179.609375 C 279.898438 179.855469 279.363281 180.160156 278.863281 180.519531 C 278.359375 180.875 277.902344 181.28125 277.484375 181.738281 C 276.574219 182.730469 275.890625 183.863281 275.433594 185.128906 C 274.972656 186.394531 274.773438 187.699219 274.832031 189.046875 Z M 327.828125 203.164062 L 322.820312 203.164062 L 322.820312 199.234375 L 322.570312 199.234375 C 321.660156 200.734375 320.421875 201.882812 318.867188 202.691406 C 317.25 203.605469 315.515625 204.0625 313.660156 204.066406 C 312.179688 204.164062 310.742188 203.953125 309.351562 203.4375 C 307.960938 202.925781 306.734375 202.148438 305.671875 201.113281 C 304.679688 199.941406 303.945312 198.625 303.464844 197.164062 C 302.984375 195.707031 302.792969 194.210938 302.894531 192.675781 L 302.894531 174.976562 L 308.175781 174.976562 L 308.175781 192.351562 C 308.121094 192.820312 308.121094 193.292969 308.171875 193.761719 C 308.222656 194.234375 308.328125 194.691406 308.484375 195.140625 C 308.640625 195.585938 308.84375 196.007812 309.097656 196.410156 C 309.351562 196.808594 309.648438 197.175781 309.984375 197.507812 C 310.320312 197.84375 310.691406 198.132812 311.09375 198.382812 C 311.496094 198.628906 311.921875 198.832031 312.371094 198.984375 C 312.816406 199.132812 313.277344 199.234375 313.75 199.28125 C 314.21875 199.328125 314.691406 199.320312 315.160156 199.261719 C 316.1875 199.277344 317.167969 199.066406 318.09375 198.628906 C 319.023438 198.1875 319.804688 197.5625 320.441406 196.757812 C 321.15625 195.898438 321.695312 194.9375 322.0625 193.882812 C 322.429688 192.828125 322.597656 191.742188 322.570312 190.625 L 322.570312 174.976562 L 327.878906 174.976562 Z M 345.753906 204.066406 C 343.929688 204.066406 342.1875 203.6875 340.53125 202.925781 C 338.875 202.164062 337.453125 201.09375 336.265625 199.710938 C 334.949219 198.25 333.945312 196.597656 333.253906 194.757812 C 332.5625 192.917969 332.230469 191.011719 332.257812 189.046875 C 332.214844 187.089844 332.53125 185.195312 333.207031 183.359375 C 333.878906 181.519531 334.867188 179.871094 336.164062 178.40625 C 337.34375 177.011719 338.765625 175.929688 340.421875 175.164062 C 342.082031 174.398438 343.824219 174.019531 345.652344 174.027344 C 347.65625 173.992188 349.550781 174.433594 351.335938 175.351562 C 352.972656 176.160156 354.292969 177.328125 355.289062 178.859375 L 355.515625 178.859375 L 355.390625 174.976562 L 355.390625 161.933594 L 360.671875 161.933594 L 360.671875 203.164062 L 355.664062 203.164062 L 355.664062 199.234375 L 355.441406 199.234375 C 354.441406 200.765625 353.125 201.933594 351.484375 202.738281 C 349.6875 203.667969 347.777344 204.109375 345.753906 204.066406 Z M 346.628906 199.234375 C 347.851562 199.273438 349.023438 199.046875 350.144531 198.550781 C 351.261719 198.054688 352.21875 197.339844 353.011719 196.40625 C 353.886719 195.386719 354.542969 194.242188 354.972656 192.96875 C 355.40625 191.695312 355.585938 190.386719 355.515625 189.046875 C 355.578125 187.714844 355.390625 186.417969 354.957031 185.152344 C 354.527344 183.890625 353.878906 182.753906 353.011719 181.738281 C 352.222656 180.796875 351.265625 180.074219 350.148438 179.570312 C 349.027344 179.066406 347.855469 178.828125 346.628906 178.859375 C 345.402344 178.839844 344.234375 179.082031 343.117188 179.585938 C 342 180.089844 341.042969 180.804688 340.246094 181.738281 C 339.378906 182.753906 338.730469 183.890625 338.300781 185.152344 C 337.867188 186.417969 337.679688 187.714844 337.742188 189.046875 C 337.671875 190.378906 337.855469 191.679688 338.285156 192.945312 C 338.71875 194.207031 339.371094 195.34375 340.246094 196.355469 C 341.042969 197.289062 342 198.003906 343.117188 198.507812 C 344.234375 199.011719 345.402344 199.253906 346.628906 199.234375 Z M 346.628906 199.234375 " fill-opacity="1" fill-rule="nonzero"/><g clip-path="url(#fb9deee0e4)"><path fill="#ffffff" d="M 38.082031 204.066406 C 37.3125 204.070312 36.546875 204.035156 35.777344 203.960938 C 35.011719 203.890625 34.253906 203.78125 33.496094 203.632812 C 32.742188 203.488281 31.996094 203.304688 31.257812 203.085938 C 30.519531 202.867188 29.796875 202.613281 29.082031 202.324219 C 28.371094 202.03125 27.671875 201.707031 26.992188 201.351562 C 26.308594 200.992188 25.648438 200.601562 25.003906 200.179688 C 24.363281 199.757812 23.742188 199.304688 23.140625 198.824219 C 22.542969 198.339844 21.96875 197.828125 21.417969 197.289062 C 20.871094 196.75 20.347656 196.1875 19.855469 195.597656 C 19.359375 195.007812 18.894531 194.394531 18.460938 193.761719 C 18.027344 193.125 17.625 192.472656 17.253906 191.796875 C 16.882812 191.121094 16.546875 190.433594 16.242188 189.726562 C 15.9375 189.019531 15.667969 188.296875 15.4375 187.566406 C 15.203125 186.832031 15.007812 186.089844 14.84375 185.335938 C 14.683594 184.582031 14.558594 183.824219 14.472656 183.0625 C 14.386719 182.296875 14.335938 181.53125 14.324219 180.761719 C 14.335938 179.992188 14.386719 179.222656 14.472656 178.460938 C 14.558594 177.695312 14.683594 176.9375 14.84375 176.183594 C 15.007812 175.433594 15.203125 174.6875 15.4375 173.957031 C 15.667969 173.222656 15.9375 172.503906 16.242188 171.796875 C 16.546875 171.089844 16.882812 170.398438 17.253906 169.722656 C 17.625 169.050781 18.027344 168.394531 18.460938 167.757812 C 18.894531 167.125 19.359375 166.511719 19.855469 165.921875 C 20.347656 165.332031 20.871094 164.769531 21.417969 164.230469 C 21.96875 163.691406 22.542969 163.179688 23.140625 162.699219 C 23.742188 162.214844 24.363281 161.761719 25.003906 161.339844 C 25.648438 160.917969 26.308594 160.527344 26.992188 160.167969 C 27.671875 159.8125 28.371094 159.488281 29.082031 159.199219 C 29.796875 158.90625 30.519531 158.652344 31.257812 158.433594 C 31.996094 158.214844 32.742188 158.03125 33.496094 157.886719 C 34.253906 157.738281 35.011719 157.628906 35.777344 157.558594 C 36.546875 157.484375 37.3125 157.449219 38.082031 157.453125 C 39.566406 157.429688 41.039062 157.550781 42.5 157.820312 C 43.957031 158.089844 45.375 158.5 46.753906 159.050781 C 48.132812 159.605469 49.441406 160.289062 50.683594 161.101562 C 51.925781 161.914062 53.074219 162.84375 54.128906 163.886719 L 49.597656 168.367188 C 48.054688 166.878906 46.285156 165.742188 44.289062 164.953125 C 42.296875 164.164062 40.226562 163.785156 38.082031 163.8125 C 37.527344 163.808594 36.976562 163.835938 36.425781 163.890625 C 35.875 163.941406 35.328125 164.023438 34.78125 164.128906 C 34.238281 164.238281 33.703125 164.371094 33.171875 164.53125 C 32.644531 164.691406 32.121094 164.878906 31.609375 165.089844 C 31.101562 165.304688 30.601562 165.539062 30.113281 165.800781 C 29.625 166.0625 29.148438 166.351562 28.691406 166.660156 C 28.230469 166.96875 27.789062 167.296875 27.359375 167.652344 C 26.933594 168.003906 26.527344 168.375 26.136719 168.769531 C 25.746094 169.164062 25.375 169.574219 25.027344 170.003906 C 24.679688 170.433594 24.351562 170.882812 24.046875 171.34375 C 23.742188 171.804688 23.460938 172.28125 23.203125 172.773438 C 22.945312 173.261719 22.714844 173.765625 22.507812 174.277344 C 22.296875 174.792969 22.117188 175.3125 21.960938 175.84375 C 21.804688 176.375 21.675781 176.914062 21.574219 177.457031 C 21.46875 178.003906 21.394531 178.550781 21.347656 179.101562 C 21.296875 179.652344 21.277344 180.207031 21.285156 180.761719 C 21.277344 181.3125 21.296875 181.867188 21.347656 182.417969 C 21.394531 182.96875 21.46875 183.519531 21.574219 184.0625 C 21.675781 184.605469 21.804688 185.144531 21.960938 185.675781 C 22.117188 186.207031 22.296875 186.730469 22.507812 187.242188 C 22.714844 187.753906 22.945312 188.257812 23.203125 188.746094 C 23.460938 189.238281 23.742188 189.714844 24.046875 190.175781 C 24.351562 190.640625 24.679688 191.085938 25.027344 191.515625 C 25.375 191.945312 25.746094 192.355469 26.136719 192.75 C 26.527344 193.144531 26.933594 193.515625 27.359375 193.871094 C 27.789062 194.222656 28.230469 194.554688 28.691406 194.863281 C 29.148438 195.171875 29.625 195.457031 30.113281 195.71875 C 30.601562 195.980469 31.101562 196.214844 31.609375 196.429688 C 32.121094 196.640625 32.644531 196.828125 33.171875 196.988281 C 33.703125 197.148438 34.238281 197.28125 34.78125 197.390625 C 35.328125 197.496094 35.875 197.578125 36.425781 197.632812 C 36.976562 197.683594 37.527344 197.710938 38.082031 197.707031 C 39.175781 197.753906 40.261719 197.683594 41.339844 197.5 C 42.421875 197.316406 43.46875 197.023438 44.488281 196.621094 C 45.503906 196.21875 46.46875 195.714844 47.382812 195.109375 C 48.292969 194.503906 49.132812 193.808594 49.898438 193.027344 C 50.917969 191.925781 51.730469 190.683594 52.324219 189.308594 C 52.921875 187.929688 53.273438 186.488281 53.378906 184.992188 L 38.082031 184.992188 L 38.082031 178.65625 L 59.613281 178.65625 C 59.847656 179.972656 59.957031 181.300781 59.9375 182.636719 C 59.980469 184 59.890625 185.351562 59.667969 186.691406 C 59.445312 188.035156 59.097656 189.34375 58.621094 190.621094 C 58.144531 191.894531 57.550781 193.113281 56.835938 194.269531 C 56.121094 195.429688 55.304688 196.507812 54.378906 197.507812 C 53.328125 198.597656 52.175781 199.566406 50.921875 200.414062 C 49.667969 201.261719 48.335938 201.96875 46.933594 202.53125 C 45.527344 203.097656 44.082031 203.507812 42.589844 203.769531 C 41.097656 204.027344 39.59375 204.125 38.082031 204.066406 Z M 38.082031 204.066406 " fill-opacity="1" fill-rule="nonzero"/></g><path fill="#ffffff" d="M 93.234375 189.046875 C 93.253906 189.546875 93.25 190.046875 93.21875 190.542969 C 93.1875 191.042969 93.132812 191.539062 93.054688 192.03125 C 92.972656 192.527344 92.871094 193.011719 92.742188 193.496094 C 92.613281 193.980469 92.457031 194.453125 92.28125 194.921875 C 92.105469 195.390625 91.90625 195.847656 91.683594 196.292969 C 91.457031 196.742188 91.214844 197.175781 90.945312 197.597656 C 90.679688 198.019531 90.390625 198.429688 90.085938 198.824219 C 89.777344 199.214844 89.449219 199.59375 89.101562 199.953125 C 88.757812 200.3125 88.394531 200.65625 88.011719 200.980469 C 87.632812 201.304688 87.238281 201.609375 86.824219 201.890625 C 86.414062 202.175781 85.988281 202.4375 85.550781 202.679688 C 85.113281 202.921875 84.664062 203.140625 84.207031 203.335938 C 83.746094 203.53125 83.277344 203.703125 82.800781 203.851562 C 82.324219 204 81.839844 204.125 81.351562 204.226562 C 80.859375 204.324219 80.367188 204.402344 79.871094 204.453125 C 79.375 204.5 78.875 204.527344 78.375 204.527344 C 77.875 204.527344 77.375 204.5 76.878906 204.453125 C 76.382812 204.402344 75.886719 204.324219 75.398438 204.226562 C 74.910156 204.125 74.425781 204 73.949219 203.851562 C 73.472656 203.703125 73.003906 203.53125 72.542969 203.335938 C 72.082031 203.140625 71.636719 202.921875 71.199219 202.679688 C 70.757812 202.4375 70.335938 202.175781 69.925781 201.890625 C 69.511719 201.609375 69.117188 201.304688 68.738281 200.980469 C 68.355469 200.65625 67.992188 200.3125 67.644531 199.953125 C 67.300781 199.59375 66.972656 199.214844 66.664062 198.824219 C 66.355469 198.429688 66.070312 198.019531 65.804688 197.597656 C 65.535156 197.175781 65.289062 196.742188 65.066406 196.292969 C 64.84375 195.847656 64.644531 195.390625 64.46875 194.921875 C 64.289062 194.453125 64.136719 193.980469 64.007812 193.496094 C 63.878906 193.011719 63.773438 192.527344 63.695312 192.03125 C 63.617188 191.539062 63.5625 191.042969 63.53125 190.542969 C 63.5 190.046875 63.496094 189.546875 63.515625 189.046875 C 63.496094 188.546875 63.5 188.046875 63.53125 187.550781 C 63.5625 187.050781 63.617188 186.554688 63.695312 186.0625 C 63.773438 185.566406 63.878906 185.078125 64.007812 184.597656 C 64.136719 184.113281 64.289062 183.636719 64.46875 183.171875 C 64.644531 182.703125 64.84375 182.246094 65.066406 181.800781 C 65.289062 181.351562 65.535156 180.917969 65.804688 180.496094 C 66.070312 180.070312 66.355469 179.664062 66.664062 179.269531 C 66.972656 178.878906 67.300781 178.5 67.644531 178.140625 C 67.992188 177.777344 68.355469 177.4375 68.734375 177.113281 C 69.117188 176.789062 69.511719 176.484375 69.925781 176.199219 C 70.335938 175.917969 70.757812 175.652344 71.199219 175.414062 C 71.636719 175.171875 72.082031 174.953125 72.542969 174.757812 C 73.003906 174.5625 73.472656 174.390625 73.949219 174.238281 C 74.425781 174.089844 74.910156 173.96875 75.398438 173.867188 C 75.886719 173.765625 76.382812 173.691406 76.878906 173.640625 C 77.375 173.589844 77.875 173.566406 78.375 173.566406 C 78.875 173.566406 79.375 173.589844 79.871094 173.640625 C 80.367188 173.691406 80.859375 173.765625 81.351562 173.867188 C 81.839844 173.96875 82.324219 174.089844 82.800781 174.238281 C 83.277344 174.390625 83.746094 174.5625 84.207031 174.757812 C 84.664062 174.953125 85.113281 175.171875 85.550781 175.414062 C 85.988281 175.652344 86.414062 175.917969 86.824219 176.199219 C 87.238281 176.484375 87.632812 176.789062 88.011719 177.113281 C 88.394531 177.4375 88.757812 177.777344 89.101562 178.140625 C 89.449219 178.5 89.777344 178.878906 90.085938 179.269531 C 90.390625 179.664062 90.679688 180.070312 90.945312 180.496094 C 91.214844 180.917969 91.457031 181.351562 91.683594 181.800781 C 91.90625 182.246094 92.105469 182.703125 92.28125 183.171875 C 92.457031 183.636719 92.613281 184.113281 92.742188 184.597656 C 92.871094 185.078125 92.972656 185.566406 93.054688 186.0625 C 93.132812 186.554688 93.1875 187.050781 93.21875 187.550781 C 93.25 188.046875 93.253906 188.546875 93.234375 189.046875 Z M 86.722656 189.046875 C 86.777344 188.464844 86.773438 187.882812 86.707031 187.304688 C 86.640625 186.722656 86.515625 186.15625 86.332031 185.601562 C 86.144531 185.046875 85.90625 184.519531 85.609375 184.015625 C 85.316406 183.511719 84.972656 183.042969 84.578125 182.609375 C 84.1875 182.179688 83.753906 181.792969 83.277344 181.449219 C 82.804688 181.109375 82.300781 180.820312 81.765625 180.582031 C 81.234375 180.347656 80.679688 180.167969 80.109375 180.046875 C 79.535156 179.925781 78.957031 179.867188 78.375 179.867188 C 77.789062 179.867188 77.214844 179.925781 76.640625 180.046875 C 76.070312 180.167969 75.515625 180.347656 74.984375 180.582031 C 74.449219 180.820312 73.945312 181.109375 73.472656 181.449219 C 72.996094 181.792969 72.5625 182.179688 72.171875 182.609375 C 71.777344 183.042969 71.433594 183.511719 71.136719 184.015625 C 70.84375 184.519531 70.601562 185.046875 70.417969 185.601562 C 70.234375 186.15625 70.109375 186.722656 70.042969 187.304688 C 69.976562 187.882812 69.96875 188.464844 70.027344 189.046875 C 69.96875 189.628906 69.976562 190.207031 70.042969 190.789062 C 70.109375 191.371094 70.234375 191.9375 70.417969 192.492188 C 70.601562 193.046875 70.84375 193.574219 71.136719 194.078125 C 71.433594 194.582031 71.777344 195.050781 72.171875 195.480469 C 72.5625 195.914062 72.996094 196.300781 73.472656 196.640625 C 73.945312 196.984375 74.449219 197.273438 74.984375 197.507812 C 75.515625 197.746094 76.070312 197.925781 76.640625 198.042969 C 77.214844 198.164062 77.789062 198.226562 78.375 198.226562 C 78.957031 198.226562 79.535156 198.164062 80.109375 198.042969 C 80.679688 197.925781 81.234375 197.746094 81.765625 197.507812 C 82.300781 197.273438 82.804688 196.984375 83.277344 196.640625 C 83.753906 196.300781 84.1875 195.914062 84.578125 195.480469 C 84.972656 195.050781 85.316406 194.582031 85.609375 194.078125 C 85.90625 193.574219 86.144531 193.046875 86.332031 192.492188 C 86.515625 191.9375 86.640625 191.371094 86.707031 190.789062 C 86.773438 190.207031 86.777344 189.628906 86.722656 189.046875 Z M 86.722656 189.046875 " fill-opacity="1" fill-rule="nonzero"/><path fill="#ffffff" d="M 126.554688 189.046875 C 126.574219 189.546875 126.570312 190.046875 126.539062 190.542969 C 126.507812 191.042969 126.453125 191.539062 126.375 192.03125 C 126.292969 192.527344 126.191406 193.011719 126.0625 193.496094 C 125.933594 193.980469 125.777344 194.453125 125.601562 194.921875 C 125.425781 195.390625 125.226562 195.847656 125.003906 196.292969 C 124.777344 196.742188 124.535156 197.175781 124.265625 197.597656 C 124 198.019531 123.714844 198.429688 123.40625 198.824219 C 123.097656 199.214844 122.769531 199.59375 122.421875 199.953125 C 122.078125 200.3125 121.714844 200.65625 121.332031 200.980469 C 120.953125 201.304688 120.558594 201.609375 120.144531 201.890625 C 119.734375 202.175781 119.308594 202.4375 118.871094 202.679688 C 118.433594 202.921875 117.984375 203.140625 117.527344 203.335938 C 117.066406 203.53125 116.597656 203.703125 116.121094 203.851562 C 115.644531 204 115.160156 204.125 114.671875 204.226562 C 114.179688 204.324219 113.6875 204.402344 113.191406 204.453125 C 112.695312 204.5 112.195312 204.527344 111.695312 204.527344 C 111.195312 204.527344 110.695312 204.5 110.199219 204.453125 C 109.703125 204.402344 109.210938 204.324219 108.71875 204.226562 C 108.230469 204.125 107.746094 204 107.269531 203.851562 C 106.792969 203.703125 106.324219 203.53125 105.863281 203.335938 C 105.40625 203.140625 104.957031 202.921875 104.519531 202.679688 C 104.082031 202.4375 103.65625 202.175781 103.246094 201.890625 C 102.832031 201.609375 102.4375 201.304688 102.058594 200.980469 C 101.675781 200.65625 101.3125 200.3125 100.96875 199.953125 C 100.621094 199.59375 100.292969 199.214844 99.984375 198.824219 C 99.675781 198.429688 99.390625 198.019531 99.125 197.597656 C 98.855469 197.175781 98.613281 196.742188 98.386719 196.292969 C 98.164062 195.847656 97.964844 195.390625 97.789062 194.921875 C 97.613281 194.453125 97.457031 193.980469 97.328125 193.496094 C 97.199219 193.011719 97.097656 192.527344 97.015625 192.03125 C 96.9375 191.539062 96.882812 191.042969 96.851562 190.542969 C 96.820312 190.046875 96.816406 189.546875 96.835938 189.046875 C 96.816406 188.546875 96.820312 188.046875 96.851562 187.550781 C 96.882812 187.050781 96.9375 186.554688 97.015625 186.0625 C 97.097656 185.566406 97.199219 185.078125 97.328125 184.597656 C 97.457031 184.113281 97.613281 183.636719 97.789062 183.171875 C 97.964844 182.703125 98.164062 182.246094 98.386719 181.800781 C 98.613281 181.351562 98.855469 180.917969 99.125 180.496094 C 99.390625 180.070312 99.675781 179.664062 99.984375 179.269531 C 100.292969 178.878906 100.621094 178.5 100.96875 178.140625 C 101.3125 177.777344 101.675781 177.4375 102.058594 177.113281 C 102.4375 176.789062 102.832031 176.484375 103.246094 176.199219 C 103.65625 175.917969 104.082031 175.652344 104.519531 175.414062 C 104.957031 175.171875 105.40625 174.953125 105.863281 174.757812 C 106.324219 174.5625 106.792969 174.390625 107.269531 174.238281 C 107.746094 174.089844 108.230469 173.96875 108.71875 173.867188 C 109.210938 173.765625 109.703125 173.691406 110.199219 173.640625 C 110.695312 173.589844 111.195312 173.566406 111.695312 173.566406 C 112.195312 173.566406 112.695312 173.589844 113.191406 173.640625 C 113.6875 173.691406 114.179688 173.765625 114.671875 173.867188 C 115.160156 173.96875 115.644531 174.089844 116.121094 174.238281 C 116.597656 174.390625 117.066406 174.5625 117.527344 174.757812 C 117.984375 174.953125 118.433594 175.171875 118.871094 175.414062 C 119.308594 175.652344 119.734375 175.917969 120.144531 176.199219 C 120.558594 176.484375 120.953125 176.789062 121.332031 177.113281 C 121.714844 177.4375 122.078125 177.777344 122.421875 178.140625 C 122.769531 178.5 123.097656 178.878906 123.40625 179.269531 C 123.714844 179.664062 124 180.070312 124.265625 180.496094 C 124.535156 180.917969 124.777344 181.351562 125.003906 181.800781 C 125.226562 182.246094 125.425781 182.703125 125.601562 183.171875 C 125.777344 183.636719 125.933594 184.113281 126.0625 184.597656 C 126.191406 185.078125 126.292969 185.566406 126.375 186.0625 C 126.453125 186.554688 126.507812 187.050781 126.539062 187.550781 C 126.570312 188.046875 126.574219 188.546875 126.554688 189.046875 Z M 120.042969 189.046875 C 120.089844 188.46875 120.074219 187.894531 120 187.324219 C 119.925781 186.75 119.792969 186.191406 119.605469 185.644531 C 119.414062 185.097656 119.171875 184.578125 118.871094 184.082031 C 118.574219 183.585938 118.230469 183.125 117.835938 182.703125 C 117.445312 182.277344 117.011719 181.898438 116.542969 181.5625 C 116.070312 181.230469 115.570312 180.945312 115.042969 180.714844 C 114.511719 180.484375 113.964844 180.308594 113.398438 180.191406 C 112.832031 180.070312 112.261719 180.011719 111.683594 180.011719 C 111.105469 180.011719 110.53125 180.070312 109.96875 180.191406 C 109.402344 180.308594 108.855469 180.484375 108.324219 180.714844 C 107.792969 180.945312 107.292969 181.230469 106.824219 181.5625 C 106.351562 181.898438 105.921875 182.277344 105.527344 182.703125 C 105.136719 183.125 104.789062 183.585938 104.492188 184.082031 C 104.195312 184.578125 103.953125 185.097656 103.761719 185.644531 C 103.570312 186.191406 103.441406 186.75 103.367188 187.324219 C 103.292969 187.894531 103.277344 188.46875 103.320312 189.046875 C 103.277344 189.621094 103.292969 190.199219 103.367188 190.769531 C 103.441406 191.34375 103.570312 191.902344 103.761719 192.449219 C 103.953125 192.996094 104.195312 193.515625 104.492188 194.011719 C 104.789062 194.507812 105.136719 194.964844 105.527344 195.390625 C 105.921875 195.816406 106.351562 196.195312 106.824219 196.527344 C 107.292969 196.863281 107.792969 197.148438 108.324219 197.378906 C 108.855469 197.609375 109.402344 197.785156 109.96875 197.902344 C 110.53125 198.019531 111.105469 198.082031 111.683594 198.082031 C 112.261719 198.082031 112.832031 198.019531 113.398438 197.902344 C 113.964844 197.785156 114.511719 197.609375 115.042969 197.378906 C 115.570312 197.148438 116.070312 196.863281 116.542969 196.527344 C 117.011719 196.195312 117.445312 195.816406 117.835938 195.390625 C 118.230469 194.964844 118.574219 194.507812 118.871094 194.011719 C 119.171875 193.515625 119.414062 192.996094 119.605469 192.449219 C 119.792969 191.902344 119.925781 191.34375 120 190.769531 C 120.074219 190.199219 120.089844 189.621094 120.042969 189.046875 Z M 120.042969 189.046875 " fill-opacity="1" fill-rule="nonzero"/><g clip-path="url(#2e137506f3)"><path fill="#ffffff" d="M 159.023438 174.976562 L 159.023438 201.914062 C 159.023438 212.980469 152.4375 217.535156 144.679688 217.535156 C 143.96875 217.539062 143.261719 217.492188 142.558594 217.390625 C 141.855469 217.289062 141.164062 217.136719 140.484375 216.933594 C 139.800781 216.730469 139.140625 216.480469 138.496094 216.179688 C 137.855469 215.878906 137.238281 215.53125 136.644531 215.140625 C 136.054688 214.746094 135.492188 214.3125 134.964844 213.835938 C 134.4375 213.363281 133.949219 212.851562 133.496094 212.304688 C 133.042969 211.753906 132.636719 211.175781 132.269531 210.570312 C 131.902344 209.960938 131.582031 209.328125 131.308594 208.671875 L 137.09375 206.167969 C 137.382812 206.9375 137.78125 207.644531 138.28125 208.296875 C 138.78125 208.945312 139.367188 209.507812 140.035156 209.984375 C 140.703125 210.460938 141.425781 210.832031 142.207031 211.09375 C 142.984375 211.355469 143.78125 211.5 144.601562 211.527344 C 149.609375 211.527344 152.664062 208.449219 152.664062 202.714844 L 152.664062 200.5625 L 152.511719 200.5625 C 151.5 201.707031 150.292969 202.582031 148.894531 203.195312 C 147.492188 203.808594 146.03125 204.097656 144.503906 204.066406 C 143.515625 204.066406 142.539062 203.972656 141.570312 203.777344 C 140.605469 203.585938 139.664062 203.300781 138.753906 202.921875 C 137.84375 202.546875 136.976562 202.082031 136.15625 201.535156 C 135.335938 200.988281 134.578125 200.363281 133.882812 199.667969 C 133.183594 198.96875 132.5625 198.210938 132.011719 197.390625 C 131.464844 196.570312 131.003906 195.707031 130.625 194.792969 C 130.246094 193.882812 129.964844 192.945312 129.769531 191.976562 C 129.578125 191.007812 129.480469 190.03125 129.480469 189.046875 C 129.480469 188.058594 129.578125 187.082031 129.769531 186.117188 C 129.964844 185.148438 130.246094 184.210938 130.625 183.296875 C 131.003906 182.386719 131.464844 181.523438 132.011719 180.703125 C 132.5625 179.882812 133.183594 179.121094 133.882812 178.425781 C 134.578125 177.726562 135.335938 177.105469 136.15625 176.558594 C 136.976562 176.007812 137.84375 175.546875 138.753906 175.167969 C 139.664062 174.792969 140.605469 174.507812 141.570312 174.316406 C 142.539062 174.121094 143.515625 174.027344 144.503906 174.027344 C 146.023438 173.996094 147.484375 174.285156 148.882812 174.886719 C 150.277344 175.492188 151.488281 176.355469 152.511719 177.480469 L 152.738281 177.480469 L 152.738281 174.976562 Z M 153.1875 189.148438 C 153.234375 188.578125 153.222656 188.011719 153.15625 187.449219 C 153.089844 186.882812 152.964844 186.328125 152.785156 185.789062 C 152.605469 185.25 152.375 184.730469 152.089844 184.238281 C 151.808594 183.742188 151.476562 183.28125 151.101562 182.855469 C 150.726562 182.429688 150.3125 182.042969 149.859375 181.699219 C 149.402344 181.355469 148.921875 181.058594 148.40625 180.8125 C 147.894531 180.566406 147.363281 180.371094 146.808594 180.234375 C 146.257812 180.09375 145.695312 180.011719 145.128906 179.984375 C 144.550781 180.003906 143.980469 180.082031 143.417969 180.214844 C 142.855469 180.351562 142.3125 180.539062 141.789062 180.78125 C 141.261719 181.023438 140.769531 181.316406 140.300781 181.65625 C 139.835938 182 139.40625 182.382812 139.015625 182.808594 C 138.625 183.234375 138.28125 183.695312 137.980469 184.191406 C 137.683594 184.683594 137.4375 185.203125 137.242188 185.75 C 137.046875 186.292969 136.90625 186.851562 136.824219 187.421875 C 136.738281 187.996094 136.710938 188.570312 136.742188 189.148438 C 136.714844 189.71875 136.746094 190.289062 136.832031 190.859375 C 136.917969 191.425781 137.0625 191.976562 137.257812 192.515625 C 137.457031 193.054688 137.703125 193.570312 138.003906 194.058594 C 138.304688 194.550781 138.648438 195.003906 139.039062 195.425781 C 139.429688 195.847656 139.855469 196.222656 140.324219 196.558594 C 140.789062 196.894531 141.28125 197.179688 141.804688 197.417969 C 142.328125 197.65625 142.871094 197.835938 143.429688 197.964844 C 143.988281 198.09375 144.554688 198.167969 145.128906 198.183594 C 145.695312 198.164062 146.253906 198.085938 146.804688 197.953125 C 147.355469 197.820312 147.886719 197.632812 148.398438 197.390625 C 148.914062 197.152344 149.398438 196.859375 149.851562 196.519531 C 150.304688 196.179688 150.71875 195.800781 151.097656 195.375 C 151.472656 194.953125 151.804688 194.496094 152.089844 194.003906 C 152.371094 193.515625 152.605469 193 152.785156 192.464844 C 152.964844 191.925781 153.085938 191.375 153.15625 190.8125 C 153.222656 190.25 153.234375 189.6875 153.1875 189.121094 Z M 153.1875 189.148438 " fill-opacity="1" fill-rule="nonzero"/></g><path fill="#ffffff" d="M 164.003906 159.054688 L 170.613281 159.054688 L 170.613281 203.164062 L 164.003906 203.164062 Z M 164.003906 159.054688 " fill-opacity="1" fill-rule="nonzero"/><path fill="#ffffff" d="M 196.648438 194.003906 L 201.804688 197.507812 C 201.117188 198.535156 200.3125 199.464844 199.398438 200.292969 C 198.480469 201.121094 197.472656 201.828125 196.382812 202.40625 C 195.289062 202.988281 194.144531 203.425781 192.945312 203.726562 C 191.742188 204.023438 190.527344 204.171875 189.289062 204.167969 C 188.796875 204.175781 188.308594 204.15625 187.820312 204.113281 C 187.332031 204.070312 186.84375 204.003906 186.363281 203.914062 C 185.882812 203.820312 185.40625 203.703125 184.933594 203.566406 C 184.464844 203.425781 184.003906 203.261719 183.546875 203.074219 C 183.09375 202.890625 182.652344 202.679688 182.21875 202.449219 C 181.785156 202.21875 181.367188 201.964844 180.960938 201.691406 C 180.550781 201.417969 180.160156 201.121094 179.78125 200.808594 C 179.40625 200.496094 179.042969 200.164062 178.699219 199.8125 C 178.355469 199.460938 178.03125 199.097656 177.726562 198.714844 C 177.417969 198.328125 177.132812 197.933594 176.867188 197.519531 C 176.601562 197.109375 176.355469 196.683594 176.132812 196.246094 C 175.90625 195.808594 175.707031 195.363281 175.527344 194.90625 C 175.351562 194.449219 175.195312 193.984375 175.066406 193.511719 C 174.933594 193.039062 174.828125 192.558594 174.742188 192.078125 C 174.660156 191.59375 174.601562 191.105469 174.570312 190.617188 C 174.535156 190.128906 174.527344 189.636719 174.542969 189.148438 C 174.472656 188.308594 174.476562 187.46875 174.554688 186.632812 C 174.636719 185.796875 174.792969 184.972656 175.023438 184.164062 C 175.253906 183.355469 175.554688 182.574219 175.929688 181.820312 C 176.300781 181.066406 176.742188 180.351562 177.246094 179.675781 C 177.75 179.003906 178.308594 178.382812 178.925781 177.808594 C 179.542969 177.238281 180.207031 176.726562 180.917969 176.277344 C 181.628906 175.828125 182.375 175.445312 183.15625 175.132812 C 183.9375 174.816406 184.738281 174.578125 185.5625 174.410156 C 186.390625 174.242188 187.222656 174.152344 188.0625 174.136719 C 188.902344 174.121094 189.738281 174.183594 190.570312 174.320312 C 191.398438 174.457031 192.210938 174.667969 193.003906 174.957031 C 193.792969 175.242188 194.550781 175.597656 195.277344 176.019531 C 196.003906 176.445312 196.6875 176.929688 197.324219 177.480469 C 197.964844 178.027344 198.546875 178.628906 199.074219 179.285156 C 199.601562 179.941406 200.066406 180.636719 200.464844 181.378906 C 200.867188 182.117188 201.195312 182.890625 201.457031 183.6875 L 202.132812 185.417969 L 182.105469 193.703125 C 182.414062 194.402344 182.824219 195.042969 183.328125 195.625 C 183.832031 196.203125 184.410156 196.695312 185.0625 197.101562 C 185.710938 197.507812 186.410156 197.808594 187.152344 198.007812 C 187.890625 198.203125 188.648438 198.289062 189.414062 198.257812 C 190.148438 198.242188 190.867188 198.132812 191.574219 197.933594 C 192.28125 197.730469 192.953125 197.445312 193.585938 197.074219 C 194.21875 196.699219 194.792969 196.253906 195.3125 195.734375 C 195.832031 195.214844 196.277344 194.636719 196.648438 194.003906 Z M 180.851562 188.597656 L 194.320312 183.039062 C 194.050781 182.539062 193.714844 182.089844 193.316406 181.6875 C 192.917969 181.289062 192.46875 180.949219 191.96875 180.679688 C 191.472656 180.410156 190.945312 180.214844 190.390625 180.097656 C 189.835938 179.976562 189.277344 179.941406 188.714844 179.984375 C 188.171875 180.007812 187.636719 180.085938 187.113281 180.214844 C 186.585938 180.34375 186.078125 180.523438 185.589844 180.753906 C 185.097656 180.980469 184.632812 181.257812 184.199219 181.578125 C 183.761719 181.898438 183.363281 182.257812 182.996094 182.660156 C 182.632812 183.058594 182.308594 183.492188 182.027344 183.953125 C 181.75 184.417969 181.515625 184.90625 181.332031 185.414062 C 181.148438 185.921875 181.015625 186.445312 180.9375 186.980469 C 180.855469 187.515625 180.828125 188.054688 180.851562 188.597656 Z M 180.851562 188.597656 " fill-opacity="1" fill-rule="nonzero"/></svg>