<svg xmlns="http://www.w3.org/2000/svg" xmlns:xlink="http://www.w3.org/1999/xlink" width="500" zoomAndPan="magnify" viewBox="0 0 375 374.999991" height="500" preserveAspectRatio="xMidYMid meet" version="1.0"><path fill="#ffffff" d="M 50.140625 190.957031 L 62.03125 202.847656 L 73.929688 190.953125 L 80.851562 197.863281 L 80.84375 197.867188 L 62.03125 216.6875 L 43.21875 197.878906 L 43.210938 197.867188 Z M 69.050781 186.066406 L 69.054688 186.066406 L 69.050781 186.066406 L 62.03125 193.09375 L 55.015625 186.082031 L 55.003906 186.066406 L 56.242188 184.828125 L 56.84375 184.234375 L 62.03125 179.042969 Z M 78.804688 186.070312 L 85.726562 179.152344 L 92.640625 186.070312 L 85.726562 192.988281 Z M 31.410156 186.070312 L 38.328125 179.152344 L 45.246094 186.070312 L 38.328125 192.988281 Z M 50.140625 181.183594 L 62.03125 169.292969 L 73.929688 181.191406 L 80.84375 174.269531 L 62.03125 155.453125 L 43.21875 174.265625 Z M 50.140625 181.183594 " fill-opacity="1" fill-rule="nonzero"/><path fill="#ffffff" d="M 103.4375 170.289062 L 118.488281 170.289062 C 122.21875 170.289062 125.042969 171.257812 126.960938 173.191406 C 128.414062 174.640625 129.21875 176.617188 129.179688 178.667969 L 129.179688 178.757812 C 129.195312 179.589844 129.078125 180.417969 128.835938 181.214844 C 128.625 181.902344 128.308594 182.550781 127.914062 183.152344 C 127.539062 183.714844 127.089844 184.222656 126.578125 184.660156 C 126.074219 185.089844 125.523438 185.46875 124.9375 185.773438 C 126.632812 186.363281 128.15625 187.359375 129.375 188.671875 C 130.453125 189.898438 130.988281 191.589844 130.988281 193.75 L 130.988281 193.84375 C 131.015625 195.191406 130.726562 196.527344 130.132812 197.742188 C 129.558594 198.859375 128.714844 199.816406 127.679688 200.527344 C 126.511719 201.3125 125.210938 201.875 123.835938 202.195312 C 122.207031 202.582031 120.53125 202.765625 118.859375 202.753906 L 103.4375 202.753906 Z M 116.976562 183.417969 C 118.277344 183.480469 119.574219 183.199219 120.734375 182.605469 C 121.65625 182.066406 122.195312 181.046875 122.117188 179.984375 L 122.117188 179.890625 C 122.167969 178.914062 121.710938 177.976562 120.914062 177.410156 C 120.113281 176.839844 118.949219 176.554688 117.4375 176.554688 L 110.394531 176.554688 L 110.394531 183.417969 Z M 118.878906 196.5 C 120.175781 196.570312 121.464844 196.277344 122.601562 195.644531 C 123.5 195.066406 124.019531 194.042969 123.945312 192.972656 L 123.945312 192.882812 C 123.980469 191.871094 123.511719 190.902344 122.695312 190.308594 C 121.863281 189.664062 120.519531 189.339844 118.660156 189.339844 L 110.394531 189.339844 L 110.394531 196.5 Z M 118.878906 196.5 " fill-opacity="1" fill-rule="nonzero"/><path fill="#ffffff" d="M 139.953125 170.289062 L 147.097656 170.289062 L 147.097656 202.761719 L 139.953125 202.761719 Z M 139.953125 170.289062 " fill-opacity="1" fill-rule="nonzero"/><path fill="#ffffff" d="M 157.90625 170.289062 L 164.496094 170.289062 L 179.71875 190.273438 L 179.71875 170.289062 L 186.769531 170.289062 L 186.769531 202.761719 L 180.691406 202.761719 L 164.96875 182.121094 L 164.96875 202.761719 L 157.90625 202.761719 Z M 157.90625 170.289062 " fill-opacity="1" fill-rule="nonzero"/><path fill="#ffffff" d="M 208.398438 170.058594 L 214.976562 170.058594 L 228.890625 202.761719 L 221.433594 202.761719 L 218.460938 195.476562 L 204.734375 195.476562 L 201.761719 202.761719 L 194.480469 202.761719 Z M 215.914062 189.171875 L 211.589844 178.636719 L 207.285156 189.171875 Z M 215.914062 189.171875 " fill-opacity="1" fill-rule="nonzero"/><path fill="#ffffff" d="M 236.613281 170.289062 L 243.199219 170.289062 L 258.414062 190.273438 L 258.414062 170.289062 L 265.46875 170.289062 L 265.46875 202.761719 L 259.386719 202.761719 L 243.664062 182.121094 L 243.664062 202.761719 L 236.613281 202.761719 Z M 236.613281 170.289062 " fill-opacity="1" fill-rule="nonzero"/><path fill="#ffffff" d="M 291.175781 203.332031 C 288.898438 203.351562 286.644531 202.910156 284.542969 202.035156 C 280.546875 200.386719 277.382812 197.191406 275.773438 193.175781 C 274.929688 191.097656 274.507812 188.875 274.519531 186.632812 L 274.519531 186.539062 C 274.480469 182.125 276.183594 177.863281 279.253906 174.6875 C 280.765625 173.132812 282.578125 171.90625 284.574219 171.070312 C 286.75 170.171875 289.082031 169.71875 291.4375 169.75 C 292.832031 169.738281 294.21875 169.867188 295.585938 170.121094 C 296.757812 170.34375 297.902344 170.6875 299 171.140625 C 300 171.5625 300.949219 172.089844 301.832031 172.71875 C 302.691406 173.332031 303.5 174.015625 304.25 174.757812 L 299.707031 180.003906 C 298.546875 178.933594 297.246094 178.023438 295.839844 177.308594 C 294.457031 176.644531 292.941406 176.316406 291.410156 176.339844 C 288.832031 176.3125 286.363281 177.394531 284.636719 179.3125 C 283.792969 180.253906 283.128906 181.351562 282.683594 182.535156 C 282.21875 183.789062 281.984375 185.117188 281.992188 186.457031 L 281.992188 186.550781 C 281.988281 187.886719 282.21875 189.214844 282.683594 190.46875 C 283.125 191.65625 283.78125 192.761719 284.617188 193.714844 C 286.332031 195.652344 288.800781 196.753906 291.390625 196.730469 C 293.019531 196.785156 294.632812 196.429688 296.09375 195.710938 C 297.488281 194.953125 298.769531 194.019531 299.921875 192.925781 L 304.46875 197.519531 C 303.664062 198.390625 302.792969 199.199219 301.871094 199.9375 C 300.960938 200.65625 299.972656 201.273438 298.925781 201.769531 C 297.808594 202.296875 296.632812 202.683594 295.421875 202.925781 C 294.023438 203.207031 292.601562 203.34375 291.175781 203.332031 Z M 291.175781 203.332031 " fill-opacity="1" fill-rule="nonzero"/><path fill="#ffffff" d="M 312.898438 170.289062 L 337.335938 170.289062 L 337.335938 176.644531 L 319.921875 176.644531 L 319.921875 183.234375 L 335.253906 183.234375 L 335.253906 189.585938 L 319.949219 189.585938 L 319.949219 196.40625 L 337.578125 196.40625 L 337.578125 202.761719 L 312.910156 202.761719 Z M 312.898438 170.289062 " fill-opacity="1" fill-rule="nonzero"/></svg>