<svg xmlns="http://www.w3.org/2000/svg" xmlns:xlink="http://www.w3.org/1999/xlink" width="500" zoomAndPan="magnify" viewBox="0 0 375 374.999991" height="500" preserveAspectRatio="xMidYMid meet" version="1.0"><defs><clipPath id="4a5f8d3e0d"><path d="M 59.046875 164 L 82 164 L 82 201 L 59.046875 201 Z M 59.046875 164 " clip-rule="nonzero"/></clipPath><clipPath id="9bd0e8e543"><path d="M 90 142.425781 L 137 142.425781 L 137 166 L 90 166 Z M 90 142.425781 " clip-rule="nonzero"/></clipPath><clipPath id="13af399c37"><path d="M 124 142.425781 L 131 142.425781 L 131 152 L 124 152 Z M 124 142.425781 " clip-rule="nonzero"/></clipPath><clipPath id="efe1c64115"><path d="M 223 217 L 234 217 L 234 232.425781 L 223 232.425781 Z M 223 217 " clip-rule="nonzero"/></clipPath></defs><g clip-path="url(#4a5f8d3e0d)"><path fill="#ffffff" d="M 59.046875 164.9375 L 81.8125 164.9375 L 81.8125 170.421875 L 65.328125 170.421875 L 65.328125 180.085938 L 80.863281 180.085938 L 80.863281 185.363281 L 65.328125 185.363281 L 65.328125 200.207031 L 59.046875 200.207031 Z M 59.046875 164.9375 " fill-opacity="1" fill-rule="nonzero"/></g><path fill="#ffffff" d="M 84.304688 176.296875 L 90.027344 176.296875 L 90.027344 180.285156 L 90.125 180.285156 C 90.789062 178.886719 91.722656 177.757812 92.914062 176.898438 C 94.105469 176.039062 95.5 175.597656 97.097656 175.597656 C 97.328125 175.597656 97.578125 175.597656 97.839844 175.625 C 98.109375 175.644531 98.339844 175.6875 98.539062 175.75 L 98.539062 181.234375 C 98.136719 181.136719 97.792969 181.0625 97.515625 181.035156 C 97.230469 181 96.960938 180.984375 96.691406 180.984375 C 95.332031 180.984375 94.238281 181.234375 93.40625 181.726562 C 92.570312 182.21875 91.925781 182.820312 91.460938 183.519531 C 90.996094 184.214844 90.679688 184.933594 90.511719 185.660156 C 90.339844 186.394531 90.261719 186.96875 90.261719 187.40625 L 90.261719 200.207031 L 84.285156 200.207031 L 84.285156 176.296875 Z M 84.304688 176.296875 " fill-opacity="1" fill-rule="nonzero"/><path fill="#ffffff" d="M 123.003906 188.542969 L 123.003906 189.339844 C 123.003906 189.609375 122.988281 189.871094 122.949219 190.136719 L 104.773438 190.136719 C 104.835938 191 105.058594 191.785156 105.445312 192.503906 C 105.820312 193.21875 106.332031 193.828125 106.96875 194.347656 C 107.59375 194.867188 108.3125 195.273438 109.109375 195.566406 C 109.90625 195.863281 110.738281 196.015625 111.601562 196.015625 C 113.097656 196.015625 114.359375 195.738281 115.390625 195.191406 C 116.417969 194.644531 117.261719 193.890625 117.933594 192.925781 L 121.921875 196.113281 C 119.5625 199.304688 116.140625 200.898438 111.664062 200.898438 C 109.800781 200.898438 108.097656 200.601562 106.53125 200.027344 C 104.96875 199.445312 103.617188 198.621094 102.472656 197.566406 C 101.324219 196.5 100.429688 195.199219 99.785156 193.660156 C 99.136719 192.117188 98.816406 190.363281 98.816406 188.398438 C 98.816406 186.4375 99.136719 184.71875 99.785156 183.140625 C 100.429688 181.566406 101.316406 180.222656 102.445312 179.109375 C 103.574219 178 104.90625 177.140625 106.457031 176.519531 C 108 175.902344 109.675781 175.597656 111.464844 175.597656 C 113.121094 175.597656 114.664062 175.875 116.070312 176.421875 C 117.484375 176.96875 118.703125 177.785156 119.734375 178.859375 C 120.765625 179.945312 121.570312 181.289062 122.152344 182.890625 C 122.734375 184.503906 123.023438 186.382812 123.023438 188.542969 Z M 117.027344 185.855469 C 117.027344 185.09375 116.921875 184.359375 116.707031 183.660156 C 116.492188 182.960938 116.152344 182.351562 115.683594 181.816406 C 115.21875 181.289062 114.628906 180.867188 113.921875 180.542969 C 113.203125 180.230469 112.371094 180.070312 111.402344 180.070312 C 109.609375 180.070312 108.089844 180.605469 106.84375 181.691406 C 105.597656 182.773438 104.90625 184.152344 104.773438 185.847656 L 117.027344 185.847656 Z M 117.027344 185.855469 " fill-opacity="1" fill-rule="nonzero"/><path fill="#ffffff" d="M 151.351562 200.199219 L 145.667969 200.199219 L 145.667969 196.617188 L 145.570312 196.617188 C 144.738281 198.011719 143.582031 199.070312 142.113281 199.804688 C 140.636719 200.53125 139.050781 200.898438 137.355469 200.898438 C 135.527344 200.898438 133.898438 200.558594 132.445312 199.875 C 131.003906 199.195312 129.777344 198.28125 128.765625 197.136719 C 127.753906 195.988281 126.972656 194.644531 126.425781 193.105469 C 125.878906 191.5625 125.601562 189.90625 125.601562 188.148438 C 125.601562 186.394531 125.878906 184.746094 126.453125 183.222656 C 127.019531 181.699219 127.816406 180.363281 128.84375 179.234375 C 129.875 178.105469 131.101562 177.21875 132.527344 176.574219 C 133.953125 175.929688 135.519531 175.605469 137.210938 175.605469 C 138.304688 175.605469 139.292969 175.734375 140.152344 175.984375 C 141.011719 176.234375 141.773438 176.539062 142.417969 176.90625 C 143.0625 177.273438 143.617188 177.667969 144.085938 178.097656 C 144.550781 178.527344 144.933594 178.949219 145.230469 179.34375 L 145.382812 179.34375 L 145.382812 165.0625 L 151.359375 165.0625 L 151.359375 200.21875 Z M 131.675781 188.140625 C 131.675781 189.070312 131.820312 190.003906 132.097656 190.925781 C 132.375 191.859375 132.804688 192.691406 133.371094 193.417969 C 133.933594 194.152344 134.652344 194.742188 135.511719 195.207031 C 136.371094 195.675781 137.382812 195.90625 138.546875 195.90625 C 139.640625 195.90625 140.625 195.683594 141.484375 195.234375 C 142.347656 194.789062 143.089844 194.195312 143.699219 193.472656 C 144.316406 192.746094 144.773438 191.921875 145.097656 191.007812 C 145.410156 190.09375 145.570312 189.171875 145.570312 188.238281 C 145.570312 187.308594 145.410156 186.375 145.097656 185.453125 C 144.78125 184.519531 144.316406 183.695312 143.699219 182.960938 C 143.082031 182.238281 142.347656 181.636719 141.484375 181.171875 C 140.625 180.703125 139.640625 180.472656 138.546875 180.472656 C 137.382812 180.472656 136.371094 180.695312 135.511719 181.144531 C 134.652344 181.589844 133.933594 182.183594 133.371094 182.910156 C 132.804688 183.644531 132.382812 184.457031 132.097656 185.371094 C 131.820312 186.285156 131.675781 187.207031 131.675781 188.140625 Z M 131.675781 188.140625 " fill-opacity="1" fill-rule="nonzero"/><path fill="#ffffff" d="M 179.9375 200.199219 L 174.257812 200.199219 L 174.257812 196.617188 L 174.160156 196.617188 C 173.324219 198.011719 172.167969 199.070312 170.699219 199.804688 C 169.222656 200.53125 167.636719 200.898438 165.941406 200.898438 C 164.117188 200.898438 162.484375 200.558594 161.035156 199.875 C 159.589844 199.195312 158.363281 198.28125 157.351562 197.136719 C 156.339844 195.988281 155.558594 194.644531 155.015625 193.105469 C 154.46875 191.5625 154.191406 189.90625 154.191406 188.148438 C 154.191406 186.394531 154.46875 184.746094 155.039062 183.222656 C 155.605469 181.699219 156.402344 180.363281 157.433594 179.234375 C 158.460938 178.105469 159.691406 177.21875 161.113281 176.574219 C 162.539062 175.929688 164.105469 175.605469 165.800781 175.605469 C 166.894531 175.605469 167.878906 175.734375 168.738281 175.984375 C 169.597656 176.234375 170.359375 176.539062 171.003906 176.90625 C 171.648438 177.273438 172.207031 177.667969 172.671875 178.097656 C 173.136719 178.527344 173.523438 178.949219 173.816406 179.34375 L 173.96875 179.34375 L 173.96875 165.0625 L 179.945312 165.0625 L 179.945312 200.21875 Z M 160.261719 188.140625 C 160.261719 189.070312 160.40625 190.003906 160.683594 190.925781 C 160.960938 191.859375 161.390625 192.691406 161.957031 193.417969 C 162.519531 194.152344 163.238281 194.742188 164.097656 195.207031 C 164.957031 195.675781 165.96875 195.90625 167.136719 195.90625 C 168.226562 195.90625 169.214844 195.683594 170.074219 195.234375 C 170.933594 194.789062 171.675781 194.195312 172.285156 193.472656 C 172.902344 192.746094 173.359375 191.921875 173.683594 191.007812 C 173.996094 190.09375 174.160156 189.171875 174.160156 188.238281 C 174.160156 187.308594 173.996094 186.375 173.683594 185.453125 C 173.371094 184.519531 172.902344 183.695312 172.285156 182.960938 C 171.667969 182.238281 170.933594 181.636719 170.074219 181.171875 C 169.214844 180.703125 168.226562 180.472656 167.136719 180.472656 C 165.96875 180.472656 164.957031 180.695312 164.097656 181.144531 C 163.238281 181.589844 162.519531 182.183594 161.957031 182.910156 C 161.390625 183.644531 160.972656 184.457031 160.683594 185.371094 C 160.40625 186.285156 160.261719 187.207031 160.261719 188.140625 Z M 160.261719 188.140625 " fill-opacity="1" fill-rule="nonzero"/><path fill="#ffffff" d="M 184.253906 168.171875 C 184.253906 167.214844 184.613281 166.371094 185.328125 165.65625 C 186.046875 164.9375 186.953125 164.578125 188.042969 164.578125 C 189.136719 164.578125 190.058594 164.917969 190.8125 165.601562 C 191.554688 166.28125 191.933594 167.132812 191.933594 168.164062 C 191.933594 169.191406 191.554688 170.042969 190.8125 170.726562 C 190.070312 171.40625 189.144531 171.746094 188.042969 171.746094 C 186.941406 171.746094 186.046875 171.386719 185.328125 170.671875 C 184.613281 169.953125 184.253906 169.121094 184.253906 168.152344 Z M 185.097656 176.289062 L 191.074219 176.289062 L 191.074219 200.199219 L 185.097656 200.199219 Z M 185.097656 176.289062 " fill-opacity="1" fill-rule="nonzero"/><path fill="#ffffff" d="M 218.953125 188.542969 L 218.953125 189.339844 C 218.953125 189.609375 218.933594 189.871094 218.898438 190.136719 L 200.722656 190.136719 C 200.785156 191 201.007812 191.785156 201.394531 192.503906 C 201.777344 193.21875 202.28125 193.828125 202.914062 194.347656 C 203.542969 194.867188 204.257812 195.273438 205.058594 195.566406 C 205.855469 195.863281 206.6875 196.015625 207.546875 196.015625 C 209.042969 196.015625 210.304688 195.738281 211.335938 195.191406 C 212.367188 194.644531 213.210938 193.890625 213.882812 192.925781 L 217.867188 196.113281 C 215.511719 199.304688 212.089844 200.898438 207.609375 200.898438 C 205.746094 200.898438 204.035156 200.601562 202.476562 200.027344 C 200.917969 199.445312 199.566406 198.621094 198.417969 197.566406 C 197.273438 196.5 196.375 195.199219 195.730469 193.660156 C 195.085938 192.117188 194.761719 190.363281 194.761719 188.398438 C 194.761719 186.4375 195.085938 184.71875 195.730469 183.140625 C 196.375 181.566406 197.261719 180.222656 198.402344 179.109375 C 199.527344 178 200.863281 177.140625 202.414062 176.519531 C 203.953125 175.902344 205.628906 175.597656 207.421875 175.597656 C 209.078125 175.597656 210.621094 175.875 212.027344 176.421875 C 213.433594 176.96875 214.660156 177.785156 215.691406 178.859375 C 216.722656 179.945312 217.527344 181.289062 218.109375 182.890625 C 218.691406 184.503906 218.976562 186.382812 218.976562 188.542969 Z M 212.976562 185.855469 C 212.976562 185.09375 212.867188 184.359375 212.652344 183.660156 C 212.4375 182.960938 212.097656 182.351562 211.632812 181.816406 C 211.167969 181.289062 210.574219 180.867188 209.867188 180.542969 C 209.152344 180.230469 208.316406 180.070312 207.351562 180.070312 C 205.558594 180.070312 204.035156 180.605469 202.789062 181.691406 C 201.546875 182.773438 200.855469 184.152344 200.722656 185.847656 L 212.976562 185.847656 Z M 212.976562 185.855469 " fill-opacity="1" fill-rule="nonzero"/><path fill="#ffffff" d="M 227.023438 164.9375 L 236.832031 164.9375 L 245.996094 189.996094 L 246.148438 189.996094 L 255.214844 164.9375 L 265.078125 164.9375 L 265.078125 200.199219 L 258.851562 200.199219 L 258.851562 171.855469 L 258.753906 171.855469 L 248.050781 200.199219 L 243.667969 200.199219 L 233.105469 171.855469 L 233.007812 171.855469 L 233.007812 200.199219 L 227.03125 200.199219 L 227.03125 164.9375 Z M 227.023438 164.9375 " fill-opacity="1" fill-rule="nonzero"/><path fill="#ffffff" d="M 285.183594 197.160156 L 285.03125 197.160156 C 284.429688 198.226562 283.472656 199.097656 282.136719 199.777344 C 280.8125 200.457031 279.296875 200.800781 277.605469 200.800781 C 276.636719 200.800781 275.632812 200.671875 274.59375 200.421875 C 273.546875 200.171875 272.585938 199.761719 271.710938 199.175781 C 270.832031 198.59375 270.097656 197.832031 269.515625 196.882812 C 268.933594 195.933594 268.644531 194.769531 268.644531 193.371094 C 268.644531 191.582031 269.148438 190.15625 270.167969 189.089844 C 271.179688 188.023438 272.488281 187.21875 274.074219 186.652344 C 275.667969 186.089844 277.433594 185.710938 279.378906 185.535156 C 281.320312 185.355469 283.222656 185.257812 285.085938 185.257812 L 285.085938 184.65625 C 285.085938 183.160156 284.546875 182.058594 283.464844 181.339844 C 282.386719 180.625 281.097656 180.265625 279.601562 180.265625 C 278.339844 180.265625 277.128906 180.535156 275.964844 181.0625 C 274.800781 181.589844 273.839844 182.246094 273.078125 183.007812 L 269.988281 179.371094 C 271.351562 178.105469 272.917969 177.167969 274.691406 176.53125 C 276.464844 175.902344 278.265625 175.582031 280.09375 175.582031 C 282.21875 175.582031 283.972656 175.875 285.351562 176.476562 C 286.734375 177.078125 287.816406 177.855469 288.613281 178.816406 C 289.410156 179.78125 289.96875 180.855469 290.28125 182.046875 C 290.59375 183.238281 290.753906 184.441406 290.753906 185.632812 L 290.753906 200.179688 L 285.175781 200.179688 L 285.175781 197.144531 Z M 285.085938 189.296875 L 283.742188 189.296875 C 282.78125 189.296875 281.761719 189.339844 280.703125 189.421875 C 279.636719 189.503906 278.660156 189.691406 277.765625 189.96875 C 276.871094 190.253906 276.125 190.648438 275.527344 191.160156 C 274.925781 191.679688 274.628906 192.378906 274.628906 193.273438 C 274.628906 193.839844 274.753906 194.3125 275.007812 194.6875 C 275.257812 195.074219 275.578125 195.378906 275.972656 195.613281 C 276.375 195.84375 276.824219 196.007812 277.316406 196.113281 C 277.808594 196.222656 278.3125 196.265625 278.8125 196.265625 C 280.875 196.265625 282.433594 195.71875 283.5 194.625 C 284.566406 193.535156 285.09375 192.039062 285.09375 190.148438 L 285.09375 189.296875 Z M 285.085938 189.296875 " fill-opacity="1" fill-rule="nonzero"/><path fill="#ffffff" d="M 311.863281 182.917969 C 311.394531 182.253906 310.695312 181.699219 309.765625 181.25 C 308.832031 180.804688 307.894531 180.578125 306.925781 180.578125 C 305.832031 180.578125 304.863281 180.804688 304.03125 181.25 C 303.199219 181.699219 302.507812 182.289062 301.960938 183.015625 C 301.417969 183.75 301.003906 184.566406 300.746094 185.480469 C 300.476562 186.394531 300.339844 187.316406 300.339844 188.25 C 300.339844 189.179688 300.484375 190.101562 300.761719 191.015625 C 301.039062 191.929688 301.46875 192.753906 302.035156 193.480469 C 302.597656 194.214844 303.304688 194.796875 304.148438 195.246094 C 305 195.691406 305.984375 195.917969 307.113281 195.917969 C 308.046875 195.917969 308.976562 195.738281 309.898438 195.371094 C 310.832031 195.003906 311.574219 194.472656 312.140625 193.777344 L 315.875 197.566406 C 314.882812 198.632812 313.609375 199.445312 312.066406 200.027344 C 310.527344 200.609375 308.851562 200.898438 307.058594 200.898438 C 305.269531 200.898438 303.628906 200.609375 302.050781 200.046875 C 300.476562 199.480469 299.097656 198.648438 297.921875 197.554688 C 296.738281 196.464844 295.816406 195.128906 295.136719 193.570312 C 294.457031 192.011719 294.113281 190.226562 294.113281 188.238281 C 294.113281 186.25 294.457031 184.566406 295.136719 183.007812 C 295.816406 181.449219 296.738281 180.121094 297.90625 179.019531 C 299.070312 177.925781 300.421875 177.078125 301.960938 176.476562 C 303.503906 175.875 305.160156 175.582031 306.917969 175.582031 C 308.671875 175.582031 310.375 175.910156 312.023438 176.574219 C 313.664062 177.238281 314.96875 178.152344 315.929688 179.316406 L 311.84375 182.898438 Z M 311.863281 182.917969 " fill-opacity="1" fill-rule="nonzero"/><g clip-path="url(#9bd0e8e543)"><path fill="#ffffff" d="M 136.855469 165.054688 L 136.855469 157.589844 L 113.617188 142.46875 L 90.367188 157.589844 L 90.367188 165.054688 L 113.617188 149.859375 Z M 136.855469 165.054688 " fill-opacity="1" fill-rule="nonzero"/></g><g clip-path="url(#13af399c37)"><path fill="#ffffff" d="M 130.484375 151.527344 L 130.484375 142.46875 L 124.105469 142.46875 L 124.105469 147.378906 Z M 130.484375 151.527344 " fill-opacity="1" fill-rule="nonzero"/></g><path fill="#ffffff" d="M 80.738281 224.59375 L 80.78125 224.59375 L 84.214844 212.9375 L 86.460938 212.9375 L 89.875 224.59375 L 89.921875 224.59375 L 93.144531 212.9375 L 95.3125 212.9375 L 91.011719 227.566406 L 88.882812 227.566406 L 85.324219 215.8125 L 85.28125 215.8125 L 81.722656 227.566406 L 79.589844 227.566406 L 75.289062 212.9375 L 77.503906 212.9375 L 80.730469 224.59375 Z M 80.738281 224.59375 " fill-opacity="1" fill-rule="nonzero"/><path fill="#ffffff" d="M 104.78125 222.585938 L 104.78125 222.917969 C 104.78125 223.027344 104.78125 223.140625 104.765625 223.25 L 96.980469 223.25 C 96.996094 223.660156 97.085938 224.046875 97.257812 224.40625 C 97.425781 224.761719 97.660156 225.085938 97.945312 225.347656 C 98.234375 225.613281 98.574219 225.820312 98.949219 225.972656 C 99.328125 226.125 99.730469 226.195312 100.160156 226.195312 C 100.824219 226.195312 101.394531 226.054688 101.871094 225.765625 C 102.355469 225.480469 102.730469 225.128906 103.007812 224.710938 L 104.371094 225.804688 C 103.851562 226.492188 103.234375 227.003906 102.523438 227.335938 C 101.816406 227.667969 101.027344 227.828125 100.160156 227.828125 C 99.417969 227.828125 98.726562 227.703125 98.089844 227.449219 C 97.453125 227.199219 96.917969 226.859375 96.460938 226.410156 C 96.003906 225.964844 95.644531 225.425781 95.386719 224.789062 C 95.125 224.15625 94.992188 223.457031 94.992188 222.683594 C 94.992188 221.914062 95.117188 221.226562 95.375 220.589844 C 95.636719 219.953125 95.984375 219.398438 96.441406 218.949219 C 96.898438 218.492188 97.4375 218.144531 98.054688 217.882812 C 98.671875 217.625 99.34375 217.5 100.0625 217.5 C 100.777344 217.5 101.433594 217.613281 102.015625 217.847656 C 102.597656 218.082031 103.097656 218.421875 103.5 218.859375 C 103.90625 219.296875 104.226562 219.835938 104.441406 220.464844 C 104.65625 221.089844 104.773438 221.796875 104.773438 222.578125 Z M 102.800781 221.796875 C 102.785156 221.414062 102.722656 221.054688 102.605469 220.714844 C 102.488281 220.375 102.320312 220.085938 102.085938 219.835938 C 101.863281 219.585938 101.574219 219.386719 101.234375 219.246094 C 100.894531 219.101562 100.5 219.03125 100.042969 219.03125 C 99.632812 219.03125 99.238281 219.101562 98.878906 219.246094 C 98.511719 219.386719 98.199219 219.585938 97.929688 219.835938 C 97.660156 220.085938 97.4375 220.375 97.265625 220.714844 C 97.097656 221.054688 96.996094 221.414062 96.96875 221.796875 Z M 102.800781 221.796875 " fill-opacity="1" fill-rule="nonzero"/><path fill="#ffffff" d="M 114.691406 218.054688 C 115.238281 217.6875 115.882812 217.507812 116.625 217.507812 C 117.289062 217.507812 117.878906 217.660156 118.410156 217.964844 C 118.9375 218.269531 119.359375 218.769531 119.664062 219.46875 C 119.996094 218.832031 120.453125 218.347656 121.050781 218.007812 C 121.644531 217.667969 122.289062 217.507812 122.996094 217.507812 C 123.632812 217.507812 124.167969 217.613281 124.625 217.828125 C 125.082031 218.042969 125.460938 218.332031 125.765625 218.691406 C 126.066406 219.046875 126.292969 219.46875 126.4375 219.953125 C 126.578125 220.4375 126.652344 220.957031 126.652344 221.503906 L 126.652344 227.578125 L 124.707031 227.578125 L 124.707031 222.136719 C 124.707031 221.734375 124.671875 221.359375 124.597656 221 C 124.527344 220.640625 124.410156 220.328125 124.25 220.050781 C 124.089844 219.773438 123.863281 219.558594 123.585938 219.386719 C 123.308594 219.226562 122.960938 219.136719 122.53125 219.136719 C 122.101562 219.136719 121.714844 219.226562 121.390625 219.414062 C 121.070312 219.601562 120.820312 219.84375 120.621094 220.140625 C 120.425781 220.4375 120.273438 220.769531 120.191406 221.144531 C 120.101562 221.511719 120.058594 221.898438 120.058594 222.28125 L 120.058594 227.566406 L 118.113281 227.566406 L 118.113281 221.746094 C 118.113281 221.359375 118.078125 221.011719 118.003906 220.6875 C 117.933594 220.375 117.816406 220.097656 117.65625 219.871094 C 117.496094 219.648438 117.28125 219.46875 117.019531 219.335938 C 116.761719 219.199219 116.4375 219.136719 116.050781 219.136719 C 115.335938 219.136719 114.746094 219.433594 114.269531 220.015625 C 113.796875 220.597656 113.554688 221.386719 113.554688 222.363281 L 113.554688 227.566406 L 111.609375 227.566406 L 111.609375 219.882812 C 111.609375 219.621094 111.609375 219.28125 111.589844 218.867188 C 111.574219 218.457031 111.554688 218.089844 111.527344 217.777344 L 113.363281 217.777344 C 113.390625 218.027344 113.410156 218.304688 113.425781 218.609375 C 113.445312 218.914062 113.445312 219.171875 113.445312 219.378906 L 113.507812 219.378906 C 113.757812 218.859375 114.152344 218.410156 114.699219 218.042969 Z M 114.691406 218.054688 " fill-opacity="1" fill-rule="nonzero"/><path fill="#ffffff" d="M 135.511719 221.226562 C 135.511719 220.5 135.285156 219.953125 134.847656 219.601562 C 134.410156 219.253906 133.816406 219.074219 133.09375 219.074219 C 132.535156 219.074219 132.015625 219.183594 131.53125 219.398438 C 131.050781 219.613281 130.636719 219.882812 130.304688 220.210938 L 129.277344 218.976562 C 129.757812 218.519531 130.339844 218.160156 131.039062 217.902344 C 131.738281 217.640625 132.484375 217.507812 133.28125 217.507812 C 133.980469 217.507812 134.589844 217.605469 135.109375 217.800781 C 135.628906 218 136.046875 218.277344 136.378906 218.617188 C 136.710938 218.957031 136.960938 219.371094 137.125 219.835938 C 137.285156 220.300781 137.375 220.804688 137.375 221.339844 L 137.375 225.613281 C 137.375 225.945312 137.382812 226.296875 137.410156 226.652344 C 137.429688 227.019531 137.464844 227.316406 137.527344 227.550781 L 135.769531 227.550781 C 135.664062 227.082031 135.609375 226.609375 135.609375 226.144531 L 135.546875 226.144531 C 135.1875 226.664062 134.742188 227.074219 134.195312 227.363281 C 133.648438 227.648438 133.003906 227.792969 132.257812 227.792969 C 131.875 227.792969 131.46875 227.738281 131.050781 227.640625 C 130.628906 227.53125 130.242188 227.371094 129.902344 227.136719 C 129.5625 226.90625 129.277344 226.589844 129.042969 226.207031 C 128.808594 225.820312 128.703125 225.347656 128.703125 224.78125 C 128.703125 224.039062 128.898438 223.445312 129.300781 223.015625 C 129.707031 222.585938 130.226562 222.253906 130.871094 222.023438 C 131.515625 221.796875 132.25 221.644531 133.054688 221.574219 C 133.871094 221.503906 134.6875 221.464844 135.511719 221.464844 L 135.511719 221.199219 Z M 135.035156 222.898438 C 134.550781 222.898438 134.050781 222.917969 133.539062 222.960938 C 133.027344 223.007812 132.554688 223.089844 132.132812 223.214844 C 131.710938 223.339844 131.363281 223.527344 131.09375 223.769531 C 130.816406 224.019531 130.683594 224.351562 130.683594 224.761719 C 130.683594 225.050781 130.734375 225.292969 130.859375 225.488281 C 130.976562 225.6875 131.128906 225.839844 131.328125 225.964844 C 131.515625 226.089844 131.730469 226.171875 131.964844 226.222656 C 132.195312 226.269531 132.4375 226.296875 132.6875 226.296875 C 133.59375 226.296875 134.292969 226.027344 134.785156 225.480469 C 135.277344 224.933594 135.519531 224.253906 135.519531 223.429688 L 135.519531 222.910156 L 135.042969 222.910156 Z M 135.035156 222.898438 " fill-opacity="1" fill-rule="nonzero"/><path fill="#ffffff" d="M 142.078125 222.03125 L 142.140625 222.03125 L 146.253906 217.777344 L 148.859375 217.777344 L 144.273438 222.21875 L 149.253906 227.566406 L 146.566406 227.566406 L 142.140625 222.488281 L 142.078125 222.488281 L 142.078125 227.566406 L 140.132812 227.566406 L 140.132812 211.945312 L 142.078125 211.945312 Z M 142.078125 222.03125 " fill-opacity="1" fill-rule="nonzero"/><path fill="#ffffff" d="M 159.25 222.585938 L 159.25 222.917969 C 159.25 223.027344 159.25 223.140625 159.234375 223.25 L 151.449219 223.25 C 151.464844 223.660156 151.554688 224.046875 151.726562 224.40625 C 151.894531 224.761719 152.128906 225.085938 152.414062 225.347656 C 152.703125 225.613281 153.042969 225.820312 153.417969 225.972656 C 153.796875 226.125 154.199219 226.195312 154.628906 226.195312 C 155.292969 226.195312 155.863281 226.054688 156.339844 225.765625 C 156.824219 225.480469 157.199219 225.128906 157.476562 224.710938 L 158.839844 225.804688 C 158.320312 226.492188 157.703125 227.003906 156.992188 227.335938 C 156.285156 227.667969 155.496094 227.828125 154.628906 227.828125 C 153.886719 227.828125 153.195312 227.703125 152.558594 227.449219 C 151.921875 227.199219 151.386719 226.859375 150.929688 226.410156 C 150.472656 225.964844 150.113281 225.425781 149.855469 224.789062 C 149.59375 224.15625 149.460938 223.457031 149.460938 222.683594 C 149.460938 221.914062 149.585938 221.226562 149.84375 220.589844 C 150.105469 219.953125 150.453125 219.398438 150.910156 218.949219 C 151.367188 218.492188 151.90625 218.144531 152.523438 217.882812 C 153.140625 217.625 153.8125 217.5 154.53125 217.5 C 155.246094 217.5 155.902344 217.613281 156.484375 217.847656 C 157.066406 218.082031 157.566406 218.421875 157.96875 218.859375 C 158.375 219.296875 158.695312 219.835938 158.910156 220.464844 C 159.125 221.089844 159.242188 221.796875 159.242188 222.578125 Z M 157.269531 221.796875 C 157.253906 221.414062 157.191406 221.054688 157.074219 220.714844 C 156.957031 220.375 156.789062 220.085938 156.554688 219.835938 C 156.332031 219.585938 156.042969 219.386719 155.703125 219.246094 C 155.363281 219.101562 154.96875 219.03125 154.511719 219.03125 C 154.101562 219.03125 153.707031 219.101562 153.347656 219.246094 C 152.980469 219.386719 152.667969 219.585938 152.398438 219.835938 C 152.128906 220.085938 151.90625 220.375 151.734375 220.714844 C 151.566406 221.054688 151.464844 221.414062 151.4375 221.796875 Z M 157.269531 221.796875 " fill-opacity="1" fill-rule="nonzero"/><path fill="#ffffff" d="M 168.09375 219.261719 C 168.328125 218.777344 168.730469 218.367188 169.292969 218.027344 C 169.859375 217.6875 170.496094 217.507812 171.191406 217.507812 C 171.828125 217.507812 172.367188 217.613281 172.824219 217.828125 C 173.28125 218.042969 173.65625 218.332031 173.960938 218.691406 C 174.265625 219.046875 174.488281 219.46875 174.632812 219.953125 C 174.777344 220.4375 174.847656 220.957031 174.847656 221.503906 L 174.847656 227.578125 L 172.902344 227.578125 L 172.902344 222.148438 C 172.902344 221.746094 172.867188 221.367188 172.816406 221.011719 C 172.75 220.652344 172.636719 220.339844 172.472656 220.058594 C 172.304688 219.78125 172.078125 219.558594 171.800781 219.398438 C 171.523438 219.234375 171.148438 219.144531 170.699219 219.144531 C 169.929688 219.144531 169.292969 219.441406 168.800781 220.023438 C 168.308594 220.605469 168.058594 221.394531 168.058594 222.371094 L 168.058594 227.566406 L 166.113281 227.566406 L 166.113281 211.945312 L 168.058594 211.945312 L 168.058594 219.253906 L 168.101562 219.253906 Z M 168.09375 219.261719 " fill-opacity="1" fill-rule="nonzero"/><path fill="#ffffff" d="M 187.535156 222.648438 C 187.535156 223.410156 187.398438 224.101562 187.128906 224.738281 C 186.863281 225.371094 186.496094 225.917969 186.011719 226.375 C 185.527344 226.832031 184.972656 227.191406 184.328125 227.449219 C 183.679688 227.710938 182.984375 227.835938 182.238281 227.835938 C 181.496094 227.835938 180.796875 227.710938 180.152344 227.449219 C 179.507812 227.191406 178.941406 226.84375 178.476562 226.375 C 178.011719 225.910156 177.644531 225.363281 177.375 224.738281 C 177.105469 224.101562 176.972656 223.410156 176.972656 222.648438 C 176.972656 221.886719 177.105469 221.199219 177.375 220.570312 C 177.644531 219.945312 178.011719 219.40625 178.476562 218.949219 C 178.941406 218.492188 179.507812 218.144531 180.152344 217.882812 C 180.796875 217.625 181.496094 217.5 182.238281 217.5 C 182.984375 217.5 183.679688 217.625 184.328125 217.882812 C 184.972656 218.144531 185.535156 218.492188 186.011719 218.949219 C 186.484375 219.40625 186.863281 219.945312 187.128906 220.570312 C 187.398438 221.199219 187.535156 221.886719 187.535156 222.648438 Z M 185.507812 222.660156 C 185.507812 222.191406 185.4375 221.746094 185.292969 221.324219 C 185.152344 220.894531 184.9375 220.527344 184.65625 220.203125 C 184.378906 219.882812 184.039062 219.621094 183.628906 219.433594 C 183.214844 219.246094 182.75 219.144531 182.230469 219.144531 C 181.710938 219.144531 181.234375 219.246094 180.832031 219.433594 C 180.429688 219.621094 180.078125 219.882812 179.800781 220.203125 C 179.523438 220.527344 179.320312 220.902344 179.167969 221.324219 C 179.023438 221.746094 178.953125 222.191406 178.953125 222.660156 C 178.953125 223.125 179.023438 223.570312 179.167969 223.992188 C 179.308594 224.421875 179.523438 224.800781 179.800781 225.128906 C 180.078125 225.460938 180.421875 225.722656 180.832031 225.910156 C 181.246094 226.097656 181.710938 226.195312 182.230469 226.195312 C 182.75 226.195312 183.222656 226.097656 183.628906 225.910156 C 184.03125 225.722656 184.378906 225.453125 184.65625 225.128906 C 184.9375 224.800781 185.140625 224.421875 185.292969 223.992188 C 185.4375 223.570312 185.507812 223.125 185.507812 222.660156 Z M 185.507812 222.660156 " fill-opacity="1" fill-rule="nonzero"/><path fill="#ffffff" d="M 192.792969 218.054688 C 193.339844 217.6875 193.984375 217.507812 194.726562 217.507812 C 195.390625 217.507812 195.980469 217.660156 196.511719 217.964844 C 197.039062 218.269531 197.460938 218.769531 197.765625 219.46875 C 198.097656 218.832031 198.554688 218.347656 199.152344 218.007812 C 199.746094 217.667969 200.390625 217.507812 201.097656 217.507812 C 201.734375 217.507812 202.269531 217.613281 202.726562 217.828125 C 203.183594 218.042969 203.5625 218.332031 203.867188 218.691406 C 204.167969 219.046875 204.394531 219.46875 204.539062 219.953125 C 204.679688 220.4375 204.753906 220.957031 204.753906 221.503906 L 204.753906 227.578125 L 202.808594 227.578125 L 202.808594 222.136719 C 202.808594 221.734375 202.773438 221.359375 202.699219 221 C 202.628906 220.640625 202.511719 220.328125 202.351562 220.050781 C 202.191406 219.773438 201.964844 219.558594 201.6875 219.386719 C 201.410156 219.226562 201.0625 219.136719 200.632812 219.136719 C 200.203125 219.136719 199.816406 219.226562 199.492188 219.414062 C 199.171875 219.601562 198.921875 219.84375 198.722656 220.140625 C 198.527344 220.4375 198.375 220.769531 198.292969 221.144531 C 198.203125 221.511719 198.160156 221.898438 198.160156 222.28125 L 198.160156 227.566406 L 196.214844 227.566406 L 196.214844 221.746094 C 196.214844 221.359375 196.179688 221.011719 196.105469 220.6875 C 196.035156 220.375 195.917969 220.097656 195.757812 219.871094 C 195.597656 219.648438 195.382812 219.46875 195.121094 219.335938 C 194.863281 219.199219 194.539062 219.136719 194.152344 219.136719 C 193.4375 219.136719 192.847656 219.433594 192.371094 220.015625 C 191.898438 220.597656 191.65625 221.386719 191.65625 222.363281 L 191.65625 227.566406 L 189.710938 227.566406 L 189.710938 219.882812 C 189.710938 219.621094 189.710938 219.28125 189.691406 218.867188 C 189.675781 218.457031 189.65625 218.089844 189.628906 217.777344 L 191.464844 217.777344 C 191.492188 218.027344 191.511719 218.304688 191.527344 218.609375 C 191.546875 218.914062 191.546875 219.171875 191.546875 219.378906 L 191.609375 219.378906 C 191.859375 218.859375 192.253906 218.410156 192.800781 218.042969 Z M 192.792969 218.054688 " fill-opacity="1" fill-rule="nonzero"/><path fill="#ffffff" d="M 216.667969 222.585938 L 216.667969 222.917969 C 216.667969 223.027344 216.667969 223.140625 216.648438 223.25 L 208.863281 223.25 C 208.882812 223.660156 208.972656 224.046875 209.140625 224.40625 C 209.3125 224.761719 209.546875 225.085938 209.832031 225.347656 C 210.117188 225.613281 210.457031 225.820312 210.835938 225.972656 C 211.210938 226.125 211.613281 226.195312 212.042969 226.195312 C 212.707031 226.195312 213.28125 226.054688 213.753906 225.765625 C 214.238281 225.480469 214.617188 225.128906 214.894531 224.710938 L 216.253906 225.804688 C 215.734375 226.492188 215.117188 227.003906 214.410156 227.335938 C 213.703125 227.667969 212.914062 227.828125 212.042969 227.828125 C 211.300781 227.828125 210.609375 227.703125 209.976562 227.449219 C 209.339844 227.199219 208.800781 226.859375 208.34375 226.410156 C 207.886719 225.964844 207.53125 225.425781 207.269531 224.789062 C 207.011719 224.15625 206.875 223.457031 206.875 222.683594 C 206.875 221.914062 207 221.226562 207.261719 220.589844 C 207.519531 219.953125 207.871094 219.398438 208.328125 218.949219 C 208.785156 218.492188 209.320312 218.144531 209.9375 217.882812 C 210.558594 217.625 211.230469 217.5 211.945312 217.5 C 212.664062 217.5 213.316406 217.613281 213.898438 217.847656 C 214.480469 218.082031 214.984375 218.421875 215.386719 218.859375 C 215.789062 219.296875 216.113281 219.835938 216.328125 220.464844 C 216.542969 221.089844 216.660156 221.796875 216.660156 222.578125 Z M 214.6875 221.796875 C 214.667969 221.414062 214.605469 221.054688 214.488281 220.714844 C 214.375 220.375 214.203125 220.085938 213.96875 219.835938 C 213.746094 219.585938 213.460938 219.386719 213.121094 219.246094 C 212.777344 219.101562 212.386719 219.03125 211.929688 219.03125 C 211.515625 219.03125 211.121094 219.101562 210.761719 219.246094 C 210.394531 219.386719 210.082031 219.585938 209.8125 219.835938 C 209.546875 220.085938 209.320312 220.375 209.152344 220.714844 C 208.980469 221.054688 208.882812 221.414062 208.855469 221.796875 Z M 214.6875 221.796875 " fill-opacity="1" fill-rule="nonzero"/><g clip-path="url(#efe1c64115)"><path fill="#ffffff" d="M 225.429688 232.523438 L 223.484375 232.523438 L 223.484375 217.765625 L 225.382812 217.765625 L 225.382812 219.296875 L 225.445312 219.296875 C 225.761719 218.777344 226.226562 218.347656 226.835938 218.007812 C 227.445312 217.667969 228.160156 217.507812 228.96875 217.507812 C 229.691406 217.507812 230.355469 217.640625 230.957031 217.902344 C 231.554688 218.160156 232.066406 218.527344 232.507812 218.996094 C 232.9375 219.460938 233.269531 220.007812 233.507812 220.632812 C 233.742188 221.261719 233.859375 221.933594 233.859375 222.648438 C 233.859375 223.367188 233.742188 224.039062 233.507812 224.675781 C 233.277344 225.308594 232.945312 225.855469 232.523438 226.332031 C 232.101562 226.804688 231.582031 227.164062 230.972656 227.433594 C 230.375 227.703125 229.691406 227.835938 228.929688 227.835938 C 228.234375 227.835938 227.570312 227.683594 226.953125 227.378906 C 226.332031 227.074219 225.839844 226.652344 225.492188 226.097656 L 225.429688 226.097656 Z M 231.878906 222.648438 C 231.878906 222.191406 231.808594 221.753906 231.671875 221.324219 C 231.539062 220.894531 231.332031 220.515625 231.054688 220.1875 C 230.777344 219.855469 230.4375 219.59375 230.035156 219.398438 C 229.628906 219.210938 229.15625 219.109375 228.617188 219.109375 C 228.125 219.109375 227.667969 219.210938 227.265625 219.398438 C 226.863281 219.59375 226.511719 219.855469 226.21875 220.1875 C 225.921875 220.515625 225.707031 220.894531 225.546875 221.324219 C 225.382812 221.753906 225.304688 222.203125 225.304688 222.667969 C 225.304688 223.132812 225.382812 223.582031 225.546875 224.011719 C 225.707031 224.441406 225.929688 224.816406 226.21875 225.140625 C 226.503906 225.460938 226.851562 225.722656 227.265625 225.917969 C 227.667969 226.105469 228.125 226.207031 228.617188 226.207031 C 229.15625 226.207031 229.628906 226.105469 230.035156 225.910156 C 230.4375 225.714844 230.777344 225.445312 231.054688 225.113281 C 231.332031 224.78125 231.539062 224.40625 231.671875 223.976562 C 231.808594 223.546875 231.878906 223.105469 231.878906 222.648438 Z M 231.878906 222.648438 " fill-opacity="1" fill-rule="nonzero"/></g><path fill="#ffffff" d="M 245.988281 222.648438 C 245.988281 223.410156 245.855469 224.101562 245.585938 224.738281 C 245.316406 225.371094 244.949219 225.917969 244.464844 226.375 C 243.980469 226.832031 243.425781 227.191406 242.78125 227.449219 C 242.136719 227.710938 241.4375 227.835938 240.695312 227.835938 C 239.949219 227.835938 239.25 227.710938 238.605469 227.449219 C 237.960938 227.191406 237.398438 226.84375 236.933594 226.375 C 236.464844 225.910156 236.097656 225.363281 235.828125 224.738281 C 235.5625 224.101562 235.425781 223.410156 235.425781 222.648438 C 235.425781 221.886719 235.5625 221.199219 235.828125 220.570312 C 236.097656 219.945312 236.464844 219.40625 236.933594 218.949219 C 237.398438 218.492188 237.960938 218.144531 238.605469 217.882812 C 239.25 217.625 239.949219 217.5 240.695312 217.5 C 241.4375 217.5 242.136719 217.625 242.78125 217.882812 C 243.425781 218.144531 243.992188 218.492188 244.464844 218.949219 C 244.941406 219.40625 245.316406 219.945312 245.585938 220.570312 C 245.855469 221.199219 245.988281 221.886719 245.988281 222.648438 Z M 243.964844 222.660156 C 243.964844 222.191406 243.890625 221.746094 243.75 221.324219 C 243.605469 220.894531 243.390625 220.527344 243.113281 220.203125 C 242.835938 219.882812 242.496094 219.621094 242.082031 219.433594 C 241.671875 219.246094 241.203125 219.144531 240.683594 219.144531 C 240.164062 219.144531 239.691406 219.246094 239.289062 219.433594 C 238.882812 219.621094 238.535156 219.882812 238.257812 220.203125 C 237.980469 220.527344 237.773438 220.902344 237.621094 221.324219 C 237.476562 221.746094 237.40625 222.191406 237.40625 222.660156 C 237.40625 223.125 237.476562 223.570312 237.621094 223.992188 C 237.765625 224.421875 237.980469 224.800781 238.257812 225.128906 C 238.535156 225.460938 238.875 225.722656 239.289062 225.910156 C 239.699219 226.097656 240.164062 226.195312 240.683594 226.195312 C 241.203125 226.195312 241.679688 226.097656 242.082031 225.910156 C 242.484375 225.722656 242.835938 225.453125 243.113281 225.128906 C 243.390625 224.800781 243.597656 224.421875 243.75 223.992188 C 243.890625 223.570312 243.964844 223.125 243.964844 222.660156 Z M 243.964844 222.660156 " fill-opacity="1" fill-rule="nonzero"/><path fill="#ffffff" d="M 253.453125 220.257812 C 253.226562 219.898438 252.921875 219.601562 252.519531 219.378906 C 252.117188 219.15625 251.667969 219.039062 251.175781 219.039062 C 250.953125 219.039062 250.738281 219.066406 250.511719 219.109375 C 250.289062 219.15625 250.101562 219.234375 249.921875 219.335938 C 249.75 219.441406 249.609375 219.566406 249.507812 219.730469 C 249.410156 219.890625 249.355469 220.085938 249.355469 220.320312 C 249.355469 220.730469 249.546875 221.035156 249.914062 221.242188 C 250.28125 221.449219 250.84375 221.628906 251.589844 221.789062 C 252.054688 221.898438 252.492188 222.03125 252.886719 222.183594 C 253.289062 222.335938 253.628906 222.523438 253.925781 222.746094 C 254.222656 222.972656 254.453125 223.25 254.617188 223.5625 C 254.777344 223.875 254.867188 224.253906 254.867188 224.683594 C 254.867188 225.265625 254.757812 225.75 254.535156 226.152344 C 254.3125 226.554688 254.023438 226.878906 253.65625 227.136719 C 253.289062 227.398438 252.878906 227.578125 252.402344 227.683594 C 251.929688 227.792969 251.453125 227.84375 250.960938 227.84375 C 250.21875 227.84375 249.492188 227.703125 248.785156 227.414062 C 248.078125 227.128906 247.484375 226.691406 247.019531 226.089844 L 248.40625 224.914062 C 248.667969 225.300781 249.027344 225.625 249.492188 225.882812 C 249.957031 226.144531 250.460938 226.277344 251.003906 226.277344 C 251.257812 226.277344 251.488281 226.25 251.722656 226.207031 C 251.957031 226.160156 252.152344 226.082031 252.339844 225.964844 C 252.527344 225.847656 252.671875 225.714844 252.789062 225.535156 C 252.894531 225.355469 252.957031 225.128906 252.957031 224.851562 C 252.957031 224.394531 252.742188 224.066406 252.304688 223.839844 C 251.875 223.617188 251.230469 223.410156 250.398438 223.222656 C 250.066406 223.140625 249.734375 223.042969 249.394531 222.925781 C 249.054688 222.8125 248.75 222.648438 248.46875 222.441406 C 248.191406 222.238281 247.96875 221.976562 247.796875 221.671875 C 247.628906 221.359375 247.539062 220.984375 247.539062 220.527344 C 247.539062 220.007812 247.644531 219.550781 247.859375 219.171875 C 248.078125 218.796875 248.355469 218.484375 248.695312 218.242188 C 249.035156 218 249.429688 217.820312 249.867188 217.703125 C 250.308594 217.585938 250.765625 217.523438 251.230469 217.523438 C 251.929688 217.523438 252.609375 217.660156 253.261719 217.9375 C 253.917969 218.214844 254.429688 218.609375 254.777344 219.136719 L 253.433594 220.273438 Z M 253.453125 220.257812 " fill-opacity="1" fill-rule="nonzero"/><path fill="#ffffff" d="M 262.105469 220.257812 C 261.882812 219.898438 261.578125 219.601562 261.171875 219.378906 C 260.769531 219.15625 260.324219 219.039062 259.828125 219.039062 C 259.605469 219.039062 259.390625 219.066406 259.167969 219.109375 C 258.941406 219.15625 258.753906 219.234375 258.574219 219.335938 C 258.40625 219.441406 258.261719 219.566406 258.164062 219.730469 C 258.066406 219.890625 258.011719 220.085938 258.011719 220.320312 C 258.011719 220.730469 258.199219 221.035156 258.566406 221.242188 C 258.933594 221.449219 259.5 221.628906 260.242188 221.789062 C 260.707031 221.898438 261.148438 222.03125 261.542969 222.183594 C 261.945312 222.335938 262.285156 222.523438 262.582031 222.746094 C 262.875 222.972656 263.109375 223.25 263.269531 223.5625 C 263.429688 223.875 263.519531 224.253906 263.519531 224.683594 C 263.519531 225.265625 263.414062 225.75 263.191406 226.152344 C 262.964844 226.554688 262.679688 226.878906 262.3125 227.136719 C 261.945312 227.398438 261.53125 227.578125 261.058594 227.683594 C 260.582031 227.792969 260.109375 227.84375 259.613281 227.84375 C 258.871094 227.84375 258.144531 227.703125 257.4375 227.414062 C 256.730469 227.128906 256.140625 226.691406 255.671875 226.089844 L 257.0625 224.914062 C 257.320312 225.300781 257.679688 225.625 258.144531 225.882812 C 258.613281 226.144531 259.113281 226.277344 259.660156 226.277344 C 259.910156 226.277344 260.144531 226.25 260.375 226.207031 C 260.609375 226.160156 260.804688 226.082031 260.996094 225.964844 C 261.183594 225.847656 261.324219 225.714844 261.441406 225.535156 C 261.550781 225.355469 261.613281 225.128906 261.613281 224.851562 C 261.613281 224.394531 261.398438 224.066406 260.957031 223.839844 C 260.527344 223.617188 259.882812 223.410156 259.050781 223.222656 C 258.71875 223.140625 258.386719 223.042969 258.046875 222.925781 C 257.707031 222.8125 257.402344 222.648438 257.125 222.441406 C 256.847656 222.238281 256.621094 221.976562 256.453125 221.671875 C 256.28125 221.359375 256.191406 220.984375 256.191406 220.527344 C 256.191406 220.007812 256.300781 219.550781 256.515625 219.171875 C 256.730469 218.796875 257.007812 218.484375 257.347656 218.242188 C 257.6875 218 258.082031 217.820312 258.523438 217.703125 C 258.960938 217.585938 259.417969 217.523438 259.882812 217.523438 C 260.582031 217.523438 261.261719 217.660156 261.917969 217.9375 C 262.570312 218.214844 263.082031 218.609375 263.429688 219.136719 L 262.085938 220.273438 Z M 262.105469 220.257812 " fill-opacity="1" fill-rule="nonzero"/><path fill="#ffffff" d="M 267.75 214.238281 C 267.75 214.59375 267.625 214.890625 267.375 215.125 C 267.121094 215.355469 266.816406 215.472656 266.460938 215.472656 C 266.101562 215.472656 265.804688 215.355469 265.554688 215.113281 C 265.304688 214.875 265.1875 214.578125 265.1875 214.238281 C 265.1875 213.898438 265.3125 213.582031 265.554688 213.339844 C 265.796875 213.097656 266.101562 212.984375 266.460938 212.984375 C 266.816406 212.984375 267.121094 213.109375 267.375 213.339844 C 267.625 213.582031 267.75 213.878906 267.75 214.238281 Z M 267.4375 227.566406 L 265.492188 227.566406 L 265.492188 217.777344 L 267.4375 217.777344 Z M 267.4375 227.566406 " fill-opacity="1" fill-rule="nonzero"/><path fill="#ffffff" d="M 272.230469 226.019531 L 272.230469 227.566406 L 270.347656 227.566406 L 270.347656 211.945312 L 272.292969 211.945312 L 272.292969 219.234375 L 272.355469 219.234375 C 272.6875 218.753906 273.140625 218.347656 273.734375 218.007812 C 274.324219 217.667969 275.023438 217.507812 275.839844 217.507812 C 276.566406 217.507812 277.226562 217.640625 277.828125 217.902344 C 278.429688 218.160156 278.9375 218.527344 279.378906 218.996094 C 279.808594 219.460938 280.140625 220.007812 280.382812 220.632812 C 280.613281 221.261719 280.730469 221.933594 280.730469 222.648438 C 280.730469 223.367188 280.613281 224.039062 280.382812 224.675781 C 280.148438 225.308594 279.816406 225.855469 279.394531 226.332031 C 278.976562 226.804688 278.453125 227.164062 277.855469 227.433594 C 277.246094 227.703125 276.566406 227.835938 275.8125 227.835938 C 275.113281 227.835938 274.441406 227.683594 273.8125 227.371094 C 273.179688 227.058594 272.675781 226.609375 272.292969 226.019531 Z M 278.734375 222.660156 C 278.734375 222.203125 278.660156 221.761719 278.527344 221.339844 C 278.390625 220.921875 278.1875 220.535156 277.910156 220.210938 C 277.628906 219.890625 277.289062 219.621094 276.886719 219.433594 C 276.484375 219.246094 276.007812 219.144531 275.472656 219.144531 C 274.980469 219.144531 274.523438 219.246094 274.117188 219.433594 C 273.714844 219.621094 273.367188 219.890625 273.070312 220.210938 C 272.773438 220.535156 272.558594 220.921875 272.398438 221.339844 C 272.238281 221.769531 272.15625 222.210938 272.15625 222.675781 C 272.15625 223.140625 272.238281 223.589844 272.398438 224.019531 C 272.558594 224.441406 272.785156 224.816406 273.070312 225.140625 C 273.359375 225.460938 273.707031 225.722656 274.117188 225.910156 C 274.523438 226.097656 274.980469 226.195312 275.472656 226.195312 C 276.007812 226.195312 276.484375 226.097656 276.886719 225.902344 C 277.289062 225.703125 277.628906 225.433594 277.910156 225.105469 C 278.1875 224.773438 278.390625 224.394531 278.527344 223.964844 C 278.660156 223.546875 278.734375 223.097656 278.734375 222.648438 Z M 278.734375 222.660156 " fill-opacity="1" fill-rule="nonzero"/><path fill="#ffffff" d="M 282.765625 211.945312 L 284.707031 211.945312 L 284.707031 227.566406 L 282.765625 227.566406 Z M 282.765625 211.945312 " fill-opacity="1" fill-rule="nonzero"/><path fill="#ffffff" d="M 296.523438 222.585938 L 296.523438 222.917969 C 296.523438 223.027344 296.523438 223.140625 296.507812 223.25 L 288.722656 223.25 C 288.738281 223.660156 288.828125 224.046875 289 224.40625 C 289.167969 224.761719 289.402344 225.085938 289.6875 225.347656 C 289.976562 225.613281 290.316406 225.820312 290.691406 225.972656 C 291.070312 226.125 291.472656 226.195312 291.902344 226.195312 C 292.566406 226.195312 293.136719 226.054688 293.613281 225.765625 C 294.097656 225.480469 294.472656 225.128906 294.75 224.710938 L 296.113281 225.804688 C 295.59375 226.492188 294.976562 227.003906 294.265625 227.335938 C 293.558594 227.667969 292.769531 227.828125 291.902344 227.828125 C 291.160156 227.828125 290.46875 227.703125 289.832031 227.449219 C 289.195312 227.199219 288.660156 226.859375 288.203125 226.410156 C 287.746094 225.964844 287.386719 225.425781 287.128906 224.789062 C 286.867188 224.15625 286.734375 223.457031 286.734375 222.683594 C 286.734375 221.914062 286.859375 221.226562 287.117188 220.589844 C 287.378906 219.953125 287.726562 219.398438 288.183594 218.949219 C 288.640625 218.492188 289.179688 218.144531 289.796875 217.882812 C 290.414062 217.625 291.085938 217.5 291.804688 217.5 C 292.519531 217.5 293.175781 217.613281 293.757812 217.847656 C 294.339844 218.082031 294.839844 218.421875 295.242188 218.859375 C 295.648438 219.296875 295.96875 219.835938 296.183594 220.464844 C 296.398438 221.089844 296.515625 221.796875 296.515625 222.578125 Z M 294.542969 221.796875 C 294.527344 221.414062 294.464844 221.054688 294.347656 220.714844 C 294.230469 220.375 294.0625 220.085938 293.828125 219.835938 C 293.605469 219.585938 293.316406 219.386719 292.976562 219.246094 C 292.636719 219.101562 292.242188 219.03125 291.785156 219.03125 C 291.375 219.03125 290.980469 219.101562 290.621094 219.246094 C 290.253906 219.386719 289.941406 219.585938 289.671875 219.835938 C 289.402344 220.085938 289.179688 220.375 289.007812 220.714844 C 288.839844 221.054688 288.738281 221.414062 288.710938 221.796875 Z M 294.542969 221.796875 " fill-opacity="1" fill-rule="nonzero"/><path fill="#ffffff" d="M 301.738281 214.398438 C 303.414062 214.398438 304.8125 215.714844 304.8125 217.445312 C 304.8125 219.171875 303.414062 220.527344 301.738281 220.527344 C 300.0625 220.527344 298.648438 219.210938 298.648438 217.445312 C 298.648438 215.679688 300.054688 214.398438 301.738281 214.398438 Z M 301.738281 220.078125 C 303.152344 220.078125 304.257812 218.949219 304.257812 217.445312 C 304.257812 215.9375 303.152344 214.847656 301.738281 214.847656 C 300.324219 214.847656 299.203125 215.976562 299.203125 217.445312 C 299.203125 218.914062 300.304688 220.078125 301.738281 220.078125 Z M 300.539062 215.671875 L 301.925781 215.671875 C 302.777344 215.671875 303.179688 216.011719 303.179688 216.691406 C 303.179688 217.335938 302.769531 217.605469 302.242188 217.667969 L 303.261719 219.246094 L 302.660156 219.246094 L 301.683594 217.703125 L 301.09375 217.703125 L 301.09375 219.246094 L 300.539062 219.246094 L 300.539062 215.660156 Z M 301.09375 217.257812 L 301.675781 217.257812 C 302.167969 217.257812 302.617188 217.230469 302.617188 216.664062 C 302.617188 216.191406 302.203125 216.117188 301.828125 216.117188 L 301.09375 216.117188 Z M 301.09375 217.257812 " fill-opacity="1" fill-rule="nonzero"/></svg>