<svg xmlns="http://www.w3.org/2000/svg" xmlns:xlink="http://www.w3.org/1999/xlink" width="500" zoomAndPan="magnify" viewBox="0 0 375 374.999991" height="500" preserveAspectRatio="xMidYMid meet" version="1.0"><path fill="#ffffff" d="M 170.945312 189 C 170.945312 199.882812 162.429688 207.902344 151.984375 207.902344 C 141.539062 207.902344 133.023438 199.882812 133.023438 189 C 133.023438 178.042969 141.539062 170.101562 151.984375 170.101562 C 162.429688 170.101562 170.945312 178.042969 170.945312 189 Z M 162.644531 189 C 162.644531 182.203125 157.710938 177.550781 151.984375 177.550781 C 146.257812 177.550781 141.324219 182.203125 141.324219 189 C 141.324219 195.734375 146.257812 200.453125 151.984375 200.453125 C 157.710938 200.453125 162.644531 195.726562 162.644531 189 Z M 162.644531 189 " fill-opacity="1" fill-rule="nonzero"/><path fill="#ffffff" d="M 211.84375 189 C 211.84375 199.882812 203.332031 207.902344 192.886719 207.902344 C 182.4375 207.902344 173.925781 199.882812 173.925781 189 C 173.925781 178.050781 182.4375 170.101562 192.886719 170.101562 C 203.332031 170.101562 211.84375 178.042969 211.84375 189 Z M 203.546875 189 C 203.546875 182.203125 198.613281 177.550781 192.886719 177.550781 C 187.160156 177.550781 182.226562 182.203125 182.226562 189 C 182.226562 195.734375 187.160156 200.453125 192.886719 200.453125 C 198.613281 200.453125 203.546875 195.726562 203.546875 189 Z M 203.546875 189 " fill-opacity="1" fill-rule="nonzero"/><path fill="#ffffff" d="M 251.042969 171.242188 L 251.042969 205.175781 C 251.042969 219.132812 242.808594 224.832031 233.078125 224.832031 C 223.917969 224.832031 218.40625 218.707031 216.328125 213.695312 L 223.550781 210.6875 C 224.839844 213.765625 227.992188 217.394531 233.070312 217.394531 C 239.300781 217.394531 243.160156 213.550781 243.160156 206.316406 L 243.160156 203.597656 L 242.871094 203.597656 C 241.011719 205.890625 237.433594 207.894531 232.917969 207.894531 C 223.46875 207.894531 214.808594 199.660156 214.808594 189.070312 C 214.808594 178.402344 223.46875 170.101562 232.917969 170.101562 C 237.425781 170.101562 241.003906 172.105469 242.871094 174.328125 L 243.160156 174.328125 L 243.160156 171.253906 L 251.042969 171.253906 Z M 243.746094 189.070312 C 243.746094 182.414062 239.308594 177.550781 233.660156 177.550781 C 227.933594 177.550781 223.136719 182.414062 223.136719 189.070312 C 223.136719 195.65625 227.933594 200.453125 233.660156 200.453125 C 239.308594 200.453125 243.746094 195.65625 243.746094 189.070312 Z M 243.746094 189.070312 " fill-opacity="1" fill-rule="nonzero"/><path fill="#ffffff" d="M 264.035156 151.355469 L 264.035156 206.742188 L 255.941406 206.742188 L 255.941406 151.355469 Z M 264.035156 151.355469 " fill-opacity="1" fill-rule="nonzero"/><path fill="#ffffff" d="M 295.582031 195.222656 L 302.023438 199.515625 C 299.945312 202.59375 294.933594 207.894531 286.277344 207.894531 C 275.539062 207.894531 267.519531 199.59375 267.519531 188.992188 C 267.519531 177.753906 275.609375 170.09375 285.347656 170.09375 C 295.15625 170.09375 299.953125 177.898438 301.519531 182.117188 L 302.378906 184.265625 L 277.117188 194.726562 C 279.050781 198.519531 282.058594 200.453125 286.277344 200.453125 C 290.503906 200.453125 293.433594 198.375 295.582031 195.222656 Z M 275.753906 188.421875 L 292.640625 181.410156 C 291.710938 179.050781 288.917969 177.40625 285.628906 177.40625 C 281.410156 177.40625 275.539062 181.128906 275.753906 188.421875 Z M 275.753906 188.421875 " fill-opacity="1" fill-rule="nonzero"/><path fill="#ffffff" d="M 102.382812 184.085938 L 102.382812 176.066406 L 129.402344 176.066406 C 129.667969 177.464844 129.804688 179.117188 129.804688 180.90625 C 129.804688 186.921875 128.160156 194.363281 122.859375 199.660156 C 117.703125 205.03125 111.117188 207.894531 102.390625 207.894531 C 86.21875 207.894531 72.621094 194.71875 72.621094 178.546875 C 72.621094 162.375 86.21875 149.199219 102.390625 149.199219 C 111.339844 149.199219 117.710938 152.710938 122.5 157.285156 L 116.84375 162.945312 C 113.410156 159.722656 108.757812 157.21875 102.382812 157.21875 C 90.574219 157.21875 81.335938 166.738281 81.335938 178.546875 C 81.335938 190.355469 90.574219 199.875 102.382812 199.875 C 110.042969 199.875 114.40625 196.796875 117.203125 194.003906 C 119.46875 191.738281 120.960938 188.5 121.546875 184.078125 Z M 102.382812 184.085938 " fill-opacity="1" fill-rule="nonzero"/></svg>