<svg xmlns="http://www.w3.org/2000/svg" xmlns:xlink="http://www.w3.org/1999/xlink" width="500" zoomAndPan="magnify" viewBox="0 0 375 374.999991" height="500" preserveAspectRatio="xMidYMid meet" version="1.0"><path fill="#ffffff" d="M 238.375 215.417969 C 233.035156 215.417969 229.113281 214.386719 226.515625 212.328125 C 224.308594 210.664062 223.085938 208.066406 223.085938 205.273438 L 233.71875 205.273438 C 234.210938 207.332031 235.09375 208.507812 238.523438 208.507812 C 242.296875 208.507812 243.863281 206.449219 243.863281 201.792969 L 243.863281 197.675781 L 243.667969 197.675781 C 242.34375 201.058594 238.914062 203.164062 235.238281 202.820312 C 226.464844 202.820312 222.007812 197.824219 222.007812 188.070312 C 221.8125 183.90625 223.230469 179.886719 225.976562 176.75 C 228.425781 174.203125 231.859375 172.78125 235.433594 172.828125 C 238.867188 172.484375 242.199219 174.25 243.816406 177.289062 L 244.011719 177.289062 L 244.011719 173.515625 L 254.5 173.515625 L 254.5 200.8125 C 254.5 205.8125 253.273438 209.390625 250.726562 211.644531 C 247.980469 214.191406 244.011719 215.417969 238.375 215.417969 Z M 238.71875 180.230469 C 235.289062 180.230469 233.230469 183.167969 233.230469 188.121094 C 233.230469 193.265625 235.09375 196.011719 238.523438 196.011719 C 241.464844 196.011719 243.816406 193.609375 243.816406 190.667969 L 243.816406 186.746094 C 243.816406 182.628906 241.953125 180.230469 238.71875 180.230469 Z M 138.496094 205.078125 C 134.722656 205.417969 131 204.4375 127.863281 202.332031 C 125.804688 200.566406 124.578125 198.019531 124.433594 195.273438 L 134.234375 195.273438 C 134.429688 197.332031 135.800781 198.363281 138.351562 198.363281 C 140.75 198.363281 142.269531 197.480469 142.269531 195.8125 C 142.269531 194.441406 141.390625 193.753906 139.183594 193.414062 L 134.183594 192.726562 C 128.207031 192.039062 124.921875 188.609375 124.921875 183.269531 C 124.875 180.523438 126 177.925781 128.011719 176.0625 C 133.941406 171.945312 141.78125 171.75 147.90625 175.574219 C 149.964844 177.289062 151.140625 179.789062 151.140625 182.433594 L 141.488281 182.433594 C 141.4375 180.671875 139.96875 179.296875 138.253906 179.347656 L 138.054688 179.347656 C 135.3125 179.347656 134.773438 180.574219 134.773438 181.75 C 134.773438 182.925781 135.261719 183.808594 137.714844 184.148438 L 143.054688 184.835938 C 145.40625 184.933594 147.660156 185.863281 149.425781 187.382812 C 151.140625 189.050781 152.023438 191.402344 151.828125 193.753906 C 152.269531 200.8125 146.925781 205.125 138.496094 205.078125 Z M 107.621094 204.929688 C 97.675781 204.929688 91.988281 199.097656 91.988281 188.609375 C 91.84375 184.394531 93.3125 180.277344 96.105469 177.09375 C 99.144531 174.101562 103.359375 172.535156 107.621094 172.78125 C 112.964844 172.78125 117.082031 174.300781 119.628906 177.238281 C 122.226562 180.574219 123.550781 184.6875 123.402344 188.902344 L 123.402344 191.304688 L 102.96875 191.304688 C 103.308594 195.765625 104.683594 197.824219 107.964844 197.824219 C 109.925781 198.167969 111.835938 196.890625 112.277344 194.882812 L 123.109375 194.882812 C 122.375 201.300781 117.03125 204.929688 107.621094 204.929688 Z M 107.621094 179.347656 C 104.683594 179.347656 103.308594 181.40625 102.96875 185.523438 L 112.230469 185.523438 L 112.230469 185.179688 C 111.886719 181.257812 110.367188 179.347656 107.621094 179.347656 Z M 304.4375 204.78125 C 301.105469 204.976562 297.871094 203.703125 295.519531 201.351562 C 293.265625 198.753906 292.089844 195.371094 292.234375 191.894531 C 292.039062 188.511719 293.214844 185.179688 295.519531 182.628906 C 297.921875 180.328125 301.105469 179.101562 304.4375 179.199219 C 311.984375 179.199219 316.640625 184.003906 316.640625 191.894531 C 316.640625 199.785156 311.789062 204.78125 304.4375 204.78125 Z M 304.4375 184.199219 C 300.46875 184.199219 299.636719 188.511719 299.636719 192.089844 C 299.636719 197.429688 301.351562 199.980469 304.4375 199.980469 C 307.527344 199.980469 309.242188 197.234375 309.242188 192.089844 C 309.242188 186.945312 307.527344 184.199219 304.4375 184.199219 Z M 279.886719 204.78125 C 276.550781 204.976562 273.316406 203.703125 270.964844 201.351562 C 268.808594 198.753906 267.683594 195.472656 267.878906 192.089844 C 267.878906 184.199219 272.535156 179.394531 280.082031 179.394531 C 286.941406 179.394531 291.058594 182.828125 291.253906 188.660156 L 284.246094 188.660156 C 284.101562 186.601562 283.21875 184.199219 280.128906 184.199219 C 275.816406 184.199219 275.328125 189.148438 275.328125 192.089844 C 275.328125 197.429688 276.894531 199.980469 280.128906 199.980469 C 282.484375 199.980469 284.394531 198.117188 284.441406 195.765625 C 284.441406 195.714844 284.441406 195.714844 284.441406 195.667969 L 284.441406 195.175781 L 291.304688 195.175781 C 291.304688 197.96875 290.128906 200.566406 288.019531 202.429688 C 285.570312 204 282.777344 204.832031 279.886719 204.78125 Z M 164.570312 204.585938 C 161.921875 204.832031 159.277344 204.046875 157.167969 202.378906 C 155.109375 200.222656 154.03125 197.285156 154.230469 194.292969 L 154.230469 165.136719 L 164.914062 165.136719 L 164.914062 173.5625 L 171.285156 173.5625 L 171.285156 181.113281 L 165.109375 181.113281 L 165.109375 192.285156 C 165.109375 195.519531 166.136719 196.746094 169.078125 196.746094 C 169.765625 196.792969 170.449219 196.695312 171.136719 196.550781 L 171.136719 204.242188 C 168.882812 204.390625 166.824219 204.585938 164.570312 204.585938 Z M 341.832031 204.097656 L 334.628906 204.097656 L 334.628906 189.835938 C 334.773438 188.460938 334.527344 187.140625 333.941406 185.914062 C 333.253906 184.886719 332.078125 184.347656 330.851562 184.542969 C 327.914062 184.542969 326.199219 186.601562 326.199219 190.03125 L 326.199219 204.097656 L 318.992188 204.097656 L 318.992188 179.886719 L 325.855469 179.886719 L 325.855469 183.855469 C 327.277344 181.011719 330.214844 179.25 333.402344 179.394531 C 337.519531 179.394531 339.917969 181.113281 340.949219 184.394531 L 341.097656 184.394531 C 342.46875 181.257812 345.605469 179.296875 348.984375 179.394531 C 354.476562 179.394531 357.074219 182.335938 357.074219 188.316406 L 357.074219 204.097656 L 349.867188 204.097656 L 349.867188 189.882812 C 350.015625 188.511719 349.769531 187.1875 349.183594 185.964844 C 348.496094 184.933594 347.320312 184.394531 346.09375 184.589844 C 343.15625 184.589844 341.4375 186.648438 341.4375 190.078125 Z M 199.414062 204.097656 L 188.4375 204.097656 L 188.4375 173.5625 L 199.070312 173.5625 L 199.070312 178.515625 L 199.265625 178.515625 C 201.179688 174.886719 205.097656 172.683594 209.214844 173.023438 C 213.136719 173.023438 215.929688 174.054688 217.644531 176.113281 C 219.410156 178.757812 220.195312 181.894531 219.851562 185.03125 L 219.851562 204.097656 L 208.871094 204.097656 L 208.871094 186.746094 C 209.019531 185.226562 208.726562 183.660156 207.992188 182.289062 C 207.207031 181.210938 205.882812 180.621094 204.558594 180.769531 C 201.324219 180.769531 199.609375 182.828125 199.609375 186.945312 Z M 40.480469 204.097656 L 29.503906 204.097656 L 29.503906 173.5625 L 40.140625 173.5625 L 40.140625 178.515625 L 40.285156 178.515625 C 42.195312 174.886719 46.117188 172.683594 50.234375 173.023438 C 54.15625 173.023438 56.949219 174.054688 58.664062 176.113281 C 60.429688 178.757812 61.210938 181.894531 60.917969 185.03125 L 60.917969 204.097656 L 49.941406 204.097656 L 49.941406 186.746094 C 50.085938 185.226562 49.792969 183.660156 49.058594 182.289062 C 48.273438 181.210938 46.949219 180.621094 45.628906 180.769531 C 42.34375 180.769531 40.628906 182.828125 40.628906 186.945312 Z M 265.671875 204.097656 L 258.125 204.097656 L 258.125 196.890625 L 265.671875 196.890625 Z M 184.808594 204.097656 L 173.832031 204.097656 L 173.832031 173.5625 L 184.808594 173.5625 Z M 82.53125 204.097656 L 71.210938 204.097656 L 60.378906 173.5625 L 71.40625 173.5625 L 75.328125 186.796875 C 76.355469 190.570312 77.238281 194.539062 77.238281 194.6875 L 77.433594 194.6875 C 77.972656 192.089844 78.460938 189.539062 79.148438 186.945312 L 83.117188 173.710938 L 93.753906 173.710938 Z M 25.386719 204.097656 L 14.066406 204.097656 L 14.066406 160.871094 L 25.386719 160.871094 Z M 25.386719 204.097656 " fill-opacity="1" fill-rule="nonzero"/><path fill="#ffffff" d="M 173.488281 170.28125 L 184.808594 168.222656 L 184.808594 157.046875 L 173.488281 159.105469 Z M 173.488281 170.28125 " fill-opacity="1" fill-rule="nonzero"/></svg>