<svg xmlns="http://www.w3.org/2000/svg" xmlns:xlink="http://www.w3.org/1999/xlink" width="500" zoomAndPan="magnify" viewBox="0 0 375 374.999991" height="500" preserveAspectRatio="xMidYMid meet" version="1.0"><defs><clipPath id="36abf2fe06"><path d="M 116 163 L 325.867188 163 L 325.867188 213.335938 L 116 213.335938 Z M 116 163 " clip-rule="nonzero"/></clipPath></defs><path fill="#ffffff" d="M 78.515625 173.886719 C 86.3125 178.03125 89.292969 187.691406 85.195312 195.492188 L 78.425781 191.890625 L 78.433594 191.875 C 80.496094 187.839844 78.941406 182.875 74.917969 180.738281 C 70.855469 178.578125 65.8125 180.117188 63.652344 184.175781 C 61.515625 188.195312 63.011719 193.175781 66.984375 195.371094 L 63.390625 202.136719 L 63.238281 202.054688 C 55.59375 197.828125 52.71875 188.238281 56.832031 180.503906 C 60.988281 172.691406 70.695312 169.726562 78.515625 173.886719 Z M 78.515625 173.886719 " fill-opacity="1" fill-rule="evenodd"/><path fill="#ffffff" d="M 76.085938 202.675781 C 68.21875 198.664062 65.070312 189.0625 69.03125 181.191406 L 75.867188 184.671875 L 75.859375 184.6875 C 73.867188 188.757812 75.507812 193.695312 79.566406 195.761719 C 83.667969 197.851562 88.683594 196.226562 90.769531 192.128906 C 92.835938 188.074219 91.253906 183.117188 87.242188 180.992188 L 90.71875 174.167969 L 90.871094 174.246094 C 98.589844 178.335938 101.628906 187.875 97.652344 195.679688 C 93.636719 203.566406 83.980469 206.695312 76.085938 202.675781 Z M 76.085938 202.675781 " fill-opacity="1" fill-rule="evenodd"/><g clip-path="url(#36abf2fe06)"><path fill="#ffffff" d="M 126.101562 196.597656 C 126.101562 198.1875 126.386719 199.535156 126.960938 200.636719 C 127.53125 201.742188 128.289062 202.636719 129.234375 203.320312 C 130.179688 204.003906 131.289062 204.511719 132.5625 204.84375 C 133.839844 205.175781 135.15625 205.339844 136.519531 205.339844 C 137.441406 205.339844 138.429688 205.261719 139.484375 205.109375 C 140.539062 204.953125 141.53125 204.65625 142.453125 204.214844 C 143.375 203.773438 144.144531 203.164062 144.761719 202.394531 C 145.375 201.621094 145.683594 200.636719 145.683594 199.445312 C 145.683594 198.164062 145.277344 197.128906 144.464844 196.332031 C 143.648438 195.539062 142.585938 194.875 141.265625 194.34375 C 139.949219 193.816406 138.453125 193.351562 136.78125 192.953125 C 135.113281 192.558594 133.421875 192.117188 131.707031 191.628906 C 129.949219 191.1875 128.234375 190.648438 126.5625 190.007812 C 124.894531 189.367188 123.398438 188.539062 122.082031 187.523438 C 120.761719 186.507812 119.695312 185.238281 118.882812 183.714844 C 118.070312 182.191406 117.664062 180.347656 117.664062 178.183594 C 117.664062 175.753906 118.179688 173.644531 119.214844 171.859375 C 120.246094 170.070312 121.597656 168.578125 123.269531 167.386719 C 124.9375 166.195312 126.828125 165.3125 128.9375 164.738281 C 131.046875 164.164062 133.15625 163.875 135.265625 163.875 C 137.726562 163.875 140.089844 164.152344 142.355469 164.703125 C 144.617188 165.257812 146.628906 166.152344 148.386719 167.386719 C 150.144531 168.625 151.539062 170.203125 152.574219 172.121094 C 153.605469 174.042969 154.121094 176.375 154.121094 179.109375 L 144.101562 179.109375 C 144.011719 177.699219 143.714844 176.527344 143.210938 175.601562 C 142.707031 174.671875 142.035156 173.945312 141.199219 173.414062 C 140.363281 172.882812 139.410156 172.507812 138.332031 172.289062 C 137.253906 172.066406 136.078125 171.957031 134.804688 171.957031 C 133.96875 171.957031 133.136719 172.046875 132.300781 172.222656 C 131.464844 172.398438 130.707031 172.707031 130.027344 173.148438 C 129.34375 173.589844 128.785156 174.144531 128.34375 174.804688 C 127.90625 175.46875 127.683594 176.308594 127.683594 177.324219 C 127.683594 178.25 127.859375 179 128.210938 179.574219 C 128.5625 180.148438 129.257812 180.679688 130.289062 181.164062 C 131.320312 181.648438 132.75 182.136719 134.574219 182.621094 C 136.398438 183.105469 138.78125 183.726562 141.726562 184.476562 C 142.605469 184.652344 143.824219 184.972656 145.386719 185.4375 C 146.945312 185.898438 148.496094 186.640625 150.035156 187.65625 C 151.574219 188.671875 152.902344 190.027344 154.023438 191.730469 C 155.144531 193.429688 155.703125 195.605469 155.703125 198.253906 C 155.703125 200.417969 155.285156 202.425781 154.449219 204.28125 C 153.617188 206.136719 152.375 207.734375 150.726562 209.082031 C 149.078125 210.429688 147.035156 211.476562 144.59375 212.230469 C 142.15625 212.980469 139.332031 213.355469 136.125 213.355469 C 133.53125 213.355469 131.015625 213.035156 128.574219 212.394531 C 126.136719 211.753906 123.980469 210.75 122.113281 209.382812 C 120.246094 208.011719 118.761719 206.269531 117.664062 204.148438 C 116.566406 202.027344 116.039062 199.511719 116.082031 196.597656 Z M 170.632812 172.675781 L 161.304688 172.675781 L 161.304688 164.886719 L 170.632812 164.886719 Z M 161.304688 178.011719 L 170.632812 178.011719 L 170.632812 212.34375 L 161.304688 212.34375 Z M 178.101562 178.074219 L 186.941406 178.074219 L 186.941406 182.714844 L 187.070312 182.714844 C 188.304688 180.949219 189.789062 179.578125 191.523438 178.605469 C 193.261719 177.632812 195.25 177.148438 197.496094 177.148438 C 199.648438 177.148438 201.617188 177.566406 203.398438 178.40625 C 205.179688 179.246094 206.53125 180.726562 207.457031 182.847656 C 208.46875 181.347656 209.839844 180.019531 211.578125 178.871094 C 213.316406 177.722656 215.371094 177.148438 217.746094 177.148438 C 219.550781 177.148438 221.222656 177.367188 222.761719 177.8125 C 224.300781 178.253906 225.617188 178.960938 226.71875 179.933594 C 227.816406 180.902344 228.675781 182.175781 229.292969 183.742188 C 229.90625 185.3125 230.214844 187.199219 230.214844 189.410156 L 230.214844 212.34375 L 220.847656 212.34375 L 220.847656 192.921875 C 220.847656 191.773438 220.804688 190.691406 220.714844 189.675781 C 220.628906 188.660156 220.386719 187.777344 219.988281 187.023438 C 219.59375 186.273438 219.011719 185.675781 218.242188 185.234375 C 217.472656 184.792969 216.425781 184.570312 215.109375 184.570312 C 213.789062 184.570312 212.722656 184.824219 211.910156 185.335938 C 211.09375 185.84375 210.457031 186.503906 209.996094 187.324219 C 209.535156 188.140625 209.226562 189.066406 209.070312 190.105469 C 208.917969 191.144531 208.839844 192.195312 208.839844 193.253906 L 208.839844 212.34375 L 199.472656 212.34375 L 199.472656 193.121094 C 199.472656 192.105469 199.453125 191.101562 199.40625 190.105469 C 199.363281 189.113281 199.175781 188.195312 198.847656 187.355469 C 198.515625 186.515625 197.96875 185.84375 197.199219 185.335938 C 196.429688 184.824219 195.296875 184.570312 193.800781 184.570312 C 193.359375 184.570312 192.777344 184.671875 192.050781 184.871094 C 191.328125 185.070312 190.621094 185.445312 189.941406 185.996094 C 189.257812 186.550781 188.675781 187.34375 188.191406 188.382812 C 187.710938 189.421875 187.46875 190.78125 187.46875 192.460938 L 187.46875 212.34375 L 178.101562 212.34375 Z M 238.542969 165.03125 L 271.707031 165.03125 L 271.707031 173.777344 L 248.914062 173.777344 L 248.914062 184.710938 L 268.667969 184.710938 L 268.667969 192.796875 L 248.914062 192.796875 L 248.914062 212.34375 L 238.542969 212.34375 Z M 286.347656 172.675781 L 277.015625 172.675781 L 277.015625 164.886719 L 286.347656 164.886719 Z M 277.015625 178.011719 L 286.347656 178.011719 L 286.347656 212.34375 L 277.015625 212.34375 Z M 293.816406 178.074219 L 302.6875 178.074219 L 302.6875 182.847656 L 302.882812 182.847656 C 304.066406 180.859375 305.601562 179.414062 307.484375 178.507812 C 309.367188 177.601562 311.296875 177.148438 313.265625 177.148438 C 315.765625 177.148438 317.8125 177.492188 319.410156 178.175781 C 321.011719 178.859375 322.269531 179.808594 323.1875 181.027344 C 324.109375 182.242188 324.757812 183.722656 325.128906 185.464844 C 325.5 187.210938 325.6875 189.144531 325.6875 191.265625 L 325.6875 212.34375 L 316.355469 212.34375 L 316.355469 192.988281 C 316.355469 190.160156 315.917969 188.050781 315.042969 186.660156 C 314.164062 185.269531 312.609375 184.570312 310.375 184.570312 C 307.832031 184.570312 305.996094 185.335938 304.855469 186.859375 C 303.714844 188.382812 303.148438 190.890625 303.148438 194.382812 L 303.148438 212.34375 L 293.816406 212.34375 Z M 293.816406 178.074219 " fill-opacity="1" fill-rule="nonzero"/></g></svg>