<svg xmlns="http://www.w3.org/2000/svg" xmlns:xlink="http://www.w3.org/1999/xlink" width="500" zoomAndPan="magnify" viewBox="0 0 375 374.999991" height="500" preserveAspectRatio="xMidYMid meet" version="1.0"><defs><clipPath id="c62ea37c98"><path d="M 92 150.578125 L 282.957031 150.578125 L 282.957031 224.078125 L 92 224.078125 Z M 92 150.578125 " clip-rule="nonzero"/></clipPath></defs><g clip-path="url(#c62ea37c98)"><path fill="#ffffff" d="M 123.570312 205.492188 C 123.511719 205.703125 123.289062 205.808594 122.917969 205.808594 L 115.710938 205.808594 C 115.230469 205.816406 114.839844 205.628906 114.546875 205.246094 L 102.644531 190.054688 L 99.34375 193.21875 L 99.34375 204.96875 C 99.359375 205.078125 99.347656 205.1875 99.3125 205.292969 C 99.277344 205.398438 99.21875 205.492188 99.140625 205.570312 C 99.0625 205.652344 98.96875 205.707031 98.863281 205.742188 C 98.753906 205.777344 98.648438 205.789062 98.535156 205.773438 L 92.941406 205.773438 C 92.832031 205.789062 92.722656 205.777344 92.617188 205.742188 C 92.511719 205.707031 92.417969 205.652344 92.339844 205.570312 C 92.257812 205.492188 92.203125 205.398438 92.167969 205.292969 C 92.132812 205.1875 92.121094 205.078125 92.136719 204.96875 L 92.136719 151.417969 C 92.121094 151.308594 92.132812 151.199219 92.167969 151.09375 C 92.203125 150.984375 92.257812 150.894531 92.339844 150.8125 C 92.417969 150.734375 92.511719 150.675781 92.617188 150.640625 C 92.722656 150.605469 92.832031 150.597656 92.941406 150.613281 L 98.535156 150.613281 C 98.648438 150.597656 98.753906 150.605469 98.863281 150.640625 C 98.96875 150.675781 99.0625 150.734375 99.140625 150.8125 C 99.21875 150.894531 99.277344 150.984375 99.3125 151.09375 C 99.347656 151.199219 99.359375 151.308594 99.34375 151.417969 L 99.34375 184.394531 L 113.597656 169.972656 C 113.910156 169.617188 114.296875 169.425781 114.765625 169.398438 L 122.226562 169.398438 C 122.367188 169.390625 122.5 169.421875 122.617188 169.496094 C 122.738281 169.574219 122.820312 169.675781 122.871094 169.808594 C 123 170.070312 122.972656 170.316406 122.789062 170.542969 L 107.691406 185.117188 L 123.40625 204.640625 C 123.660156 204.886719 123.714844 205.171875 123.570312 205.492188 Z M 152.773438 205.773438 L 147.179688 205.773438 C 146.585938 205.773438 146.292969 205.503906 146.292969 204.96875 L 146.292969 203.800781 C 144.957031 204.734375 143.503906 205.429688 141.9375 205.886719 C 140.371094 206.347656 138.769531 206.542969 137.140625 206.472656 C 135.53125 206.507812 133.96875 206.253906 132.449219 205.714844 C 130.933594 205.175781 129.5625 204.386719 128.335938 203.34375 C 127.136719 202.3125 126.21875 201.074219 125.582031 199.628906 C 124.945312 198.179688 124.648438 196.667969 124.691406 195.089844 C 124.691406 189.789062 127.984375 186.195312 134.570312 184.3125 C 138.433594 183.335938 142.347656 182.6875 146.316406 182.359375 C 146.382812 181.886719 146.394531 181.40625 146.351562 180.929688 C 146.308594 180.449219 146.214844 179.980469 146.066406 179.523438 C 145.917969 179.066406 145.71875 178.632812 145.472656 178.21875 C 145.226562 177.808594 144.9375 177.425781 144.605469 177.078125 C 144.273438 176.730469 143.90625 176.425781 143.503906 176.160156 C 143.101562 175.898438 142.675781 175.679688 142.226562 175.511719 C 141.777344 175.34375 141.3125 175.226562 140.835938 175.164062 C 140.359375 175.097656 139.882812 175.089844 139.40625 175.132812 C 137.734375 175.1875 136.113281 175.492188 134.539062 176.042969 C 132.964844 176.59375 131.507812 177.371094 130.167969 178.367188 C 129.691406 178.648438 129.339844 178.589844 129.117188 178.214844 L 126.199219 174.082031 C 125.929688 173.753906 126.011719 173.382812 126.445312 172.914062 C 128.328125 171.546875 130.378906 170.496094 132.589844 169.761719 C 134.804688 169.027344 137.074219 168.648438 139.40625 168.617188 C 140.960938 168.582031 142.484375 168.777344 143.980469 169.203125 C 145.480469 169.625 146.878906 170.257812 148.183594 171.105469 C 151.757812 173.488281 153.542969 177.292969 153.535156 182.523438 L 153.535156 204.96875 C 153.546875 205.074219 153.539062 205.179688 153.503906 205.28125 C 153.472656 205.382812 153.417969 205.472656 153.347656 205.550781 C 153.273438 205.628906 153.183594 205.6875 153.085938 205.726562 C 152.984375 205.765625 152.882812 205.78125 152.773438 205.773438 Z M 146.292969 188.84375 C 141 189.386719 137.378906 190.089844 135.433594 190.957031 C 132.796875 192.085938 131.597656 193.703125 131.839844 195.8125 C 131.914062 196.398438 132.109375 196.941406 132.417969 197.441406 C 132.730469 197.945312 133.132812 198.359375 133.625 198.683594 C 134.671875 199.433594 135.839844 199.855469 137.128906 199.945312 C 138.789062 200.15625 140.414062 200 142.003906 199.472656 C 143.59375 198.949219 144.992188 198.105469 146.199219 196.945312 Z M 186.71875 219.832031 C 183.753906 222.882812 179.574219 224.410156 174.179688 224.410156 C 171 224.417969 168.03125 223.636719 165.269531 222.074219 C 164.671875 221.6875 163.972656 221.1875 163.15625 220.566406 C 162.335938 219.949219 161.402344 219.179688 160.316406 218.230469 C 160.148438 218.082031 160.054688 217.890625 160.039062 217.664062 C 160.023438 217.4375 160.089844 217.238281 160.234375 217.0625 L 164.042969 213.257812 C 164.226562 213.082031 164.445312 213 164.695312 213.011719 C 164.921875 213.011719 165.113281 213.09375 165.269531 213.257812 C 168.28125 216.269531 171.234375 217.789062 174.097656 217.789062 C 180.628906 217.789062 183.894531 214.386719 183.894531 207.582031 L 183.894531 203.34375 C 182.449219 204.457031 180.855469 205.289062 179.113281 205.832031 C 177.371094 206.375 175.589844 206.601562 173.769531 206.507812 C 172.578125 206.554688 171.398438 206.460938 170.234375 206.21875 C 169.066406 205.976562 167.945312 205.597656 166.871094 205.082031 C 165.796875 204.566406 164.804688 203.929688 163.886719 203.167969 C 162.96875 202.40625 162.15625 201.546875 161.449219 200.589844 C 160.097656 198.691406 159.085938 196.625 158.414062 194.390625 C 157.742188 192.15625 157.445312 189.875 157.527344 187.546875 C 157.457031 185.292969 157.742188 183.089844 158.378906 180.929688 C 159.019531 178.769531 159.980469 176.761719 161.261719 174.910156 C 161.945312 173.90625 162.742188 173.003906 163.652344 172.203125 C 164.566406 171.402344 165.5625 170.730469 166.648438 170.183594 C 167.730469 169.636719 168.867188 169.238281 170.054688 168.980469 C 171.238281 168.726562 172.441406 168.625 173.652344 168.675781 C 175.484375 168.613281 177.273438 168.855469 179.023438 169.398438 C 180.773438 169.9375 182.382812 170.753906 183.859375 171.839844 L 183.859375 170.21875 C 183.84375 170.105469 183.851562 169.996094 183.886719 169.890625 C 183.921875 169.785156 183.980469 169.691406 184.058594 169.609375 C 184.136719 169.53125 184.230469 169.472656 184.335938 169.433594 C 184.441406 169.398438 184.550781 169.386719 184.664062 169.398438 L 190.257812 169.398438 C 190.367188 169.382812 190.480469 169.394531 190.585938 169.429688 C 190.695312 169.464844 190.789062 169.523438 190.867188 169.605469 C 190.949219 169.683594 191.007812 169.78125 191.042969 169.886719 C 191.078125 169.996094 191.089844 170.105469 191.074219 170.21875 L 191.074219 206.414062 C 191.097656 212.308594 189.644531 216.78125 186.71875 219.832031 Z M 183.894531 180.972656 C 182.539062 177.515625 179.425781 175.789062 174.550781 175.789062 C 168.238281 175.789062 165.082031 179.726562 165.082031 187.605469 C 165.082031 191.988281 166.132812 195.175781 168.234375 197.167969 C 169.042969 197.957031 169.976562 198.558594 171.035156 198.960938 C 172.09375 199.367188 173.1875 199.546875 174.316406 199.503906 C 179.386719 199.503906 182.597656 197.773438 183.949219 194.316406 Z M 224.773438 219.832031 C 221.832031 222.875 217.65625 224.402344 212.253906 224.410156 C 209.078125 224.414062 206.109375 223.636719 203.347656 222.074219 C 202.753906 221.691406 202.054688 221.191406 201.246094 220.566406 C 200.425781 219.949219 199.480469 219.179688 198.40625 218.230469 C 198.230469 218.082031 198.136719 217.894531 198.121094 217.664062 C 198.105469 217.4375 198.171875 217.234375 198.324219 217.0625 L 202.132812 213.257812 C 202.308594 213.082031 202.523438 213 202.773438 213.011719 C 203 213.011719 203.191406 213.09375 203.347656 213.257812 C 206.371094 216.269531 209.3125 217.789062 212.171875 217.789062 C 218.710938 217.789062 221.980469 214.386719 221.980469 207.582031 L 221.980469 203.34375 C 220.535156 204.457031 218.941406 205.285156 217.195312 205.832031 C 215.453125 206.375 213.671875 206.601562 211.847656 206.507812 C 210.660156 206.554688 209.484375 206.457031 208.320312 206.214844 C 207.15625 205.972656 206.039062 205.59375 204.96875 205.078125 C 203.898438 204.5625 202.90625 203.921875 201.992188 203.164062 C 201.078125 202.40625 200.265625 201.546875 199.5625 200.589844 C 198.214844 198.6875 197.207031 196.621094 196.539062 194.390625 C 195.875 192.15625 195.585938 189.875 195.675781 187.546875 C 195.601562 185.292969 195.886719 183.089844 196.523438 180.929688 C 197.160156 178.769531 198.117188 176.761719 199.398438 174.910156 C 200.082031 173.90625 200.878906 173.003906 201.789062 172.203125 C 202.703125 171.40625 203.699219 170.730469 204.785156 170.1875 C 205.867188 169.640625 207.003906 169.238281 208.191406 168.984375 C 209.375 168.726562 210.574219 168.625 211.789062 168.675781 C 213.621094 168.617188 215.410156 168.855469 217.164062 169.398438 C 218.914062 169.941406 220.527344 170.753906 222.003906 171.839844 L 222.003906 170.21875 C 221.988281 170.105469 222 169.996094 222.035156 169.890625 C 222.070312 169.785156 222.128906 169.691406 222.207031 169.609375 C 222.285156 169.53125 222.378906 169.472656 222.484375 169.433594 C 222.589844 169.398438 222.699219 169.386719 222.8125 169.398438 L 228.40625 169.398438 C 228.515625 169.386719 228.625 169.398438 228.730469 169.433594 C 228.835938 169.472656 228.929688 169.53125 229.007812 169.609375 C 229.085938 169.691406 229.144531 169.785156 229.179688 169.890625 C 229.214844 169.996094 229.226562 170.105469 229.210938 170.21875 L 229.210938 206.414062 C 229.195312 212.308594 227.714844 216.78125 224.773438 219.832031 Z M 221.980469 180.972656 C 220.628906 177.515625 217.515625 175.789062 212.640625 175.789062 C 206.257812 175.75 203.066406 179.667969 203.066406 187.546875 C 203.066406 191.929688 204.121094 195.117188 206.230469 197.109375 C 207.035156 197.902344 207.96875 198.5 209.023438 198.90625 C 210.078125 199.3125 211.171875 199.492188 212.300781 199.445312 C 217.386719 199.445312 220.601562 197.714844 221.945312 194.261719 Z M 241.597656 205.773438 L 236.015625 205.773438 C 235.90625 205.789062 235.796875 205.777344 235.691406 205.742188 C 235.582031 205.707031 235.492188 205.648438 235.410156 205.570312 C 235.332031 205.492188 235.273438 205.398438 235.234375 205.292969 C 235.199219 205.1875 235.1875 205.078125 235.199219 204.96875 L 235.199219 151.417969 C 235.1875 151.304688 235.199219 151.199219 235.234375 151.089844 C 235.273438 150.984375 235.332031 150.894531 235.410156 150.8125 C 235.492188 150.734375 235.582031 150.679688 235.691406 150.640625 C 235.796875 150.605469 235.90625 150.597656 236.015625 150.613281 L 241.597656 150.613281 C 241.710938 150.59375 241.820312 150.601562 241.929688 150.636719 C 242.035156 150.671875 242.128906 150.730469 242.210938 150.808594 C 242.292969 150.886719 242.351562 150.980469 242.386719 151.089844 C 242.421875 151.195312 242.433594 151.304688 242.417969 151.417969 L 242.417969 204.96875 C 242.433594 205.078125 242.421875 205.1875 242.386719 205.296875 C 242.351562 205.402344 242.292969 205.496094 242.210938 205.578125 C 242.128906 205.65625 242.035156 205.714844 241.929688 205.75 C 241.820312 205.78125 241.710938 205.789062 241.597656 205.773438 Z M 282.363281 189.332031 C 282.375 189.445312 282.363281 189.550781 282.328125 189.660156 C 282.289062 189.765625 282.230469 189.859375 282.152344 189.9375 C 282.070312 190.015625 281.980469 190.074219 281.871094 190.109375 C 281.765625 190.144531 281.65625 190.152344 281.542969 190.136719 L 255.226562 190.136719 C 255.359375 191.417969 255.71875 192.628906 256.304688 193.777344 C 256.890625 194.921875 257.664062 195.925781 258.625 196.78125 C 259.792969 197.757812 261.09375 198.492188 262.535156 198.984375 C 263.972656 199.480469 265.453125 199.703125 266.972656 199.65625 C 268.40625 199.667969 269.808594 199.460938 271.175781 199.03125 C 272.542969 198.605469 273.8125 197.972656 274.984375 197.144531 C 275.472656 196.816406 275.882812 196.816406 276.148438 197.144531 L 279.957031 201.03125 C 280.390625 201.464844 280.390625 201.839844 279.957031 202.199219 C 278.007812 203.660156 275.878906 204.765625 273.5625 205.515625 C 271.246094 206.265625 268.871094 206.621094 266.433594 206.578125 C 265.160156 206.613281 263.894531 206.519531 262.636719 206.296875 C 261.378906 206.074219 260.160156 205.722656 258.976562 205.25 C 257.789062 204.777344 256.664062 204.1875 255.601562 203.480469 C 254.539062 202.777344 253.554688 201.972656 252.65625 201.066406 C 251.769531 200.152344 250.980469 199.160156 250.292969 198.085938 C 249.605469 197.011719 249.03125 195.878906 248.574219 194.6875 C 248.117188 193.5 247.78125 192.273438 247.570312 191.015625 C 247.359375 189.757812 247.277344 188.492188 247.320312 187.21875 C 247.289062 185.980469 247.382812 184.75 247.597656 183.527344 C 247.816406 182.304688 248.148438 181.117188 248.601562 179.964844 C 249.054688 178.808594 249.613281 177.710938 250.285156 176.667969 C 250.957031 175.625 251.722656 174.65625 252.585938 173.765625 C 253.40625 172.929688 254.304688 172.1875 255.277344 171.539062 C 256.253906 170.890625 257.285156 170.351562 258.371094 169.917969 C 259.460938 169.488281 260.582031 169.171875 261.734375 168.972656 C 262.890625 168.777344 264.050781 168.699219 265.222656 168.746094 C 266.382812 168.714844 267.535156 168.808594 268.675781 169.023438 C 269.820312 169.238281 270.925781 169.570312 272 170.019531 C 273.070312 170.472656 274.082031 171.027344 275.035156 171.691406 C 275.992188 172.359375 276.863281 173.117188 277.65625 173.964844 C 278.515625 174.863281 279.273438 175.839844 279.921875 176.894531 C 280.574219 177.953125 281.109375 179.066406 281.523438 180.238281 C 281.9375 181.410156 282.222656 182.609375 282.382812 183.839844 C 282.542969 185.074219 282.570312 186.308594 282.46875 187.546875 Z M 271.75 177.46875 C 270.84375 176.640625 269.816406 176.007812 268.667969 175.574219 C 267.519531 175.140625 266.332031 174.933594 265.105469 174.957031 C 263.921875 174.945312 262.78125 175.152344 261.675781 175.570312 C 260.570312 175.988281 259.582031 176.59375 258.707031 177.386719 C 257.777344 178.207031 257.011719 179.160156 256.410156 180.242188 C 255.808594 181.328125 255.40625 182.480469 255.203125 183.703125 L 274.714844 183.703125 C 274.703125 182.496094 274.441406 181.347656 273.921875 180.257812 C 273.402344 179.167969 272.679688 178.238281 271.75 177.46875 Z M 271.75 177.46875 " fill-opacity="1" fill-rule="nonzero"/></g></svg>