<svg xmlns="http://www.w3.org/2000/svg" xmlns:xlink="http://www.w3.org/1999/xlink" width="500" zoomAndPan="magnify" viewBox="0 0 375 374.999991" height="500" preserveAspectRatio="xMidYMid meet" version="1.0"><defs><clipPath id="7b6207f415"><path d="M 25.5 157.457031 L 349.5 157.457031 L 349.5 217.457031 L 25.5 217.457031 Z M 25.5 157.457031 " clip-rule="nonzero"/></clipPath></defs><g clip-path="url(#7b6207f415)"><path fill="#ffffff" d="M 25.5 157.585938 L 49.253906 157.585938 C 53.777344 157.585938 57.171875 158.71875 59.683594 160.601562 C 62.449219 162.863281 63.957031 166.132812 63.957031 170.152344 C 63.957031 174.804688 62.074219 177.695312 58.300781 179.453125 L 58.300781 179.707031 C 63.328125 181.339844 66.21875 185.863281 66.21875 191.269531 C 66.21875 196.421875 64.210938 200.441406 60.941406 202.957031 C 58.175781 204.964844 54.65625 205.847656 49.882812 205.847656 L 25.5 205.847656 Z M 46.867188 176.4375 C 49.378906 176.4375 51.265625 175.054688 51.265625 172.164062 C 51.265625 169.398438 49.378906 168.015625 46.738281 168.015625 L 38.570312 168.015625 L 38.570312 176.3125 L 46.867188 176.3125 Z M 47.996094 195.164062 C 50.886719 195.164062 53.023438 193.402344 53.023438 190.261719 C 53.023438 186.867188 50.761719 185.359375 47.996094 185.359375 L 38.695312 185.359375 L 38.695312 195.289062 L 47.996094 195.289062 Z M 68.355469 157.585938 L 80.796875 157.585938 L 80.796875 205.972656 L 68.355469 205.972656 Z M 83.3125 188.753906 C 83.3125 177.820312 90.351562 170.53125 101.285156 170.53125 C 112.21875 170.53125 119.128906 177.945312 119.128906 188.753906 C 119.128906 199.6875 112.21875 206.976562 101.285156 206.976562 C 90.351562 206.976562 83.3125 199.6875 83.3125 188.753906 Z M 106.6875 188.753906 C 106.6875 182.722656 104.804688 178.949219 101.03125 178.949219 C 97.261719 178.949219 95.503906 182.722656 95.503906 188.753906 C 95.503906 194.785156 97.261719 198.683594 101.03125 198.683594 C 104.804688 198.558594 106.6875 194.785156 106.6875 188.753906 Z M 120.511719 188.753906 C 120.511719 177.820312 127.550781 170.53125 138.484375 170.53125 C 149.417969 170.53125 156.207031 177.820312 156.207031 188.753906 C 156.207031 199.6875 149.292969 206.976562 138.359375 206.976562 C 127.550781 206.976562 120.511719 199.6875 120.511719 188.753906 Z M 143.890625 188.753906 C 143.890625 182.722656 142.003906 178.949219 138.234375 178.949219 C 134.464844 178.949219 132.703125 182.722656 132.703125 188.753906 C 132.703125 194.785156 134.464844 198.683594 138.234375 198.683594 C 142.003906 198.558594 143.890625 194.785156 143.890625 188.753906 Z M 158.71875 171.410156 L 170.28125 171.410156 L 170.28125 176.5625 L 170.535156 176.5625 C 172.796875 172.542969 175.9375 170.40625 180.964844 170.40625 C 185.363281 170.40625 188.632812 172.542969 190.265625 176.3125 L 190.515625 176.3125 C 193.28125 171.789062 196.925781 170.40625 201.199219 170.40625 C 209.242188 170.40625 212.636719 176.3125 212.636719 184.230469 L 212.636719 205.847656 L 200.570312 205.847656 L 200.570312 186.367188 C 200.570312 182.847656 199.441406 180.585938 196.421875 180.585938 C 193.40625 180.585938 191.898438 183.351562 191.898438 187.121094 L 191.898438 205.847656 L 179.832031 205.847656 L 179.832031 186.367188 C 179.832031 182.847656 178.703125 180.585938 175.6875 180.585938 C 172.667969 180.585938 171.160156 183.351562 171.160156 187.121094 L 171.160156 205.847656 L 158.71875 205.847656 Z M 227.84375 201.320312 L 227.71875 201.320312 L 227.71875 205.847656 L 216.15625 205.847656 L 216.15625 157.585938 L 228.21875 157.585938 L 228.21875 174.929688 L 228.472656 174.929688 C 230.734375 171.914062 233.875 170.277344 238.273438 170.277344 C 246.945312 170.277344 251.972656 178.070312 251.972656 188.503906 C 251.972656 200.191406 246.570312 206.976562 237.519531 206.976562 C 233.75 206.976562 229.855469 205.21875 227.84375 201.320312 Z M 239.53125 188.378906 C 239.53125 182.847656 237.519531 179.203125 233.875 179.203125 C 230.105469 179.203125 227.84375 182.847656 227.84375 188.378906 C 227.84375 193.90625 230.230469 197.550781 233.875 197.550781 C 237.519531 197.550781 239.53125 194.03125 239.53125 188.378906 Z M 253.355469 188.628906 C 253.355469 177.820312 260.519531 170.40625 270.824219 170.40625 C 275.976562 170.40625 279.875 172.039062 282.890625 174.929688 C 286.910156 178.824219 288.671875 184.859375 288.546875 191.894531 L 265.421875 191.894531 C 265.921875 196.167969 267.933594 198.429688 271.578125 198.429688 C 273.714844 198.429688 275.601562 197.425781 276.355469 195.164062 L 288.042969 195.164062 C 286.03125 203.082031 279.875 206.976562 271.203125 206.976562 C 260.519531 206.851562 253.355469 199.5625 253.355469 188.628906 Z M 265.421875 184.984375 L 276.480469 184.984375 C 276.230469 180.835938 273.96875 178.699219 271.078125 178.699219 C 267.683594 178.574219 265.796875 180.960938 265.421875 184.984375 Z M 302.246094 177.316406 L 302.496094 177.316406 C 305.007812 172.542969 308.277344 170.65625 312.425781 170.65625 C 313.429688 170.65625 314.058594 170.78125 314.4375 171.035156 L 314.4375 181.589844 L 314.183594 181.589844 C 307.019531 180.332031 302.875 183.726562 302.875 191.519531 L 302.875 205.972656 L 290.683594 205.972656 L 290.683594 171.410156 L 302.246094 171.410156 Z M 315.691406 205.972656 L 327.378906 205.972656 C 327.882812 207.480469 329.390625 208.863281 332.28125 208.863281 C 336.179688 208.863281 337.558594 206.476562 337.558594 202.832031 L 337.558594 200.316406 L 337.308594 200.316406 C 335.425781 202.578125 332.785156 204.210938 329.015625 204.210938 C 321.597656 204.210938 315.0625 198.683594 315.0625 187.875 C 315.0625 177.945312 320.34375 170.277344 328.386719 170.277344 C 333.035156 170.277344 335.800781 172.164062 337.6875 175.054688 L 337.9375 175.054688 L 337.9375 171.285156 L 349.5 171.285156 L 349.5 201.195312 C 349.5 206.726562 347.613281 211 344.722656 213.511719 C 341.707031 216.152344 337.433594 217.28125 332.535156 217.28125 C 323.234375 217.410156 316.824219 213.636719 315.691406 205.972656 Z M 338.0625 187.371094 C 338.0625 183.097656 336.050781 179.578125 332.535156 179.578125 C 329.140625 179.578125 327.003906 182.597656 327.003906 187.371094 C 327.003906 192.023438 329.140625 195.289062 332.535156 195.289062 C 335.925781 195.289062 338.0625 191.894531 338.0625 187.371094 Z M 338.0625 187.371094 " fill-opacity="1" fill-rule="nonzero"/></g></svg>